<mxfile host="65bd71144e">
    <diagram id="DfZXAu3wmzwe0IcZCl70" name="Autenticazione">
        <mxGraphModel grid="1" gridSize="10" guides="1" tooltips="1" connect="1" arrows="1" page="1" fold="1" pageScale="1" pageWidth="827" pageHeight="1169" math="0" shadow="0">
            <root>
                <mxCell id="0"/>
                <mxCell id="1" parent="0"/>
                <mxCell id="2" value="" style="ellipse;html=1;shape=startState;fillColor=#000000;strokeColor=#81A1C1;fontFamily=Fira Sans;fontSource=https%3A%2F%2Ffonts.googleapis.com%2Fcss%3Ffamily%3DFira%2BSans;" parent="1" vertex="1">
                    <mxGeometry x="384" y="150" width="30" height="30" as="geometry"/>
                </mxCell>
                <mxCell id="3" value="" style="edgeStyle=orthogonalEdgeStyle;html=1;verticalAlign=bottom;endArrow=open;endSize=8;strokeColor=#81A1C1;fontFamily=Fira Sans;fontSource=https%3A%2F%2Ffonts.googleapis.com%2Fcss%3Ffamily%3DFira%2BSans;" parent="1" source="2" edge="1">
                    <mxGeometry relative="1" as="geometry">
                        <mxPoint x="399" y="240" as="targetPoint"/>
                    </mxGeometry>
                </mxCell>
                <mxCell id="6" value="Apre schermata iniziale" style="rounded=1;whiteSpace=wrap;html=1;arcSize=40;fontColor=#000000;fillColor=#CCE8E7;strokeColor=#006A6A;fontFamily=Fira Sans;fontSource=https%3A%2F%2Ffonts.googleapis.com%2Fcss%3Ffamily%3DFira%2BSans;" parent="1" vertex="1">
                    <mxGeometry x="339" y="240" width="120" height="40" as="geometry"/>
                </mxCell>
                <mxCell id="7" value="" style="edgeStyle=orthogonalEdgeStyle;html=1;verticalAlign=bottom;endArrow=open;endSize=8;strokeColor=#6F7978;entryX=0.5;entryY=-0.012;entryDx=0;entryDy=0;entryPerimeter=0;fontFamily=Fira Sans;fontSource=https%3A%2F%2Ffonts.googleapis.com%2Fcss%3Ffamily%3DFira%2BSans;" parent="1" source="6" target="14" edge="1">
                    <mxGeometry relative="1" as="geometry">
                        <mxPoint x="399" y="330" as="targetPoint"/>
                        <Array as="points">
                            <mxPoint x="400" y="310"/>
                            <mxPoint x="400" y="310"/>
                        </Array>
                    </mxGeometry>
                </mxCell>
                <mxCell id="14" value="" style="rhombus;whiteSpace=wrap;html=1;fillColor=#B3C8E8;strokeColor=#6F7978;fontFamily=Fira Sans;fontSource=https%3A%2F%2Ffonts.googleapis.com%2Fcss%3Ffamily%3DFira%2BSans;" parent="1" vertex="1">
                    <mxGeometry x="360" y="340" width="80" height="40" as="geometry"/>
                </mxCell>
                <mxCell id="15" value="[L'utente non vuole creare un account]" style="edgeStyle=orthogonalEdgeStyle;html=1;align=left;verticalAlign=bottom;endArrow=open;endSize=8;strokeColor=#6F7978;fontFamily=Fira Sans;fontSource=https%3A%2F%2Ffonts.googleapis.com%2Fcss%3Ffamily%3DFira%2BSans;" parent="1" source="14" edge="1">
                    <mxGeometry x="-1" relative="1" as="geometry">
                        <mxPoint x="600" y="440" as="targetPoint"/>
                        <mxPoint as="offset"/>
                    </mxGeometry>
                </mxCell>
                <mxCell id="16" value="[L'utente vuole creare un account]" style="edgeStyle=orthogonalEdgeStyle;html=1;align=left;verticalAlign=top;endArrow=open;endSize=8;strokeColor=#6F7978;fontFamily=Fira Sans;fontSource=https%3A%2F%2Ffonts.googleapis.com%2Fcss%3Ffamily%3DFira%2BSans;" parent="1" source="14" edge="1">
                    <mxGeometry x="0.3333" y="-22" relative="1" as="geometry">
                        <mxPoint x="200" y="440" as="targetPoint"/>
                        <Array as="points">
                            <mxPoint x="200" y="360"/>
                        </Array>
                        <mxPoint x="12" y="-20" as="offset"/>
                    </mxGeometry>
                </mxCell>
                <mxCell id="19" value="Preme pulsante &quot;Registrati&quot;" style="rounded=1;whiteSpace=wrap;html=1;arcSize=40;fontColor=#000000;fillColor=#CCE8E7;strokeColor=#006A6A;fontFamily=Fira Sans;fontSource=https%3A%2F%2Ffonts.googleapis.com%2Fcss%3Ffamily%3DFira%2BSans;" parent="1" vertex="1">
                    <mxGeometry x="140" y="440" width="120" height="40" as="geometry"/>
                </mxCell>
                <mxCell id="20" value="" style="edgeStyle=orthogonalEdgeStyle;html=1;verticalAlign=bottom;endArrow=open;endSize=8;strokeColor=#6F7978;fontFamily=Fira Sans;fontSource=https%3A%2F%2Ffonts.googleapis.com%2Fcss%3Ffamily%3DFira%2BSans;" parent="1" source="19" edge="1">
                    <mxGeometry relative="1" as="geometry">
                        <mxPoint x="200" y="540" as="targetPoint"/>
                    </mxGeometry>
                </mxCell>
                <mxCell id="23" value="Visualizza schermata &quot;SignUpUI&quot;" style="rounded=1;whiteSpace=wrap;html=1;arcSize=40;fontColor=#000000;fillColor=#CCE8E7;strokeColor=#006A6A;fontFamily=Fira Sans;fontSource=https%3A%2F%2Ffonts.googleapis.com%2Fcss%3Ffamily%3DFira%2BSans;" parent="1" vertex="1">
                    <mxGeometry x="140" y="540" width="120" height="40" as="geometry"/>
                </mxCell>
                <mxCell id="24" value="" style="edgeStyle=orthogonalEdgeStyle;html=1;verticalAlign=bottom;endArrow=open;endSize=8;strokeColor=#6F7978;fontFamily=Fira Sans;fontSource=https%3A%2F%2Ffonts.googleapis.com%2Fcss%3Ffamily%3DFira%2BSans;" parent="1" source="23" edge="1">
                    <mxGeometry relative="1" as="geometry">
                        <mxPoint x="200" y="640" as="targetPoint"/>
                    </mxGeometry>
                </mxCell>
                <mxCell id="25" value="Inserisce informazioni" style="rounded=1;whiteSpace=wrap;html=1;arcSize=40;fontColor=#000000;fillColor=#CCE8E7;strokeColor=#006A6A;fontFamily=Fira Sans;fontSource=https%3A%2F%2Ffonts.googleapis.com%2Fcss%3Ffamily%3DFira%2BSans;" parent="1" vertex="1">
                    <mxGeometry x="140" y="640" width="120" height="40" as="geometry"/>
                </mxCell>
                <mxCell id="26" value="" style="edgeStyle=orthogonalEdgeStyle;html=1;verticalAlign=bottom;endArrow=open;endSize=8;strokeColor=#6F7978;fontFamily=Fira Sans;fontSource=https%3A%2F%2Ffonts.googleapis.com%2Fcss%3Ffamily%3DFira%2BSans;" parent="1" source="25" edge="1">
                    <mxGeometry relative="1" as="geometry">
                        <mxPoint x="200" y="740" as="targetPoint"/>
                    </mxGeometry>
                </mxCell>
                <mxCell id="27" value="" style="rhombus;whiteSpace=wrap;html=1;fillColor=#B3C8E8;strokeColor=#6F7978;fontFamily=Fira Sans;fontSource=https%3A%2F%2Ffonts.googleapis.com%2Fcss%3Ffamily%3DFira%2BSans;" parent="1" vertex="1">
                    <mxGeometry x="160" y="840" width="80" height="40" as="geometry"/>
                </mxCell>
                <mxCell id="28" value="[Informazioni non valide]" style="edgeStyle=orthogonalEdgeStyle;html=1;align=left;verticalAlign=bottom;endArrow=open;endSize=8;strokeColor=#6F7978;entryX=0;entryY=0.5;entryDx=0;entryDy=0;fontFamily=Fira Sans;fontSource=https%3A%2F%2Ffonts.googleapis.com%2Fcss%3Ffamily%3DFira%2BSans;" parent="1" source="27" target="25" edge="1">
                    <mxGeometry x="-0.52" relative="1" as="geometry">
                        <mxPoint x="80" y="680" as="targetPoint"/>
                        <Array as="points">
                            <mxPoint y="860"/>
                            <mxPoint y="660"/>
                        </Array>
                        <mxPoint as="offset"/>
                    </mxGeometry>
                </mxCell>
                <mxCell id="29" value="[Informazioni valide]" style="edgeStyle=orthogonalEdgeStyle;html=1;align=left;verticalAlign=top;endArrow=open;endSize=8;strokeColor=#6F7978;entryX=0.167;entryY=-0.008;entryDx=0;entryDy=0;entryPerimeter=0;fontFamily=Fira Sans;fontSource=https%3A%2F%2Ffonts.googleapis.com%2Fcss%3Ffamily%3DFira%2BSans;" parent="1" source="27" target="61" edge="1">
                    <mxGeometry x="-1" y="20" relative="1" as="geometry">
                        <mxPoint x="400" y="930" as="targetPoint"/>
                        <Array as="points">
                            <mxPoint x="440" y="860"/>
                        </Array>
                        <mxPoint as="offset"/>
                    </mxGeometry>
                </mxCell>
                <mxCell id="30" value="Preme pulsante &quot;Registrati&quot;" style="rounded=1;whiteSpace=wrap;html=1;arcSize=40;fontColor=#000000;fillColor=#CCE8E7;strokeColor=#006A6A;fontFamily=Fira Sans;fontSource=https%3A%2F%2Ffonts.googleapis.com%2Fcss%3Ffamily%3DFira%2BSans;" parent="1" vertex="1">
                    <mxGeometry x="140" y="740" width="120" height="40" as="geometry"/>
                </mxCell>
                <mxCell id="31" value="" style="edgeStyle=orthogonalEdgeStyle;html=1;verticalAlign=bottom;endArrow=open;endSize=8;strokeColor=#6F7978;fontFamily=Fira Sans;fontSource=https%3A%2F%2Ffonts.googleapis.com%2Fcss%3Ffamily%3DFira%2BSans;" parent="1" source="30" edge="1">
                    <mxGeometry relative="1" as="geometry">
                        <mxPoint x="200" y="840" as="targetPoint"/>
                    </mxGeometry>
                </mxCell>
                <mxCell id="36" value="" style="rhombus;whiteSpace=wrap;html=1;fillColor=#B3C8E8;strokeColor=#6F7978;fontFamily=Fira Sans;fontSource=https%3A%2F%2Ffonts.googleapis.com%2Fcss%3Ffamily%3DFira%2BSans;" parent="1" vertex="1">
                    <mxGeometry x="560" y="440" width="80" height="40" as="geometry"/>
                </mxCell>
                <mxCell id="37" value="[L'utente vuole accedere &lt;br&gt;tramite credenziali]" style="edgeStyle=orthogonalEdgeStyle;html=1;align=left;verticalAlign=bottom;endArrow=open;endSize=8;strokeColor=#6F7978;entryX=0.506;entryY=-0.072;entryDx=0;entryDy=0;entryPerimeter=0;fontFamily=Fira Sans;fontSource=https%3A%2F%2Ffonts.googleapis.com%2Fcss%3Ffamily%3DFira%2BSans;" parent="1" source="36" target="64" edge="1">
                    <mxGeometry x="-1" relative="1" as="geometry">
                        <mxPoint x="720" y="520" as="targetPoint"/>
                        <mxPoint as="offset"/>
                    </mxGeometry>
                </mxCell>
                <mxCell id="38" value="[L'utente vuole accedere &lt;br&gt;tramite terzi]" style="edgeStyle=orthogonalEdgeStyle;html=1;align=left;verticalAlign=top;endArrow=open;endSize=8;strokeColor=#6F7978;entryX=0.5;entryY=0;entryDx=0;entryDy=0;fontFamily=Fira Sans;fontSource=https%3A%2F%2Ffonts.googleapis.com%2Fcss%3Ffamily%3DFira%2BSans;" parent="1" source="36" target="39" edge="1">
                    <mxGeometry y="-50" relative="1" as="geometry">
                        <mxPoint x="480" y="520" as="targetPoint"/>
                        <Array as="points">
                            <mxPoint x="480" y="460"/>
                        </Array>
                        <mxPoint x="20" y="-40" as="offset"/>
                    </mxGeometry>
                </mxCell>
                <mxCell id="39" value="Preme il pulsante di Google o di Facebook" style="rounded=1;whiteSpace=wrap;html=1;arcSize=40;fontColor=#000000;fillColor=#CCE8E7;strokeColor=#006A6A;fontFamily=Fira Sans;fontSource=https%3A%2F%2Ffonts.googleapis.com%2Fcss%3Ffamily%3DFira%2BSans;" parent="1" vertex="1">
                    <mxGeometry x="420" y="540" width="120" height="40" as="geometry"/>
                </mxCell>
                <mxCell id="40" value="" style="edgeStyle=orthogonalEdgeStyle;html=1;verticalAlign=bottom;endArrow=open;endSize=8;strokeColor=#6F7978;entryX=0.5;entryY=0;entryDx=0;entryDy=0;fontFamily=Fira Sans;fontSource=https%3A%2F%2Ffonts.googleapis.com%2Fcss%3Ffamily%3DFira%2BSans;" parent="1" source="39" target="61" edge="1">
                    <mxGeometry relative="1" as="geometry">
                        <mxPoint x="480" y="947" as="targetPoint"/>
                    </mxGeometry>
                </mxCell>
                <mxCell id="55" value="" style="edgeStyle=orthogonalEdgeStyle;html=1;verticalAlign=bottom;endArrow=open;endSize=8;strokeColor=#6F7978;fontFamily=Fira Sans;fontSource=https%3A%2F%2Ffonts.googleapis.com%2Fcss%3Ffamily%3DFira%2BSans;" parent="1" source="64" edge="1">
                    <mxGeometry relative="1" as="geometry">
                        <mxPoint x="719" y="640" as="targetPoint"/>
                    </mxGeometry>
                </mxCell>
                <mxCell id="56" value="" style="rhombus;whiteSpace=wrap;html=1;fillColor=#B3C8E8;strokeColor=#6F7978;fontFamily=Fira Sans;fontSource=https%3A%2F%2Ffonts.googleapis.com%2Fcss%3Ffamily%3DFira%2BSans;" parent="1" vertex="1">
                    <mxGeometry x="679" y="740" width="80" height="40" as="geometry"/>
                </mxCell>
                <mxCell id="57" value="[Informazioni non valide]" style="edgeStyle=orthogonalEdgeStyle;html=1;align=left;verticalAlign=bottom;endArrow=open;endSize=8;strokeColor=#6F7978;entryX=1;entryY=0.5;entryDx=0;entryDy=0;fontFamily=Fira Sans;fontSource=https%3A%2F%2Ffonts.googleapis.com%2Fcss%3Ffamily%3DFira%2BSans;" parent="1" source="56" target="64" edge="1">
                    <mxGeometry x="-1" relative="1" as="geometry">
                        <mxPoint x="789" y="560" as="targetPoint"/>
                        <Array as="points">
                            <mxPoint x="919" y="760"/>
                            <mxPoint x="919" y="560"/>
                        </Array>
                    </mxGeometry>
                </mxCell>
                <mxCell id="58" value="[Informazioni valide]" style="edgeStyle=orthogonalEdgeStyle;html=1;align=left;verticalAlign=top;endArrow=open;endSize=8;strokeColor=#6F7978;entryX=0.833;entryY=0;entryDx=0;entryDy=0;entryPerimeter=0;fontFamily=Fira Sans;fontSource=https%3A%2F%2Ffonts.googleapis.com%2Fcss%3Ffamily%3DFira%2BSans;" parent="1" source="56" target="61" edge="1">
                    <mxGeometry x="-0.1667" y="-20" relative="1" as="geometry">
                        <mxPoint x="519" y="940" as="targetPoint"/>
                        <Array as="points">
                            <mxPoint x="519" y="760"/>
                        </Array>
                        <mxPoint as="offset"/>
                    </mxGeometry>
                </mxCell>
                <mxCell id="59" value="Preme pulsante &quot;Accedi&quot;" style="rounded=1;whiteSpace=wrap;html=1;arcSize=40;fontColor=#000000;fillColor=#CCE8E7;strokeColor=#006A6A;fontFamily=Fira Sans;fontSource=https%3A%2F%2Ffonts.googleapis.com%2Fcss%3Ffamily%3DFira%2BSans;" parent="1" vertex="1">
                    <mxGeometry x="659" y="640" width="120" height="40" as="geometry"/>
                </mxCell>
                <mxCell id="60" value="" style="edgeStyle=orthogonalEdgeStyle;html=1;verticalAlign=bottom;endArrow=open;endSize=8;strokeColor=#6F7978;fontFamily=Fira Sans;fontSource=https%3A%2F%2Ffonts.googleapis.com%2Fcss%3Ffamily%3DFira%2BSans;" parent="1" source="59" edge="1">
                    <mxGeometry relative="1" as="geometry">
                        <mxPoint x="719" y="740" as="targetPoint"/>
                    </mxGeometry>
                </mxCell>
                <mxCell id="61" value="Visualizza schermata &quot;HomepageUI&quot;" style="rounded=1;whiteSpace=wrap;html=1;arcSize=40;fontColor=#000000;fillColor=#CCE8E7;strokeColor=#006A6A;fontFamily=Fira Sans;fontSource=https%3A%2F%2Ffonts.googleapis.com%2Fcss%3Ffamily%3DFira%2BSans;" parent="1" vertex="1">
                    <mxGeometry x="420" y="950" width="120" height="40" as="geometry"/>
                </mxCell>
                <mxCell id="63" value="" style="ellipse;html=1;shape=endState;fillColor=#000000;strokeColor=#81A1C1;fontFamily=Fira Sans;fontSource=https%3A%2F%2Ffonts.googleapis.com%2Fcss%3Ffamily%3DFira%2BSans;" parent="1" vertex="1">
                    <mxGeometry x="465" y="1050" width="30" height="30" as="geometry"/>
                </mxCell>
                <mxCell id="64" value="Inserisce credenziali" style="rounded=1;whiteSpace=wrap;html=1;arcSize=40;fontColor=#000000;fillColor=#CCE8E7;strokeColor=#006A6A;fontFamily=Fira Sans;fontSource=https%3A%2F%2Ffonts.googleapis.com%2Fcss%3Ffamily%3DFira%2BSans;" parent="1" vertex="1">
                    <mxGeometry x="659" y="540" width="120" height="40" as="geometry"/>
                </mxCell>
                <mxCell id="66" value="" style="edgeStyle=orthogonalEdgeStyle;html=1;verticalAlign=bottom;endArrow=open;endSize=8;strokeColor=#6F7978;fontFamily=Fira Sans;fontSource=https%3A%2F%2Ffonts.googleapis.com%2Fcss%3Ffamily%3DFira%2BSans;" parent="1" edge="1">
                    <mxGeometry relative="1" as="geometry">
                        <mxPoint x="479.5" y="1050" as="targetPoint"/>
                        <mxPoint x="479.5" y="990" as="sourcePoint"/>
                    </mxGeometry>
                </mxCell>
            </root>
        </mxGraphModel>
    </diagram>
    <diagram id="ALaczC5mkR7BzvLYGRh7" name="Aggiungi itinerario">
        <mxGraphModel dx="804" dy="519" grid="1" gridSize="10" guides="1" tooltips="1" connect="1" arrows="1" fold="1" page="1" pageScale="1" pageWidth="827" pageHeight="1169" math="0" shadow="0">
            <root>
                <mxCell id="TtmnGCqJGLE9cN-NqqPR-0"/>
                <mxCell id="TtmnGCqJGLE9cN-NqqPR-1" parent="TtmnGCqJGLE9cN-NqqPR-0"/>
                <mxCell id="TtmnGCqJGLE9cN-NqqPR-2" value="f" style="ellipse;html=1;shape=endState;fillColor=#000000;strokeColor=#81A1C1;fontFamily=Fira Sans;fontSource=https%3A%2F%2Ffonts.googleapis.com%2Fcss%3Ffamily%3DFira%2BSans;" parent="TtmnGCqJGLE9cN-NqqPR-1" vertex="1">
                    <mxGeometry x="384" y="70" width="30" height="30" as="geometry"/>
                </mxCell>
                <mxCell id="JYeMRQZDa-Wc7VvY4UhI-0" value="Preme pulsante &quot;Nuovo itinerario&quot;" style="rounded=1;whiteSpace=wrap;html=1;arcSize=40;fontColor=#000000;fillColor=#CCE8E7;strokeColor=#006A6A;fontFamily=Fira Sans;fontSource=https%3A%2F%2Ffonts.googleapis.com%2Fcss%3Ffamily%3DFira%2BSans;" parent="TtmnGCqJGLE9cN-NqqPR-1" vertex="1">
                    <mxGeometry x="329" y="160" width="140" height="40" as="geometry"/>
                </mxCell>
                <mxCell id="JYeMRQZDa-Wc7VvY4UhI-1" value="" style="edgeStyle=orthogonalEdgeStyle;html=1;verticalAlign=bottom;endArrow=open;endSize=8;strokeColor=#6F7978;fontFamily=Fira Sans;fontSource=https%3A%2F%2Ffonts.googleapis.com%2Fcss%3Ffamily%3DFira%2BSans;" parent="TtmnGCqJGLE9cN-NqqPR-1" source="JYeMRQZDa-Wc7VvY4UhI-0" edge="1">
                    <mxGeometry relative="1" as="geometry">
                        <mxPoint x="399" y="260" as="targetPoint"/>
                    </mxGeometry>
                </mxCell>
                <mxCell id="JYeMRQZDa-Wc7VvY4UhI-2" value="" style="edgeStyle=orthogonalEdgeStyle;html=1;verticalAlign=bottom;endArrow=open;endSize=8;strokeColor=#81A1C1;fontFamily=Fira Sans;fontSource=https%3A%2F%2Ffonts.googleapis.com%2Fcss%3Ffamily%3DFira%2BSans;" parent="TtmnGCqJGLE9cN-NqqPR-1" edge="1">
                    <mxGeometry relative="1" as="geometry">
                        <mxPoint x="398.5" y="160" as="targetPoint"/>
                        <mxPoint x="398.5" y="100" as="sourcePoint"/>
                    </mxGeometry>
                </mxCell>
                <mxCell id="JYeMRQZDa-Wc7VvY4UhI-3" value="Visualizza schermata &quot;AddItineraryInfoUI&quot;" style="rounded=1;whiteSpace=wrap;html=1;arcSize=40;fontColor=#000000;fillColor=#CCE8E7;strokeColor=#006A6A;fontFamily=Fira Sans;fontSource=https%3A%2F%2Ffonts.googleapis.com%2Fcss%3Ffamily%3DFira%2BSans;" parent="TtmnGCqJGLE9cN-NqqPR-1" vertex="1">
                    <mxGeometry x="329" y="260" width="140" height="40" as="geometry"/>
                </mxCell>
                <mxCell id="JYeMRQZDa-Wc7VvY4UhI-4" value="" style="edgeStyle=orthogonalEdgeStyle;html=1;verticalAlign=bottom;endArrow=open;endSize=8;strokeColor=#6F7978;fontFamily=Fira Sans;fontSource=https%3A%2F%2Ffonts.googleapis.com%2Fcss%3Ffamily%3DFira%2BSans;" parent="TtmnGCqJGLE9cN-NqqPR-1" source="JYeMRQZDa-Wc7VvY4UhI-3" edge="1">
                    <mxGeometry relative="1" as="geometry">
                        <mxPoint x="399" y="360" as="targetPoint"/>
                    </mxGeometry>
                </mxCell>
                <mxCell id="JYeMRQZDa-Wc7VvY4UhI-5" value="" style="rhombus;whiteSpace=wrap;html=1;fillColor=#B3C8E8;strokeColor=#6F7978;fontFamily=Fira Sans;fontSource=https%3A%2F%2Ffonts.googleapis.com%2Fcss%3Ffamily%3DFira%2BSans;" parent="TtmnGCqJGLE9cN-NqqPR-1" vertex="1">
                    <mxGeometry x="359" y="560" width="80" height="40" as="geometry"/>
                </mxCell>
                <mxCell id="JYeMRQZDa-Wc7VvY4UhI-6" value="[Durata non valida]" style="edgeStyle=orthogonalEdgeStyle;html=1;align=left;verticalAlign=bottom;endArrow=open;endSize=8;strokeColor=#6F7978;fontFamily=Fira Sans;fontSource=https%3A%2F%2Ffonts.googleapis.com%2Fcss%3Ffamily%3DFira%2BSans;" parent="TtmnGCqJGLE9cN-NqqPR-1" source="JYeMRQZDa-Wc7VvY4UhI-5" edge="1">
                    <mxGeometry x="0.0479" relative="1" as="geometry">
                        <mxPoint x="459" y="380" as="targetPoint"/>
                        <Array as="points">
                            <mxPoint x="559" y="580"/>
                            <mxPoint x="559" y="380"/>
                        </Array>
                        <mxPoint as="offset"/>
                    </mxGeometry>
                </mxCell>
                <mxCell id="JYeMRQZDa-Wc7VvY4UhI-7" value="[Durata valida]" style="edgeStyle=orthogonalEdgeStyle;html=1;align=left;verticalAlign=top;endArrow=open;endSize=8;strokeColor=#6F7978;fontFamily=Fira Sans;fontSource=https%3A%2F%2Ffonts.googleapis.com%2Fcss%3Ffamily%3DFira%2BSans;" edge="1" parent="TtmnGCqJGLE9cN-NqqPR-1" source="JYeMRQZDa-Wc7VvY4UhI-5">
                    <mxGeometry x="-0.6667" relative="1" as="geometry">
                        <mxPoint x="399" y="670" as="targetPoint"/>
                        <Array as="points">
                            <mxPoint x="399" y="630"/>
                            <mxPoint x="399" y="630"/>
                        </Array>
                        <mxPoint as="offset"/>
                    </mxGeometry>
                </mxCell>
                <mxCell id="JYeMRQZDa-Wc7VvY4UhI-8" value="Preme pulsante &quot;Successivo&quot;" style="rounded=1;whiteSpace=wrap;html=1;arcSize=40;fontColor=#000000;fillColor=#CCE8E7;strokeColor=#006A6A;fontFamily=Fira Sans;fontSource=https%3A%2F%2Ffonts.googleapis.com%2Fcss%3Ffamily%3DFira%2BSans;" parent="TtmnGCqJGLE9cN-NqqPR-1" vertex="1">
                    <mxGeometry x="329" y="460" width="140" height="40" as="geometry"/>
                </mxCell>
                <mxCell id="JYeMRQZDa-Wc7VvY4UhI-12" value="Inserisce informazioni" style="rounded=1;whiteSpace=wrap;html=1;arcSize=40;fontColor=#000000;fillColor=#CCE8E7;strokeColor=#006A6A;fontFamily=Fira Sans;fontSource=https%3A%2F%2Ffonts.googleapis.com%2Fcss%3Ffamily%3DFira%2BSans;" parent="TtmnGCqJGLE9cN-NqqPR-1" vertex="1">
                    <mxGeometry x="329" y="360" width="140" height="40" as="geometry"/>
                </mxCell>
                <mxCell id="JYeMRQZDa-Wc7VvY4UhI-13" value="" style="edgeStyle=orthogonalEdgeStyle;html=1;verticalAlign=bottom;endArrow=open;endSize=8;strokeColor=#6F7978;fontFamily=Fira Sans;fontSource=https%3A%2F%2Ffonts.googleapis.com%2Fcss%3Ffamily%3DFira%2BSans;" parent="TtmnGCqJGLE9cN-NqqPR-1" source="JYeMRQZDa-Wc7VvY4UhI-12" edge="1">
                    <mxGeometry relative="1" as="geometry">
                        <mxPoint x="399" y="460" as="targetPoint"/>
                    </mxGeometry>
                </mxCell>
                <mxCell id="baHo2-OKki2JLrSelUKf-0" value="" style="edgeStyle=orthogonalEdgeStyle;html=1;verticalAlign=bottom;endArrow=open;endSize=8;strokeColor=#6F7978;fontFamily=Fira Sans;fontSource=https%3A%2F%2Ffonts.googleapis.com%2Fcss%3Ffamily%3DFira%2BSans;" parent="TtmnGCqJGLE9cN-NqqPR-1" edge="1">
                    <mxGeometry relative="1" as="geometry">
                        <mxPoint x="398.66" y="560" as="targetPoint"/>
                        <mxPoint x="398.66" y="500" as="sourcePoint"/>
                    </mxGeometry>
                </mxCell>
                <mxCell id="baHo2-OKki2JLrSelUKf-1" value="Visualizza schermata&lt;br&gt;&quot;AddItineraryPhotosUI&quot;" style="rounded=1;whiteSpace=wrap;html=1;arcSize=40;fontColor=#000000;fillColor=#CCE8E7;strokeColor=#006A6A;fontFamily=Fira Sans;fontSource=https%3A%2F%2Ffonts.googleapis.com%2Fcss%3Ffamily%3DFira%2BSans;" parent="TtmnGCqJGLE9cN-NqqPR-1" vertex="1">
                    <mxGeometry x="329" y="670" width="140" height="40" as="geometry"/>
                </mxCell>
                <mxCell id="baHo2-OKki2JLrSelUKf-2" value="" style="edgeStyle=orthogonalEdgeStyle;html=1;verticalAlign=bottom;endArrow=open;endSize=8;strokeColor=#6F7978;fontFamily=Fira Sans;fontSource=https%3A%2F%2Ffonts.googleapis.com%2Fcss%3Ffamily%3DFira%2BSans;" parent="TtmnGCqJGLE9cN-NqqPR-1" source="baHo2-OKki2JLrSelUKf-1" edge="1">
                    <mxGeometry relative="1" as="geometry">
                        <mxPoint x="399" y="769.9999999999999" as="targetPoint"/>
                    </mxGeometry>
                </mxCell>
                <mxCell id="baHo2-OKki2JLrSelUKf-3" value="" style="rhombus;whiteSpace=wrap;html=1;fillColor=#B3C8E8;strokeColor=#6F7978;fontFamily=Fira Sans;fontSource=https%3A%2F%2Ffonts.googleapis.com%2Fcss%3Ffamily%3DFira%2BSans;" parent="TtmnGCqJGLE9cN-NqqPR-1" vertex="1">
                    <mxGeometry x="359" y="870" width="80" height="40" as="geometry"/>
                </mxCell>
                <mxCell id="baHo2-OKki2JLrSelUKf-4" value="[Selezionate 0 o più di 5 foto]" style="edgeStyle=orthogonalEdgeStyle;html=1;align=left;verticalAlign=bottom;endArrow=open;endSize=8;strokeColor=#6F7978;fontFamily=Fira Sans;fontSource=https%3A%2F%2Ffonts.googleapis.com%2Fcss%3Ffamily%3DFira%2BSans;" parent="TtmnGCqJGLE9cN-NqqPR-1" source="baHo2-OKki2JLrSelUKf-3" edge="1">
                    <mxGeometry x="0.0629" relative="1" as="geometry">
                        <mxPoint x="459" y="789.9999999999999" as="targetPoint"/>
                        <Array as="points">
                            <mxPoint x="559" y="890"/>
                            <mxPoint x="559" y="790"/>
                        </Array>
                        <mxPoint as="offset"/>
                    </mxGeometry>
                </mxCell>
                <mxCell id="baHo2-OKki2JLrSelUKf-5" value="[Selezionata almeno una foto]" style="edgeStyle=orthogonalEdgeStyle;html=1;align=left;verticalAlign=top;endArrow=open;endSize=8;strokeColor=#6F7978;fontFamily=Fira Sans;fontSource=https%3A%2F%2Ffonts.googleapis.com%2Fcss%3Ffamily%3DFira%2BSans;" parent="TtmnGCqJGLE9cN-NqqPR-1" source="baHo2-OKki2JLrSelUKf-3" edge="1">
                    <mxGeometry x="-0.6667" relative="1" as="geometry">
                        <mxPoint x="399" y="980" as="targetPoint"/>
                        <Array as="points">
                            <mxPoint x="399" y="940"/>
                            <mxPoint x="399" y="940"/>
                        </Array>
                        <mxPoint as="offset"/>
                    </mxGeometry>
                </mxCell>
                <mxCell id="baHo2-OKki2JLrSelUKf-6" value="Preme pulsante &quot;Successivo&quot;" style="rounded=1;whiteSpace=wrap;html=1;arcSize=40;fontColor=#000000;fillColor=#CCE8E7;strokeColor=#006A6A;fontFamily=Fira Sans;fontSource=https%3A%2F%2Ffonts.googleapis.com%2Fcss%3Ffamily%3DFira%2BSans;" parent="TtmnGCqJGLE9cN-NqqPR-1" vertex="1">
                    <mxGeometry x="329" y="980" width="140" height="40" as="geometry"/>
                </mxCell>
                <mxCell id="baHo2-OKki2JLrSelUKf-7" value="Inserisce foto" style="rounded=1;whiteSpace=wrap;html=1;arcSize=40;fontColor=#000000;fillColor=#CCE8E7;strokeColor=#006A6A;fontFamily=Fira Sans;fontSource=https%3A%2F%2Ffonts.googleapis.com%2Fcss%3Ffamily%3DFira%2BSans;" parent="TtmnGCqJGLE9cN-NqqPR-1" vertex="1">
                    <mxGeometry x="329" y="770" width="140" height="40" as="geometry"/>
                </mxCell>
                <mxCell id="baHo2-OKki2JLrSelUKf-8" value="" style="edgeStyle=orthogonalEdgeStyle;html=1;verticalAlign=bottom;endArrow=open;endSize=8;strokeColor=#6F7978;fontFamily=Fira Sans;fontSource=https%3A%2F%2Ffonts.googleapis.com%2Fcss%3Ffamily%3DFira%2BSans;" parent="TtmnGCqJGLE9cN-NqqPR-1" source="baHo2-OKki2JLrSelUKf-7" edge="1">
                    <mxGeometry relative="1" as="geometry">
                        <mxPoint x="399" y="869.9999999999999" as="targetPoint"/>
                    </mxGeometry>
                </mxCell>
                <mxCell id="baHo2-OKki2JLrSelUKf-9" value="" style="edgeStyle=orthogonalEdgeStyle;html=1;verticalAlign=bottom;endArrow=open;endSize=8;strokeColor=#6F7978;fontFamily=Fira Sans;fontSource=https%3A%2F%2Ffonts.googleapis.com%2Fcss%3Ffamily%3DFira%2BSans;" parent="TtmnGCqJGLE9cN-NqqPR-1" edge="1">
                    <mxGeometry relative="1" as="geometry">
                        <mxPoint x="398.6600000000001" y="1080" as="targetPoint"/>
                        <mxPoint x="398.6600000000001" y="1020" as="sourcePoint"/>
                    </mxGeometry>
                </mxCell>
                <mxCell id="baHo2-OKki2JLrSelUKf-12" value="" style="edgeStyle=orthogonalEdgeStyle;html=1;verticalAlign=bottom;endArrow=open;endSize=8;strokeColor=#6F7978;fontFamily=Fira Sans;fontSource=https%3A%2F%2Ffonts.googleapis.com%2Fcss%3Ffamily%3DFira%2BSans;" parent="TtmnGCqJGLE9cN-NqqPR-1" source="baHo2-OKki2JLrSelUKf-20" edge="1">
                    <mxGeometry relative="1" as="geometry">
                        <mxPoint x="399" y="1180" as="targetPoint"/>
                    </mxGeometry>
                </mxCell>
                <mxCell id="baHo2-OKki2JLrSelUKf-13" value="" style="rhombus;whiteSpace=wrap;html=1;fillColor=#B3C8E8;strokeColor=#6F7978;fontFamily=Fira Sans;fontSource=https%3A%2F%2Ffonts.googleapis.com%2Fcss%3Ffamily%3DFira%2BSans;" parent="TtmnGCqJGLE9cN-NqqPR-1" vertex="1">
                    <mxGeometry x="359" y="1180" width="80" height="40" as="geometry"/>
                </mxCell>
                <mxCell id="baHo2-OKki2JLrSelUKf-15" value="[L'utente vuole inserire le &lt;br&gt;tappe manualmente]" style="edgeStyle=orthogonalEdgeStyle;html=1;align=left;verticalAlign=top;endArrow=open;endSize=8;strokeColor=#6F7978;fontFamily=Fira Sans;fontSource=https%3A%2F%2Ffonts.googleapis.com%2Fcss%3Ffamily%3DFira%2BSans;" parent="TtmnGCqJGLE9cN-NqqPR-1" source="baHo2-OKki2JLrSelUKf-13" edge="1">
                    <mxGeometry x="0.2968" y="-130" relative="1" as="geometry">
                        <mxPoint x="240" y="1280" as="targetPoint"/>
                        <Array as="points">
                            <mxPoint x="240" y="1200"/>
                        </Array>
                        <mxPoint as="offset"/>
                    </mxGeometry>
                </mxCell>
                <mxCell id="baHo2-OKki2JLrSelUKf-16" value="Inserisce tappe manualmente" style="rounded=1;whiteSpace=wrap;html=1;arcSize=40;fontColor=#000000;fillColor=#CCE8E7;strokeColor=#006A6A;fontFamily=Fira Sans;fontSource=https%3A%2F%2Ffonts.googleapis.com%2Fcss%3Ffamily%3DFira%2BSans;" parent="TtmnGCqJGLE9cN-NqqPR-1" vertex="1">
                    <mxGeometry x="170" y="1280" width="140" height="40" as="geometry"/>
                </mxCell>
                <mxCell id="baHo2-OKki2JLrSelUKf-19" value="" style="edgeStyle=orthogonalEdgeStyle;html=1;verticalAlign=bottom;endArrow=open;endSize=8;strokeColor=#6F7978;entryX=0.25;entryY=0;entryDx=0;entryDy=0;fontFamily=Fira Sans;fontSource=https%3A%2F%2Ffonts.googleapis.com%2Fcss%3Ffamily%3DFira%2BSans;" parent="TtmnGCqJGLE9cN-NqqPR-1" target="baHo2-OKki2JLrSelUKf-30" edge="1">
                    <mxGeometry relative="1" as="geometry">
                        <mxPoint x="239.5800000000001" y="1380" as="targetPoint"/>
                        <mxPoint x="239.5800000000001" y="1320" as="sourcePoint"/>
                        <Array as="points">
                            <mxPoint x="240" y="1560"/>
                            <mxPoint x="364" y="1560"/>
                        </Array>
                    </mxGeometry>
                </mxCell>
                <mxCell id="baHo2-OKki2JLrSelUKf-20" value="Visualizza schermata &quot;AddItineraryMapUI&quot;" style="rounded=1;whiteSpace=wrap;html=1;arcSize=40;fontColor=#000000;fillColor=#CCE8E7;strokeColor=#006A6A;fontFamily=Fira Sans;fontSource=https%3A%2F%2Ffonts.googleapis.com%2Fcss%3Ffamily%3DFira%2BSans;" parent="TtmnGCqJGLE9cN-NqqPR-1" vertex="1">
                    <mxGeometry x="329" y="1080" width="140" height="40" as="geometry"/>
                </mxCell>
                <mxCell id="baHo2-OKki2JLrSelUKf-23" value="[L'utente vuole importare &lt;br&gt;un file GPX]" style="edgeStyle=orthogonalEdgeStyle;html=1;align=left;verticalAlign=top;endArrow=open;endSize=8;strokeColor=#6F7978;exitX=1;exitY=0.5;exitDx=0;exitDy=0;fontFamily=Fira Sans;fontSource=https%3A%2F%2Ffonts.googleapis.com%2Fcss%3Ffamily%3DFira%2BSans;" parent="TtmnGCqJGLE9cN-NqqPR-1" source="baHo2-OKki2JLrSelUKf-13" edge="1">
                    <mxGeometry x="0.3036" relative="1" as="geometry">
                        <mxPoint x="560" y="1280" as="targetPoint"/>
                        <mxPoint x="460" y="1200" as="sourcePoint"/>
                        <Array as="points">
                            <mxPoint x="560" y="1200"/>
                        </Array>
                        <mxPoint as="offset"/>
                    </mxGeometry>
                </mxCell>
                <mxCell id="baHo2-OKki2JLrSelUKf-25" value="[L'utente vuole &lt;br&gt;selezionare le&lt;br&gt;tappe su mappa]" style="edgeStyle=orthogonalEdgeStyle;html=1;align=left;verticalAlign=top;endArrow=open;endSize=8;strokeColor=#6F7978;exitX=0.5;exitY=1;exitDx=0;exitDy=0;fontFamily=Fira Sans;fontSource=https%3A%2F%2Ffonts.googleapis.com%2Fcss%3Ffamily%3DFira%2BSans;" parent="TtmnGCqJGLE9cN-NqqPR-1" source="baHo2-OKki2JLrSelUKf-13" edge="1">
                    <mxGeometry x="-1" relative="1" as="geometry">
                        <mxPoint x="399" y="1280" as="targetPoint"/>
                        <mxPoint x="380" y="1280" as="sourcePoint"/>
                        <Array as="points">
                            <mxPoint x="399" y="1270"/>
                            <mxPoint x="399" y="1270"/>
                        </Array>
                        <mxPoint as="offset"/>
                    </mxGeometry>
                </mxCell>
                <mxCell id="baHo2-OKki2JLrSelUKf-26" value="Seleziona tappe sulla mappa" style="rounded=1;whiteSpace=wrap;html=1;arcSize=40;fontColor=#000000;fillColor=#CCE8E7;strokeColor=#006A6A;fontFamily=Fira Sans;fontSource=https%3A%2F%2Ffonts.googleapis.com%2Fcss%3Ffamily%3DFira%2BSans;" parent="TtmnGCqJGLE9cN-NqqPR-1" vertex="1">
                    <mxGeometry x="329" y="1280" width="140" height="40" as="geometry"/>
                </mxCell>
                <mxCell id="baHo2-OKki2JLrSelUKf-27" value="Seleziona file" style="rounded=1;whiteSpace=wrap;html=1;arcSize=40;fontColor=#000000;fillColor=#CCE8E7;strokeColor=#006A6A;fontFamily=Fira Sans;fontSource=https%3A%2F%2Ffonts.googleapis.com%2Fcss%3Ffamily%3DFira%2BSans;" parent="TtmnGCqJGLE9cN-NqqPR-1" vertex="1">
                    <mxGeometry x="490" y="1480" width="140" height="40" as="geometry"/>
                </mxCell>
                <mxCell id="baHo2-OKki2JLrSelUKf-28" value="" style="edgeStyle=orthogonalEdgeStyle;html=1;verticalAlign=bottom;endArrow=open;endSize=8;strokeColor=#6F7978;entryX=0.5;entryY=0;entryDx=0;entryDy=0;fontFamily=Fira Sans;fontSource=https%3A%2F%2Ffonts.googleapis.com%2Fcss%3Ffamily%3DFira%2BSans;" parent="TtmnGCqJGLE9cN-NqqPR-1" edge="1" target="baHo2-OKki2JLrSelUKf-30">
                    <mxGeometry relative="1" as="geometry">
                        <mxPoint x="398.58" y="1380" as="targetPoint"/>
                        <mxPoint x="398.58" y="1320" as="sourcePoint"/>
                    </mxGeometry>
                </mxCell>
                <mxCell id="baHo2-OKki2JLrSelUKf-29" value="" style="edgeStyle=orthogonalEdgeStyle;html=1;verticalAlign=bottom;endArrow=open;endSize=8;strokeColor=#6F7978;entryX=0.75;entryY=0;entryDx=0;entryDy=0;exitX=0.5;exitY=1;exitDx=0;exitDy=0;fontFamily=Fira Sans;fontSource=https%3A%2F%2Ffonts.googleapis.com%2Fcss%3Ffamily%3DFira%2BSans;" parent="TtmnGCqJGLE9cN-NqqPR-1" target="baHo2-OKki2JLrSelUKf-30" edge="1" source="baHo2-OKki2JLrSelUKf-27">
                    <mxGeometry relative="1" as="geometry">
                        <mxPoint x="559.58" y="1380" as="targetPoint"/>
                        <mxPoint x="560" y="1600" as="sourcePoint"/>
                        <Array as="points">
                            <mxPoint x="560" y="1560"/>
                            <mxPoint x="434" y="1560"/>
                        </Array>
                    </mxGeometry>
                </mxCell>
                <mxCell id="baHo2-OKki2JLrSelUKf-30" value="Preme pulsante &quot;Pubblica&quot;" style="rounded=1;whiteSpace=wrap;html=1;arcSize=40;fontColor=#000000;fillColor=#CCE8E7;strokeColor=#006A6A;fontFamily=Fira Sans;fontSource=https%3A%2F%2Ffonts.googleapis.com%2Fcss%3Ffamily%3DFira%2BSans;" parent="TtmnGCqJGLE9cN-NqqPR-1" vertex="1">
                    <mxGeometry x="329" y="1610" width="140" height="40" as="geometry"/>
                </mxCell>
                <mxCell id="baHo2-OKki2JLrSelUKf-31" value="" style="edgeStyle=orthogonalEdgeStyle;html=1;verticalAlign=bottom;endArrow=open;endSize=8;strokeColor=#6F7978;fontFamily=Fira Sans;fontSource=https%3A%2F%2Ffonts.googleapis.com%2Fcss%3Ffamily%3DFira%2BSans;" parent="TtmnGCqJGLE9cN-NqqPR-1" source="baHo2-OKki2JLrSelUKf-30" edge="1">
                    <mxGeometry relative="1" as="geometry">
                        <mxPoint x="399" y="1710" as="targetPoint"/>
                    </mxGeometry>
                </mxCell>
                <mxCell id="baHo2-OKki2JLrSelUKf-32" value="" style="ellipse;html=1;shape=endState;fillColor=#000000;strokeColor=#6F7978;fontFamily=Fira Sans;fontSource=https%3A%2F%2Ffonts.googleapis.com%2Fcss%3Ffamily%3DFira%2BSans;" parent="TtmnGCqJGLE9cN-NqqPR-1" vertex="1">
                    <mxGeometry x="384" y="1710" width="30" height="30" as="geometry"/>
                </mxCell>
                <mxCell id="FS9ip7NS0fmkenPUV0VM-2" value="Apre menu a tendina" style="rounded=1;whiteSpace=wrap;html=1;arcSize=40;fontColor=#000000;fillColor=#CCE8E7;strokeColor=#006A6A;fontFamily=Fira Sans;fontSource=https%3A%2F%2Ffonts.googleapis.com%2Fcss%3Ffamily%3DFira%2BSans;" vertex="1" parent="TtmnGCqJGLE9cN-NqqPR-1">
                    <mxGeometry x="489" y="1280" width="141" height="40" as="geometry"/>
                </mxCell>
                <mxCell id="FS9ip7NS0fmkenPUV0VM-3" value="" style="edgeStyle=orthogonalEdgeStyle;html=1;verticalAlign=bottom;endArrow=open;endSize=8;strokeColor=#6F7978;fontFamily=Fira Sans;fontSource=https%3A%2F%2Ffonts.googleapis.com%2Fcss%3Ffamily%3DFira%2BSans;" edge="1" source="FS9ip7NS0fmkenPUV0VM-2" parent="TtmnGCqJGLE9cN-NqqPR-1">
                    <mxGeometry relative="1" as="geometry">
                        <mxPoint x="560" y="1380" as="targetPoint"/>
                    </mxGeometry>
                </mxCell>
                <mxCell id="FS9ip7NS0fmkenPUV0VM-4" value="Seleziona &lt;br&gt;&quot;Importa file GPX&quot;" style="rounded=1;whiteSpace=wrap;html=1;arcSize=40;fontColor=#000000;fillColor=#CCE8E7;strokeColor=#006A6A;fontFamily=Fira Sans;fontSource=https%3A%2F%2Ffonts.googleapis.com%2Fcss%3Ffamily%3DFira%2BSans;" vertex="1" parent="TtmnGCqJGLE9cN-NqqPR-1">
                    <mxGeometry x="489" y="1380" width="141" height="40" as="geometry"/>
                </mxCell>
                <mxCell id="FS9ip7NS0fmkenPUV0VM-5" value="" style="edgeStyle=orthogonalEdgeStyle;html=1;verticalAlign=bottom;endArrow=open;endSize=8;strokeColor=#6F7978;fontFamily=Fira Sans;fontSource=https%3A%2F%2Ffonts.googleapis.com%2Fcss%3Ffamily%3DFira%2BSans;" edge="1" source="FS9ip7NS0fmkenPUV0VM-4" parent="TtmnGCqJGLE9cN-NqqPR-1">
                    <mxGeometry relative="1" as="geometry">
                        <mxPoint x="560" y="1479.9999999999998" as="targetPoint"/>
                    </mxGeometry>
                </mxCell>
            </root>
        </mxGraphModel>
    </diagram>
    <diagram id="8ASAX_tnSwyeUMKj6Iiv" name="Gestione profilo">
        <mxGraphModel dx="2199" dy="916" grid="1" gridSize="10" guides="1" tooltips="1" connect="1" arrows="1" fold="1" page="1" pageScale="1" pageWidth="827" pageHeight="1169" math="0" shadow="0">
            <root>
                <mxCell id="U4YsfLJUnH2YUSP0RZhR-0"/>
                <mxCell id="U4YsfLJUnH2YUSP0RZhR-1" parent="U4YsfLJUnH2YUSP0RZhR-0"/>
                <mxCell id="CdoeSqfTrKBADaOMWKZn-0" value="" style="ellipse;html=1;shape=startState;fillColor=#000000;strokeColor=#B3C8E8;fontFamily=Fira Sans;fontSource=https%3A%2F%2Ffonts.googleapis.com%2Fcss%3Ffamily%3DFira%2BSans;" parent="U4YsfLJUnH2YUSP0RZhR-1" vertex="1">
                    <mxGeometry x="384" y="150" width="30" height="30" as="geometry"/>
                </mxCell>
                <mxCell id="CdoeSqfTrKBADaOMWKZn-1" value="" style="edgeStyle=orthogonalEdgeStyle;html=1;verticalAlign=bottom;endArrow=open;endSize=8;strokeColor=#81A1C1;fontFamily=Fira Sans;fontSource=https%3A%2F%2Ffonts.googleapis.com%2Fcss%3Ffamily%3DFira%2BSans;" parent="U4YsfLJUnH2YUSP0RZhR-1" source="CdoeSqfTrKBADaOMWKZn-0" edge="1">
                    <mxGeometry relative="1" as="geometry">
                        <mxPoint x="399" y="240" as="targetPoint"/>
                    </mxGeometry>
                </mxCell>
                <mxCell id="CdoeSqfTrKBADaOMWKZn-2" value="Preme icona profilo" style="rounded=1;whiteSpace=wrap;html=1;arcSize=40;fontColor=#000000;fillColor=#CCE8E7;strokeColor=#006A6A;fontFamily=Fira Sans;fontSource=https%3A%2F%2Ffonts.googleapis.com%2Fcss%3Ffamily%3DFira%2BSans;" parent="U4YsfLJUnH2YUSP0RZhR-1" vertex="1">
                    <mxGeometry x="339" y="240" width="120" height="40" as="geometry"/>
                </mxCell>
                <mxCell id="CdoeSqfTrKBADaOMWKZn-3" value="" style="edgeStyle=orthogonalEdgeStyle;html=1;verticalAlign=bottom;endArrow=open;endSize=8;strokeColor=#6F7978;fontFamily=Fira Sans;fontSource=https%3A%2F%2Ffonts.googleapis.com%2Fcss%3Ffamily%3DFira%2BSans;" parent="U4YsfLJUnH2YUSP0RZhR-1" source="CdoeSqfTrKBADaOMWKZn-2" edge="1">
                    <mxGeometry relative="1" as="geometry">
                        <mxPoint x="399" y="340" as="targetPoint"/>
                    </mxGeometry>
                </mxCell>
                <mxCell id="CdoeSqfTrKBADaOMWKZn-4" value="" style="rhombus;whiteSpace=wrap;html=1;fillColor=#B3C8E8;strokeColor=#4B607C;fontFamily=Fira Sans;fontSource=https%3A%2F%2Ffonts.googleapis.com%2Fcss%3Ffamily%3DFira%2BSans;" parent="U4YsfLJUnH2YUSP0RZhR-1" vertex="1">
                    <mxGeometry x="360" y="540" width="80" height="43" as="geometry"/>
                </mxCell>
                <mxCell id="CdoeSqfTrKBADaOMWKZn-5" value="[L'utente vuole visitare la sezione Itinerari]" style="edgeStyle=orthogonalEdgeStyle;html=1;align=left;verticalAlign=bottom;endArrow=open;endSize=8;strokeColor=#6F7978;fontFamily=Fira Sans;fontSource=https%3A%2F%2Ffonts.googleapis.com%2Fcss%3Ffamily%3DFira%2BSans;" parent="U4YsfLJUnH2YUSP0RZhR-1" source="CdoeSqfTrKBADaOMWKZn-4" edge="1">
                    <mxGeometry x="-0.8333" relative="1" as="geometry">
                        <mxPoint x="960" y="640" as="targetPoint"/>
                        <mxPoint as="offset"/>
                        <Array as="points">
                            <mxPoint x="960" y="562"/>
                            <mxPoint x="960" y="640"/>
                        </Array>
                    </mxGeometry>
                </mxCell>
                <mxCell id="CdoeSqfTrKBADaOMWKZn-6" value="[L'utente vuole visitare la sezione Post]" style="edgeStyle=orthogonalEdgeStyle;html=1;align=left;verticalAlign=top;endArrow=open;endSize=8;strokeColor=#6F7978;exitX=0;exitY=0.5;exitDx=0;exitDy=0;fontFamily=Fira Sans;fontSource=https%3A%2F%2Ffonts.googleapis.com%2Fcss%3Ffamily%3DFira%2BSans;" parent="U4YsfLJUnH2YUSP0RZhR-1" source="CdoeSqfTrKBADaOMWKZn-4" edge="1">
                    <mxGeometry x="0.2222" y="-20" relative="1" as="geometry">
                        <mxPoint x="-120" y="640" as="targetPoint"/>
                        <Array as="points">
                            <mxPoint x="-120" y="562"/>
                        </Array>
                        <mxPoint as="offset"/>
                        <mxPoint x="340" y="550" as="sourcePoint"/>
                    </mxGeometry>
                </mxCell>
                <mxCell id="acriv8wyeolU3Pd3bpHz-1" value="[L'utente vuole visitare &lt;br&gt;la sezione Compilation]" style="edgeStyle=orthogonalEdgeStyle;html=1;align=left;verticalAlign=bottom;endArrow=open;endSize=8;strokeColor=#6F7978;exitX=0.5;exitY=1;exitDx=0;exitDy=0;fontFamily=Fira Sans;fontSource=https%3A%2F%2Ffonts.googleapis.com%2Fcss%3Ffamily%3DFira%2BSans;" parent="U4YsfLJUnH2YUSP0RZhR-1" source="CdoeSqfTrKBADaOMWKZn-4" edge="1">
                    <mxGeometry x="0.2982" relative="1" as="geometry">
                        <mxPoint x="400" y="640" as="targetPoint"/>
                        <mxPoint x="410" y="710" as="sourcePoint"/>
                        <mxPoint as="offset"/>
                    </mxGeometry>
                </mxCell>
                <mxCell id="kyXZ5yFuR753nMeJ_DJC-2" value="Preme Tab &lt;br&gt;&quot;Post&quot;" style="rounded=1;whiteSpace=wrap;html=1;arcSize=40;fontColor=#000000;fillColor=#CCE8E7;strokeColor=#006A6A;fontFamily=Fira Sans;fontSource=https%3A%2F%2Ffonts.googleapis.com%2Fcss%3Ffamily%3DFira%2BSans;" parent="U4YsfLJUnH2YUSP0RZhR-1" vertex="1">
                    <mxGeometry x="-180" y="640" width="120" height="43" as="geometry"/>
                </mxCell>
                <mxCell id="kyXZ5yFuR753nMeJ_DJC-3" value="" style="edgeStyle=orthogonalEdgeStyle;html=1;verticalAlign=bottom;endArrow=open;endSize=8;strokeColor=#6F7978;fontFamily=Fira Sans;fontSource=https%3A%2F%2Ffonts.googleapis.com%2Fcss%3Ffamily%3DFira%2BSans;" parent="U4YsfLJUnH2YUSP0RZhR-1" source="kyXZ5yFuR753nMeJ_DJC-2" edge="1">
                    <mxGeometry relative="1" as="geometry">
                        <mxPoint x="-120" y="740" as="targetPoint"/>
                    </mxGeometry>
                </mxCell>
                <mxCell id="7JiRD2UL8UpU9dU06qMq-0" value="Preme Tab &quot;Compilation&quot;" style="rounded=1;whiteSpace=wrap;html=1;arcSize=40;fontColor=#000000;fillColor=#CCE8E7;strokeColor=#006A6A;fontFamily=Fira Sans;fontSource=https%3A%2F%2Ffonts.googleapis.com%2Fcss%3Ffamily%3DFira%2BSans;" parent="U4YsfLJUnH2YUSP0RZhR-1" vertex="1">
                    <mxGeometry x="340" y="640" width="120" height="43" as="geometry"/>
                </mxCell>
                <mxCell id="7JiRD2UL8UpU9dU06qMq-1" value="" style="edgeStyle=orthogonalEdgeStyle;html=1;verticalAlign=bottom;endArrow=open;endSize=8;strokeColor=#6F7978;fontFamily=Fira Sans;fontSource=https%3A%2F%2Ffonts.googleapis.com%2Fcss%3Ffamily%3DFira%2BSans;" parent="U4YsfLJUnH2YUSP0RZhR-1" source="7JiRD2UL8UpU9dU06qMq-0" edge="1">
                    <mxGeometry relative="1" as="geometry">
                        <mxPoint x="400" y="740" as="targetPoint"/>
                    </mxGeometry>
                </mxCell>
                <mxCell id="xow6wXpRbGzHPB-njG8v-0" value="Visualizza schermata &quot;ProfileUI&quot;" style="rounded=1;whiteSpace=wrap;html=1;arcSize=40;fontColor=#000000;fillColor=#CCE8E7;strokeColor=#006A6A;fontFamily=Fira Sans;fontSource=https%3A%2F%2Ffonts.googleapis.com%2Fcss%3Ffamily%3DFira%2BSans;" parent="U4YsfLJUnH2YUSP0RZhR-1" vertex="1">
                    <mxGeometry x="339" y="340" width="120" height="40" as="geometry"/>
                </mxCell>
                <mxCell id="xow6wXpRbGzHPB-njG8v-1" value="" style="edgeStyle=orthogonalEdgeStyle;html=1;verticalAlign=bottom;endArrow=open;endSize=8;strokeColor=#6F7978;fontFamily=Fira Sans;fontSource=https%3A%2F%2Ffonts.googleapis.com%2Fcss%3Ffamily%3DFira%2BSans;" parent="U4YsfLJUnH2YUSP0RZhR-1" source="xow6wXpRbGzHPB-njG8v-0" edge="1">
                    <mxGeometry relative="1" as="geometry">
                        <mxPoint x="399" y="440" as="targetPoint"/>
                    </mxGeometry>
                </mxCell>
                <mxCell id="xow6wXpRbGzHPB-njG8v-2" value="" style="rhombus;whiteSpace=wrap;html=1;fillColor=#B3C8E8;strokeColor=#4B607C;fontFamily=Fira Sans;fontSource=https%3A%2F%2Ffonts.googleapis.com%2Fcss%3Ffamily%3DFira%2BSans;" parent="U4YsfLJUnH2YUSP0RZhR-1" vertex="1">
                    <mxGeometry x="360" y="440" width="80" height="40" as="geometry"/>
                </mxCell>
                <mxCell id="xow6wXpRbGzHPB-njG8v-3" value="[L'utente vuole cambiare &lt;br&gt;foto profilo]" style="edgeStyle=orthogonalEdgeStyle;html=1;align=left;verticalAlign=bottom;endArrow=open;endSize=8;strokeColor=#6F7978;fontFamily=Fira Sans;fontSource=https%3A%2F%2Ffonts.googleapis.com%2Fcss%3Ffamily%3DFira%2BSans;" parent="U4YsfLJUnH2YUSP0RZhR-1" source="xow6wXpRbGzHPB-njG8v-2" edge="1">
                    <mxGeometry x="-1" relative="1" as="geometry">
                        <mxPoint x="580" y="460" as="targetPoint"/>
                        <mxPoint as="offset"/>
                    </mxGeometry>
                </mxCell>
                <mxCell id="xow6wXpRbGzHPB-njG8v-4" value="[L'utente non vuole &lt;br&gt;cambiare foto profilo]" style="edgeStyle=orthogonalEdgeStyle;html=1;align=left;verticalAlign=top;endArrow=open;endSize=8;strokeColor=#6F7978;fontFamily=Fira Sans;fontSource=https%3A%2F%2Ffonts.googleapis.com%2Fcss%3Ffamily%3DFira%2BSans;" parent="U4YsfLJUnH2YUSP0RZhR-1" source="xow6wXpRbGzHPB-njG8v-2" edge="1">
                    <mxGeometry x="-0.6667" y="-110" relative="1" as="geometry">
                        <mxPoint x="400" y="540" as="targetPoint"/>
                        <mxPoint as="offset"/>
                    </mxGeometry>
                </mxCell>
                <mxCell id="7JiRD2UL8UpU9dU06qMq-2" value="Preme Tab &lt;br&gt;&quot;Itinerari&quot;" style="rounded=1;whiteSpace=wrap;html=1;arcSize=40;fontColor=#000000;fillColor=#CCE8E7;strokeColor=#006A6A;fontFamily=Fira Sans;fontSource=https%3A%2F%2Ffonts.googleapis.com%2Fcss%3Ffamily%3DFira%2BSans;" parent="U4YsfLJUnH2YUSP0RZhR-1" vertex="1">
                    <mxGeometry x="900" y="640" width="120" height="43" as="geometry"/>
                </mxCell>
                <mxCell id="7JiRD2UL8UpU9dU06qMq-3" value="" style="edgeStyle=orthogonalEdgeStyle;html=1;verticalAlign=bottom;endArrow=open;endSize=8;strokeColor=#6F7978;fontFamily=Fira Sans;fontSource=https%3A%2F%2Ffonts.googleapis.com%2Fcss%3Ffamily%3DFira%2BSans;" parent="U4YsfLJUnH2YUSP0RZhR-1" source="7JiRD2UL8UpU9dU06qMq-2" edge="1">
                    <mxGeometry relative="1" as="geometry">
                        <mxPoint x="960" y="740" as="targetPoint"/>
                    </mxGeometry>
                </mxCell>
                <mxCell id="7JiRD2UL8UpU9dU06qMq-7" value="Preme icona foto" style="rounded=1;whiteSpace=wrap;html=1;arcSize=40;fontColor=#000000;fillColor=#CCE8E7;strokeColor=#006A6A;fontFamily=Fira Sans;fontSource=https%3A%2F%2Ffonts.googleapis.com%2Fcss%3Ffamily%3DFira%2BSans;" parent="U4YsfLJUnH2YUSP0RZhR-1" vertex="1">
                    <mxGeometry x="580" y="440" width="120" height="40" as="geometry"/>
                </mxCell>
                <mxCell id="7JiRD2UL8UpU9dU06qMq-8" value="" style="edgeStyle=orthogonalEdgeStyle;html=1;verticalAlign=bottom;endArrow=open;endSize=8;strokeColor=#6F7978;exitX=1;exitY=0.5;exitDx=0;exitDy=0;fontFamily=Fira Sans;fontSource=https%3A%2F%2Ffonts.googleapis.com%2Fcss%3Ffamily%3DFira%2BSans;" parent="U4YsfLJUnH2YUSP0RZhR-1" source="7JiRD2UL8UpU9dU06qMq-7" edge="1">
                    <mxGeometry relative="1" as="geometry">
                        <mxPoint x="790" y="460" as="targetPoint"/>
                    </mxGeometry>
                </mxCell>
                <mxCell id="7JiRD2UL8UpU9dU06qMq-9" value="Visualizza bottomsheet &quot;ChangePhotoBottomSheet&quot;" style="rounded=1;whiteSpace=wrap;html=1;arcSize=40;fontColor=#000000;fillColor=#CCE8E7;strokeColor=#006A6A;fontFamily=Fira Sans;fontSource=https%3A%2F%2Ffonts.googleapis.com%2Fcss%3Ffamily%3DFira%2BSans;" parent="U4YsfLJUnH2YUSP0RZhR-1" vertex="1">
                    <mxGeometry x="790" y="440" width="170" height="40" as="geometry"/>
                </mxCell>
                <mxCell id="7JiRD2UL8UpU9dU06qMq-10" value="" style="edgeStyle=orthogonalEdgeStyle;html=1;verticalAlign=bottom;endArrow=open;endSize=8;strokeColor=#6F7978;fontFamily=Fira Sans;fontSource=https%3A%2F%2Ffonts.googleapis.com%2Fcss%3Ffamily%3DFira%2BSans;" parent="U4YsfLJUnH2YUSP0RZhR-1" edge="1">
                    <mxGeometry relative="1" as="geometry">
                        <mxPoint x="1030" y="460" as="targetPoint"/>
                        <mxPoint x="960" y="460" as="sourcePoint"/>
                    </mxGeometry>
                </mxCell>
                <mxCell id="xow6wXpRbGzHPB-njG8v-5" value="" style="rhombus;whiteSpace=wrap;html=1;fillColor=#B3C8E8;strokeColor=#4B607C;fontFamily=Fira Sans;fontSource=https%3A%2F%2Ffonts.googleapis.com%2Fcss%3Ffamily%3DFira%2BSans;" parent="U4YsfLJUnH2YUSP0RZhR-1" vertex="1">
                    <mxGeometry x="-160" y="840" width="80" height="40" as="geometry"/>
                </mxCell>
                <mxCell id="xow6wXpRbGzHPB-njG8v-6" value="[L'utente vuole &lt;br&gt;eliminare un post]" style="edgeStyle=orthogonalEdgeStyle;html=1;align=left;verticalAlign=bottom;endArrow=open;endSize=8;strokeColor=#6F7978;fontFamily=Fira Sans;fontSource=https%3A%2F%2Ffonts.googleapis.com%2Fcss%3Ffamily%3DFira%2BSans;" parent="U4YsfLJUnH2YUSP0RZhR-1" source="xow6wXpRbGzHPB-njG8v-5" edge="1">
                    <mxGeometry x="0.375" relative="1" as="geometry">
                        <mxPoint y="940" as="targetPoint"/>
                        <mxPoint as="offset"/>
                    </mxGeometry>
                </mxCell>
                <mxCell id="xow6wXpRbGzHPB-njG8v-7" value="[L'utente vuole &lt;br&gt;aggiungere un post]" style="edgeStyle=orthogonalEdgeStyle;html=1;align=right;verticalAlign=top;endArrow=open;endSize=8;strokeColor=#6F7978;fontFamily=Fira Sans;fontSource=https%3A%2F%2Ffonts.googleapis.com%2Fcss%3Ffamily%3DFira%2BSans;" parent="U4YsfLJUnH2YUSP0RZhR-1" source="xow6wXpRbGzHPB-njG8v-5" edge="1">
                    <mxGeometry relative="1" as="geometry">
                        <mxPoint x="-240" y="940" as="targetPoint"/>
                        <Array as="points">
                            <mxPoint x="-240" y="860"/>
                        </Array>
                        <mxPoint as="offset"/>
                    </mxGeometry>
                </mxCell>
                <mxCell id="7JiRD2UL8UpU9dU06qMq-11" value="" style="rhombus;whiteSpace=wrap;html=1;fillColor=#B3C8E8;strokeColor=#4B607C;fontFamily=Fira Sans;fontSource=https%3A%2F%2Ffonts.googleapis.com%2Fcss%3Ffamily%3DFira%2BSans;" parent="U4YsfLJUnH2YUSP0RZhR-1" vertex="1">
                    <mxGeometry x="1030" y="440" width="80" height="40" as="geometry"/>
                </mxCell>
                <mxCell id="7JiRD2UL8UpU9dU06qMq-12" value="[L'utente vuole modificare la foto]" style="edgeStyle=orthogonalEdgeStyle;html=1;align=left;verticalAlign=bottom;endArrow=open;endSize=8;strokeColor=#6F7978;fontFamily=Fira Sans;fontSource=https%3A%2F%2Ffonts.googleapis.com%2Fcss%3Ffamily%3DFira%2BSans;" parent="U4YsfLJUnH2YUSP0RZhR-1" source="7JiRD2UL8UpU9dU06qMq-11" edge="1">
                    <mxGeometry x="-1" relative="1" as="geometry">
                        <mxPoint x="1290" y="460" as="targetPoint"/>
                    </mxGeometry>
                </mxCell>
                <mxCell id="7JiRD2UL8UpU9dU06qMq-13" value="[L'utente vuole &lt;br&gt;eliminare la foto]" style="edgeStyle=orthogonalEdgeStyle;html=1;align=left;verticalAlign=top;endArrow=open;endSize=8;strokeColor=#6F7978;fontFamily=Fira Sans;fontSource=https%3A%2F%2Ffonts.googleapis.com%2Fcss%3Ffamily%3DFira%2BSans;" parent="U4YsfLJUnH2YUSP0RZhR-1" source="7JiRD2UL8UpU9dU06qMq-11" edge="1">
                    <mxGeometry x="-0.6667" relative="1" as="geometry">
                        <mxPoint x="1070" y="540" as="targetPoint"/>
                        <mxPoint as="offset"/>
                    </mxGeometry>
                </mxCell>
                <mxCell id="xow6wXpRbGzHPB-njG8v-8" value="Preme pulsante &quot;Nuovo post&quot;" style="rounded=1;whiteSpace=wrap;html=1;arcSize=40;fontColor=#000000;fillColor=#CCE8E7;strokeColor=#006A6A;fontFamily=Fira Sans;fontSource=https%3A%2F%2Ffonts.googleapis.com%2Fcss%3Ffamily%3DFira%2BSans;" parent="U4YsfLJUnH2YUSP0RZhR-1" vertex="1">
                    <mxGeometry x="-300" y="940" width="120" height="40" as="geometry"/>
                </mxCell>
                <mxCell id="xow6wXpRbGzHPB-njG8v-9" value="" style="edgeStyle=orthogonalEdgeStyle;html=1;verticalAlign=bottom;endArrow=open;endSize=8;strokeColor=#6F7978;fontFamily=Fira Sans;fontSource=https%3A%2F%2Ffonts.googleapis.com%2Fcss%3Ffamily%3DFira%2BSans;" parent="U4YsfLJUnH2YUSP0RZhR-1" source="xow6wXpRbGzHPB-njG8v-8" edge="1">
                    <mxGeometry relative="1" as="geometry">
                        <mxPoint x="-240" y="1040" as="targetPoint"/>
                    </mxGeometry>
                </mxCell>
                <mxCell id="xow6wXpRbGzHPB-njG8v-10" value="Preme sul post da eliminare" style="rounded=1;whiteSpace=wrap;html=1;arcSize=40;fontColor=#000000;fillColor=#CCE8E7;strokeColor=#006A6A;fontFamily=Fira Sans;fontSource=https%3A%2F%2Ffonts.googleapis.com%2Fcss%3Ffamily%3DFira%2BSans;" parent="U4YsfLJUnH2YUSP0RZhR-1" vertex="1">
                    <mxGeometry x="-60" y="940" width="120" height="40" as="geometry"/>
                </mxCell>
                <mxCell id="xow6wXpRbGzHPB-njG8v-11" value="" style="edgeStyle=orthogonalEdgeStyle;html=1;verticalAlign=bottom;endArrow=open;endSize=8;strokeColor=#6F7978;fontFamily=Fira Sans;fontSource=https%3A%2F%2Ffonts.googleapis.com%2Fcss%3Ffamily%3DFira%2BSans;" parent="U4YsfLJUnH2YUSP0RZhR-1" source="xow6wXpRbGzHPB-njG8v-10" edge="1">
                    <mxGeometry relative="1" as="geometry">
                        <mxPoint y="1040" as="targetPoint"/>
                    </mxGeometry>
                </mxCell>
                <mxCell id="7JiRD2UL8UpU9dU06qMq-14" value="Seleziona &lt;br&gt;&quot;Rimuovi foto profilo&quot;&amp;nbsp;" style="rounded=1;whiteSpace=wrap;html=1;arcSize=40;fontColor=#000000;fillColor=#CCE8E7;strokeColor=#006A6A;fontFamily=Fira Sans;fontSource=https%3A%2F%2Ffonts.googleapis.com%2Fcss%3Ffamily%3DFira%2BSans;" parent="U4YsfLJUnH2YUSP0RZhR-1" vertex="1">
                    <mxGeometry x="1010" y="540" width="120" height="40" as="geometry"/>
                </mxCell>
                <mxCell id="7JiRD2UL8UpU9dU06qMq-15" value="" style="edgeStyle=orthogonalEdgeStyle;html=1;verticalAlign=bottom;endArrow=open;endSize=8;strokeColor=#6F7978;entryX=0.5;entryY=0;entryDx=0;entryDy=0;fontFamily=Fira Sans;fontSource=https%3A%2F%2Ffonts.googleapis.com%2Fcss%3Ffamily%3DFira%2BSans;" parent="U4YsfLJUnH2YUSP0RZhR-1" source="7JiRD2UL8UpU9dU06qMq-14" edge="1" target="7JiRD2UL8UpU9dU06qMq-18">
                    <mxGeometry relative="1" as="geometry">
                        <mxPoint x="1070" y="640" as="targetPoint"/>
                        <Array as="points">
                            <mxPoint x="1070" y="610"/>
                            <mxPoint x="1215" y="610"/>
                        </Array>
                    </mxGeometry>
                </mxCell>
                <mxCell id="xow6wXpRbGzHPB-njG8v-12" value="Visualizza post da eliminare" style="rounded=1;whiteSpace=wrap;html=1;arcSize=40;fontColor=#000000;fillColor=#CCE8E7;strokeColor=#006A6A;fontFamily=Fira Sans;fontSource=https%3A%2F%2Ffonts.googleapis.com%2Fcss%3Ffamily%3DFira%2BSans;" parent="U4YsfLJUnH2YUSP0RZhR-1" vertex="1">
                    <mxGeometry x="-60" y="1040" width="120" height="40" as="geometry"/>
                </mxCell>
                <mxCell id="xow6wXpRbGzHPB-njG8v-13" value="" style="edgeStyle=orthogonalEdgeStyle;html=1;verticalAlign=bottom;endArrow=open;endSize=8;strokeColor=#6F7978;fontFamily=Fira Sans;fontSource=https%3A%2F%2Ffonts.googleapis.com%2Fcss%3Ffamily%3DFira%2BSans;" parent="U4YsfLJUnH2YUSP0RZhR-1" source="xow6wXpRbGzHPB-njG8v-12" edge="1">
                    <mxGeometry relative="1" as="geometry">
                        <mxPoint y="1140" as="targetPoint"/>
                    </mxGeometry>
                </mxCell>
                <mxCell id="7JiRD2UL8UpU9dU06qMq-16" value="Seleziona &lt;br&gt;&quot;Modifica foto profilo&quot;&amp;nbsp;" style="rounded=1;whiteSpace=wrap;html=1;arcSize=40;fontColor=#000000;fillColor=#CCE8E7;strokeColor=#006A6A;fontFamily=Fira Sans;fontSource=https%3A%2F%2Ffonts.googleapis.com%2Fcss%3Ffamily%3DFira%2BSans;" parent="U4YsfLJUnH2YUSP0RZhR-1" vertex="1">
                    <mxGeometry x="1290" y="440" width="120" height="40" as="geometry"/>
                </mxCell>
                <mxCell id="7JiRD2UL8UpU9dU06qMq-17" value="" style="edgeStyle=orthogonalEdgeStyle;html=1;verticalAlign=bottom;endArrow=open;endSize=8;strokeColor=#6F7978;exitX=0.5;exitY=1;exitDx=0;exitDy=0;fontFamily=Fira Sans;fontSource=https%3A%2F%2Ffonts.googleapis.com%2Fcss%3Ffamily%3DFira%2BSans;" parent="U4YsfLJUnH2YUSP0RZhR-1" source="7JiRD2UL8UpU9dU06qMq-16" edge="1">
                    <mxGeometry relative="1" as="geometry">
                        <mxPoint x="1350" y="540" as="targetPoint"/>
                    </mxGeometry>
                </mxCell>
                <mxCell id="7JiRD2UL8UpU9dU06qMq-18" value="" style="ellipse;html=1;shape=endState;fillColor=#000000;strokeColor=#B3C8E8;fontFamily=Fira Sans;fontSource=https%3A%2F%2Ffonts.googleapis.com%2Fcss%3Ffamily%3DFira%2BSans;" parent="U4YsfLJUnH2YUSP0RZhR-1" vertex="1">
                    <mxGeometry x="1200" y="640" width="30" height="30" as="geometry"/>
                </mxCell>
                <mxCell id="7JiRD2UL8UpU9dU06qMq-19" value="Seleziona la foto profilo" style="rounded=1;whiteSpace=wrap;html=1;arcSize=40;fontColor=#000000;fillColor=#CCE8E7;strokeColor=#006A6A;fontFamily=Fira Sans;fontSource=https%3A%2F%2Ffonts.googleapis.com%2Fcss%3Ffamily%3DFira%2BSans;" parent="U4YsfLJUnH2YUSP0RZhR-1" vertex="1">
                    <mxGeometry x="1290" y="540" width="120" height="40" as="geometry"/>
                </mxCell>
                <mxCell id="7JiRD2UL8UpU9dU06qMq-20" value="" style="edgeStyle=orthogonalEdgeStyle;html=1;verticalAlign=bottom;endArrow=open;endSize=8;strokeColor=#6F7978;entryX=0.5;entryY=0;entryDx=0;entryDy=0;fontFamily=Fira Sans;fontSource=https%3A%2F%2Ffonts.googleapis.com%2Fcss%3Ffamily%3DFira%2BSans;" parent="U4YsfLJUnH2YUSP0RZhR-1" source="7JiRD2UL8UpU9dU06qMq-19" edge="1" target="7JiRD2UL8UpU9dU06qMq-18">
                    <mxGeometry relative="1" as="geometry">
                        <mxPoint x="1350" y="640" as="targetPoint"/>
                        <Array as="points">
                            <mxPoint x="1350" y="610"/>
                            <mxPoint x="1215" y="610"/>
                        </Array>
                    </mxGeometry>
                </mxCell>
                <mxCell id="xow6wXpRbGzHPB-njG8v-14" value="Seleziona foto" style="rounded=1;whiteSpace=wrap;html=1;arcSize=40;fontColor=#000000;fillColor=#CCE8E7;strokeColor=#006A6A;fontFamily=Fira Sans;fontSource=https%3A%2F%2Ffonts.googleapis.com%2Fcss%3Ffamily%3DFira%2BSans;" parent="U4YsfLJUnH2YUSP0RZhR-1" vertex="1">
                    <mxGeometry x="-300" y="1040" width="120" height="40" as="geometry"/>
                </mxCell>
                <mxCell id="xow6wXpRbGzHPB-njG8v-15" value="" style="edgeStyle=orthogonalEdgeStyle;html=1;verticalAlign=bottom;endArrow=open;endSize=8;strokeColor=#6F7978;fontFamily=Fira Sans;fontSource=https%3A%2F%2Ffonts.googleapis.com%2Fcss%3Ffamily%3DFira%2BSans;" parent="U4YsfLJUnH2YUSP0RZhR-1" source="xow6wXpRbGzHPB-njG8v-14" edge="1">
                    <mxGeometry relative="1" as="geometry">
                        <mxPoint x="-240" y="1140" as="targetPoint"/>
                    </mxGeometry>
                </mxCell>
                <mxCell id="N8potAPMs2icdBs_hObe-0" value="" style="rhombus;whiteSpace=wrap;html=1;fillColor=#B3C8E8;strokeColor=#4B607C;fontFamily=Fira Sans;fontSource=https%3A%2F%2Ffonts.googleapis.com%2Fcss%3Ffamily%3DFira%2BSans;" parent="U4YsfLJUnH2YUSP0RZhR-1" vertex="1">
                    <mxGeometry x="-280" y="1140" width="80" height="40" as="geometry"/>
                </mxCell>
                <mxCell id="N8potAPMs2icdBs_hObe-1" value="[Selezionata almeno una foto]" style="edgeStyle=orthogonalEdgeStyle;html=1;align=left;verticalAlign=top;endArrow=open;endSize=8;strokeColor=#6F7978;fontFamily=Fira Sans;fontSource=https%3A%2F%2Ffonts.googleapis.com%2Fcss%3Ffamily%3DFira%2BSans;" parent="U4YsfLJUnH2YUSP0RZhR-1" source="N8potAPMs2icdBs_hObe-0" edge="1">
                    <mxGeometry x="-0.6667" relative="1" as="geometry">
                        <mxPoint x="-240" y="1250" as="targetPoint"/>
                        <Array as="points">
                            <mxPoint x="-240" y="1210"/>
                            <mxPoint x="-240" y="1210"/>
                        </Array>
                        <mxPoint as="offset"/>
                    </mxGeometry>
                </mxCell>
                <mxCell id="N8potAPMs2icdBs_hObe-2" value="[Selezionate 0 &lt;br&gt;o più di 5 foto]" style="edgeStyle=orthogonalEdgeStyle;html=1;align=left;verticalAlign=bottom;endArrow=open;endSize=8;strokeColor=#6F7978;fontFamily=Fira Sans;fontSource=https%3A%2F%2Ffonts.googleapis.com%2Fcss%3Ffamily%3DFira%2BSans;" parent="U4YsfLJUnH2YUSP0RZhR-1" source="N8potAPMs2icdBs_hObe-0" edge="1">
                    <mxGeometry x="0.9167" relative="1" as="geometry">
                        <mxPoint x="-180" y="1060" as="targetPoint"/>
                        <Array as="points">
                            <mxPoint x="-120" y="1160"/>
                            <mxPoint x="-120" y="1060"/>
                        </Array>
                        <mxPoint as="offset"/>
                    </mxGeometry>
                </mxCell>
                <mxCell id="ZXlPBLdOqaPTVpi3353M-0" value="Preme pulsante &quot;Successivo&quot;" style="rounded=1;whiteSpace=wrap;html=1;arcSize=40;fontColor=#000000;fillColor=#CCE8E7;strokeColor=#006A6A;fontFamily=Fira Sans;fontSource=https%3A%2F%2Ffonts.googleapis.com%2Fcss%3Ffamily%3DFira%2BSans;" parent="U4YsfLJUnH2YUSP0RZhR-1" vertex="1">
                    <mxGeometry x="-300" y="1250" width="120" height="40" as="geometry"/>
                </mxCell>
                <mxCell id="ZXlPBLdOqaPTVpi3353M-1" value="" style="edgeStyle=orthogonalEdgeStyle;html=1;verticalAlign=bottom;endArrow=open;endSize=8;strokeColor=#6F7978;fontFamily=Fira Sans;fontSource=https%3A%2F%2Ffonts.googleapis.com%2Fcss%3Ffamily%3DFira%2BSans;" parent="U4YsfLJUnH2YUSP0RZhR-1" edge="1">
                    <mxGeometry relative="1" as="geometry">
                        <mxPoint x="-240.33999999999992" y="1350" as="targetPoint"/>
                        <mxPoint x="-240.33999999999992" y="1290" as="sourcePoint"/>
                    </mxGeometry>
                </mxCell>
                <mxCell id="ZXlPBLdOqaPTVpi3353M-3" value="Aggiunge luogo o descrizione" style="rounded=1;whiteSpace=wrap;html=1;arcSize=40;fontColor=#000000;fillColor=#CCE8E7;strokeColor=#006A6A;fontFamily=Fira Sans;fontSource=https%3A%2F%2Ffonts.googleapis.com%2Fcss%3Ffamily%3DFira%2BSans;" parent="U4YsfLJUnH2YUSP0RZhR-1" vertex="1">
                    <mxGeometry x="-300" y="1350" width="120" height="40" as="geometry"/>
                </mxCell>
                <mxCell id="ZXlPBLdOqaPTVpi3353M-4" value="" style="edgeStyle=orthogonalEdgeStyle;html=1;verticalAlign=bottom;endArrow=open;endSize=8;strokeColor=#6F7978;fontFamily=Fira Sans;fontSource=https%3A%2F%2Ffonts.googleapis.com%2Fcss%3Ffamily%3DFira%2BSans;" parent="U4YsfLJUnH2YUSP0RZhR-1" source="ZXlPBLdOqaPTVpi3353M-3" edge="1">
                    <mxGeometry relative="1" as="geometry">
                        <mxPoint x="-240" y="1450" as="targetPoint"/>
                    </mxGeometry>
                </mxCell>
                <mxCell id="ZXlPBLdOqaPTVpi3353M-8" value="Preme pulsante &quot;Pubblica&quot;" style="rounded=1;whiteSpace=wrap;html=1;arcSize=40;fontColor=#000000;fillColor=#CCE8E7;strokeColor=#006A6A;fontFamily=Fira Sans;fontSource=https%3A%2F%2Ffonts.googleapis.com%2Fcss%3Ffamily%3DFira%2BSans;" parent="U4YsfLJUnH2YUSP0RZhR-1" vertex="1">
                    <mxGeometry x="-300" y="1450" width="120" height="40" as="geometry"/>
                </mxCell>
                <mxCell id="ZXlPBLdOqaPTVpi3353M-10" value="Visualizza Tab &quot;PostTab&quot;" style="rounded=1;whiteSpace=wrap;html=1;arcSize=40;fontColor=#000000;fillColor=#CCE8E7;strokeColor=#006A6A;fontFamily=Fira Sans;fontSource=https%3A%2F%2Ffonts.googleapis.com%2Fcss%3Ffamily%3DFira%2BSans;" parent="U4YsfLJUnH2YUSP0RZhR-1" vertex="1">
                    <mxGeometry x="-180" y="740" width="120" height="40" as="geometry"/>
                </mxCell>
                <mxCell id="ZXlPBLdOqaPTVpi3353M-11" value="" style="edgeStyle=orthogonalEdgeStyle;html=1;verticalAlign=bottom;endArrow=open;endSize=8;strokeColor=#6F7978;fontFamily=Fira Sans;fontSource=https%3A%2F%2Ffonts.googleapis.com%2Fcss%3Ffamily%3DFira%2BSans;" parent="U4YsfLJUnH2YUSP0RZhR-1" source="ZXlPBLdOqaPTVpi3353M-10" edge="1">
                    <mxGeometry relative="1" as="geometry">
                        <mxPoint x="-120" y="840" as="targetPoint"/>
                    </mxGeometry>
                </mxCell>
                <mxCell id="7JiRD2UL8UpU9dU06qMq-23" value="Visualizza Tab&amp;nbsp;&lt;br&gt;&quot;CompilationTab&quot;" style="rounded=1;whiteSpace=wrap;html=1;arcSize=40;fontColor=#000000;fillColor=#CCE8E7;strokeColor=#006A6A;fontFamily=Fira Sans;fontSource=https%3A%2F%2Ffonts.googleapis.com%2Fcss%3Ffamily%3DFira%2BSans;" parent="U4YsfLJUnH2YUSP0RZhR-1" vertex="1">
                    <mxGeometry x="340" y="740" width="120" height="40" as="geometry"/>
                </mxCell>
                <mxCell id="7JiRD2UL8UpU9dU06qMq-24" value="" style="edgeStyle=orthogonalEdgeStyle;html=1;verticalAlign=bottom;endArrow=open;endSize=8;strokeColor=#6F7978;fontFamily=Fira Sans;fontSource=https%3A%2F%2Ffonts.googleapis.com%2Fcss%3Ffamily%3DFira%2BSans;" parent="U4YsfLJUnH2YUSP0RZhR-1" source="7JiRD2UL8UpU9dU06qMq-23" edge="1">
                    <mxGeometry relative="1" as="geometry">
                        <mxPoint x="400" y="840" as="targetPoint"/>
                    </mxGeometry>
                </mxCell>
                <mxCell id="7JiRD2UL8UpU9dU06qMq-25" value="" style="rhombus;whiteSpace=wrap;html=1;fillColor=#B3C8E8;strokeColor=#4B607C;fontFamily=Fira Sans;fontSource=https%3A%2F%2Ffonts.googleapis.com%2Fcss%3Ffamily%3DFira%2BSans;" parent="U4YsfLJUnH2YUSP0RZhR-1" vertex="1">
                    <mxGeometry x="360" y="840" width="80" height="40" as="geometry"/>
                </mxCell>
                <mxCell id="7JiRD2UL8UpU9dU06qMq-26" value="[L'utente vuole visualizzare &lt;br&gt;una compilation]" style="edgeStyle=orthogonalEdgeStyle;html=1;align=left;verticalAlign=bottom;endArrow=open;endSize=8;strokeColor=#6F7978;fontFamily=Fira Sans;fontSource=https%3A%2F%2Ffonts.googleapis.com%2Fcss%3Ffamily%3DFira%2BSans;" parent="U4YsfLJUnH2YUSP0RZhR-1" source="7JiRD2UL8UpU9dU06qMq-25" edge="1">
                    <mxGeometry x="0.5" relative="1" as="geometry">
                        <mxPoint x="560" y="940" as="targetPoint"/>
                        <mxPoint as="offset"/>
                    </mxGeometry>
                </mxCell>
                <mxCell id="7JiRD2UL8UpU9dU06qMq-27" value="[L'utente vuole &lt;br&gt;aggiungere&lt;br&gt;una compilation]" style="edgeStyle=orthogonalEdgeStyle;html=1;align=left;verticalAlign=top;endArrow=open;endSize=8;strokeColor=#6F7978;fontFamily=Fira Sans;fontSource=https%3A%2F%2Ffonts.googleapis.com%2Fcss%3Ffamily%3DFira%2BSans;" parent="U4YsfLJUnH2YUSP0RZhR-1" source="7JiRD2UL8UpU9dU06qMq-25" edge="1">
                    <mxGeometry x="-1" relative="1" as="geometry">
                        <mxPoint x="400" y="940" as="targetPoint"/>
                    </mxGeometry>
                </mxCell>
                <mxCell id="7JiRD2UL8UpU9dU06qMq-29" value="[L'utente vuole eliminare &lt;br&gt;una compilation]" style="edgeStyle=orthogonalEdgeStyle;html=1;align=right;verticalAlign=top;endArrow=open;endSize=8;strokeColor=#6F7978;exitX=0;exitY=0.5;exitDx=0;exitDy=0;fontFamily=Fira Sans;fontSource=https%3A%2F%2Ffonts.googleapis.com%2Fcss%3Ffamily%3DFira%2BSans;" parent="U4YsfLJUnH2YUSP0RZhR-1" source="7JiRD2UL8UpU9dU06qMq-25" edge="1">
                    <mxGeometry x="0.2" relative="1" as="geometry">
                        <mxPoint x="240" y="940" as="targetPoint"/>
                        <mxPoint x="410" y="890" as="sourcePoint"/>
                        <mxPoint as="offset"/>
                    </mxGeometry>
                </mxCell>
                <mxCell id="ZXlPBLdOqaPTVpi3353M-15" value="" style="ellipse;html=1;shape=endState;fillColor=#000000;strokeColor=#B3C8E8;fontFamily=Fira Sans;fontSource=https%3A%2F%2Ffonts.googleapis.com%2Fcss%3Ffamily%3DFira%2BSans;" parent="U4YsfLJUnH2YUSP0RZhR-1" vertex="1">
                    <mxGeometry x="-255" y="1550" width="30" height="30" as="geometry"/>
                </mxCell>
                <mxCell id="ZXlPBLdOqaPTVpi3353M-16" value="" style="edgeStyle=orthogonalEdgeStyle;html=1;verticalAlign=bottom;endArrow=open;endSize=8;strokeColor=#6F7978;fontFamily=Fira Sans;fontSource=https%3A%2F%2Ffonts.googleapis.com%2Fcss%3Ffamily%3DFira%2BSans;" parent="U4YsfLJUnH2YUSP0RZhR-1" edge="1">
                    <mxGeometry relative="1" as="geometry">
                        <mxPoint x="-240.70999999999998" y="1550" as="targetPoint"/>
                        <mxPoint x="-240.70999999999998" y="1490" as="sourcePoint"/>
                    </mxGeometry>
                </mxCell>
                <mxCell id="ZXlPBLdOqaPTVpi3353M-17" value="Preme l'icona del cestino" style="rounded=1;whiteSpace=wrap;html=1;arcSize=40;fontColor=#000000;fillColor=#CCE8E7;strokeColor=#006A6A;fontFamily=Fira Sans;fontSource=https%3A%2F%2Ffonts.googleapis.com%2Fcss%3Ffamily%3DFira%2BSans;" parent="U4YsfLJUnH2YUSP0RZhR-1" vertex="1">
                    <mxGeometry x="-60" y="1140" width="120" height="40" as="geometry"/>
                </mxCell>
                <mxCell id="ZXlPBLdOqaPTVpi3353M-18" value="" style="edgeStyle=orthogonalEdgeStyle;html=1;verticalAlign=bottom;endArrow=open;endSize=8;strokeColor=#6F7978;entryX=0;entryY=0.5;entryDx=0;entryDy=0;exitX=0.5;exitY=1;exitDx=0;exitDy=0;fontFamily=Fira Sans;fontSource=https%3A%2F%2Ffonts.googleapis.com%2Fcss%3Ffamily%3DFira%2BSans;" parent="U4YsfLJUnH2YUSP0RZhR-1" source="ZXlPBLdOqaPTVpi3353M-17" target="ZXlPBLdOqaPTVpi3353M-19" edge="1">
                    <mxGeometry relative="1" as="geometry">
                        <mxPoint x="40" y="1780" as="targetPoint"/>
                        <Array as="points">
                            <mxPoint y="1520"/>
                        </Array>
                        <mxPoint y="1280" as="sourcePoint"/>
                    </mxGeometry>
                </mxCell>
                <mxCell id="ZXlPBLdOqaPTVpi3353M-19" value="Visualizza dialog di conferma &quot;DeleteDialog&quot;" style="rounded=1;whiteSpace=wrap;html=1;arcSize=40;fontColor=#000000;fillColor=#CCE8E7;strokeColor=#006A6A;fontFamily=Fira Sans;fontSource=https%3A%2F%2Ffonts.googleapis.com%2Fcss%3Ffamily%3DFira%2BSans;" parent="U4YsfLJUnH2YUSP0RZhR-1" vertex="1">
                    <mxGeometry x="180" y="1500" width="120" height="40" as="geometry"/>
                </mxCell>
                <mxCell id="ZXlPBLdOqaPTVpi3353M-20" value="" style="edgeStyle=orthogonalEdgeStyle;html=1;verticalAlign=bottom;endArrow=open;endSize=8;strokeColor=#6F7978;fontFamily=Fira Sans;fontSource=https%3A%2F%2Ffonts.googleapis.com%2Fcss%3Ffamily%3DFira%2BSans;" parent="U4YsfLJUnH2YUSP0RZhR-1" source="ZXlPBLdOqaPTVpi3353M-19" edge="1">
                    <mxGeometry relative="1" as="geometry">
                        <mxPoint x="240" y="1600" as="targetPoint"/>
                    </mxGeometry>
                </mxCell>
                <mxCell id="Lycn64YBPTiFs4BrJQRI-0" value="Preme pulsante &quot;Elimina&quot;" style="rounded=1;whiteSpace=wrap;html=1;arcSize=40;fontColor=#000000;fillColor=#CCE8E7;strokeColor=#006A6A;fontFamily=Fira Sans;fontSource=https%3A%2F%2Ffonts.googleapis.com%2Fcss%3Ffamily%3DFira%2BSans;" parent="U4YsfLJUnH2YUSP0RZhR-1" vertex="1">
                    <mxGeometry x="180" y="1600" width="120" height="40" as="geometry"/>
                </mxCell>
                <mxCell id="Lycn64YBPTiFs4BrJQRI-1" value="" style="edgeStyle=orthogonalEdgeStyle;html=1;verticalAlign=bottom;endArrow=open;endSize=8;strokeColor=#6F7978;fontFamily=Fira Sans;fontSource=https%3A%2F%2Ffonts.googleapis.com%2Fcss%3Ffamily%3DFira%2BSans;" parent="U4YsfLJUnH2YUSP0RZhR-1" source="Lycn64YBPTiFs4BrJQRI-0" edge="1">
                    <mxGeometry relative="1" as="geometry">
                        <mxPoint x="240" y="1700" as="targetPoint"/>
                    </mxGeometry>
                </mxCell>
                <mxCell id="Lycn64YBPTiFs4BrJQRI-2" value="Preme pulsante &quot;OK&quot;" style="rounded=1;whiteSpace=wrap;html=1;arcSize=40;fontColor=#000000;fillColor=#CCE8E7;strokeColor=#006A6A;fontFamily=Fira Sans;fontSource=https%3A%2F%2Ffonts.googleapis.com%2Fcss%3Ffamily%3DFira%2BSans;" parent="U4YsfLJUnH2YUSP0RZhR-1" vertex="1">
                    <mxGeometry x="180" y="1800" width="120" height="40" as="geometry"/>
                </mxCell>
                <mxCell id="Lycn64YBPTiFs4BrJQRI-3" value="" style="edgeStyle=orthogonalEdgeStyle;html=1;verticalAlign=bottom;endArrow=open;endSize=8;strokeColor=#6F7978;fontFamily=Fira Sans;fontSource=https%3A%2F%2Ffonts.googleapis.com%2Fcss%3Ffamily%3DFira%2BSans;" parent="U4YsfLJUnH2YUSP0RZhR-1" source="Lycn64YBPTiFs4BrJQRI-2" edge="1">
                    <mxGeometry relative="1" as="geometry">
                        <mxPoint x="240" y="1900" as="targetPoint"/>
                    </mxGeometry>
                </mxCell>
                <mxCell id="Lycn64YBPTiFs4BrJQRI-4" value="" style="ellipse;html=1;shape=endState;fillColor=#000000;strokeColor=#B3C8E8;fontFamily=Fira Sans;fontSource=https%3A%2F%2Ffonts.googleapis.com%2Fcss%3Ffamily%3DFira%2BSans;" parent="U4YsfLJUnH2YUSP0RZhR-1" vertex="1">
                    <mxGeometry x="225" y="1900" width="30" height="30" as="geometry"/>
                </mxCell>
                <mxCell id="7JiRD2UL8UpU9dU06qMq-32" value="Tiene premuto sulla card della compilation" style="rounded=1;whiteSpace=wrap;html=1;arcSize=40;fontColor=#000000;fillColor=#CCE8E7;strokeColor=#006A6A;fontFamily=Fira Sans;fontSource=https%3A%2F%2Ffonts.googleapis.com%2Fcss%3Ffamily%3DFira%2BSans;" parent="U4YsfLJUnH2YUSP0RZhR-1" vertex="1">
                    <mxGeometry x="180" y="940" width="120" height="40" as="geometry"/>
                </mxCell>
                <mxCell id="7JiRD2UL8UpU9dU06qMq-33" value="" style="edgeStyle=orthogonalEdgeStyle;html=1;verticalAlign=bottom;endArrow=open;endSize=8;strokeColor=#6F7978;fontFamily=Fira Sans;fontSource=https%3A%2F%2Ffonts.googleapis.com%2Fcss%3Ffamily%3DFira%2BSans;" parent="U4YsfLJUnH2YUSP0RZhR-1" source="7JiRD2UL8UpU9dU06qMq-32" edge="1">
                    <mxGeometry relative="1" as="geometry">
                        <mxPoint x="240" y="1040" as="targetPoint"/>
                    </mxGeometry>
                </mxCell>
                <mxCell id="7JiRD2UL8UpU9dU06qMq-34" value="Visualizza bottomsheet &quot;DeleteCompilationBottomSheet&quot;" style="rounded=1;whiteSpace=wrap;html=1;arcSize=40;fontColor=#000000;fillColor=#CCE8E7;strokeColor=#006A6A;fontFamily=Fira Sans;fontSource=https%3A%2F%2Ffonts.googleapis.com%2Fcss%3Ffamily%3DFira%2BSans;" parent="U4YsfLJUnH2YUSP0RZhR-1" vertex="1">
                    <mxGeometry x="152.5" y="1040" width="175" height="40" as="geometry"/>
                </mxCell>
                <mxCell id="7JiRD2UL8UpU9dU06qMq-35" value="" style="edgeStyle=orthogonalEdgeStyle;html=1;verticalAlign=bottom;endArrow=open;endSize=8;strokeColor=#6F7978;fontFamily=Fira Sans;fontSource=https%3A%2F%2Ffonts.googleapis.com%2Fcss%3Ffamily%3DFira%2BSans;" parent="U4YsfLJUnH2YUSP0RZhR-1" source="7JiRD2UL8UpU9dU06qMq-34" edge="1">
                    <mxGeometry relative="1" as="geometry">
                        <mxPoint x="240" y="1140" as="targetPoint"/>
                    </mxGeometry>
                </mxCell>
                <mxCell id="7JiRD2UL8UpU9dU06qMq-36" value="Seleziona &lt;br&gt;&quot;Rimuovi compilation&quot;" style="rounded=1;whiteSpace=wrap;html=1;arcSize=40;fontColor=#000000;fillColor=#CCE8E7;strokeColor=#006A6A;fontFamily=Fira Sans;fontSource=https%3A%2F%2Ffonts.googleapis.com%2Fcss%3Ffamily%3DFira%2BSans;" parent="U4YsfLJUnH2YUSP0RZhR-1" vertex="1">
                    <mxGeometry x="180" y="1140" width="120" height="40" as="geometry"/>
                </mxCell>
                <mxCell id="7JiRD2UL8UpU9dU06qMq-37" value="" style="edgeStyle=orthogonalEdgeStyle;html=1;verticalAlign=bottom;endArrow=open;endSize=8;strokeColor=#6F7978;entryX=0.5;entryY=0;entryDx=0;entryDy=0;exitX=0.5;exitY=1;exitDx=0;exitDy=0;fontFamily=Fira Sans;fontSource=https%3A%2F%2Ffonts.googleapis.com%2Fcss%3Ffamily%3DFira%2BSans;" parent="U4YsfLJUnH2YUSP0RZhR-1" source="7JiRD2UL8UpU9dU06qMq-36" target="ZXlPBLdOqaPTVpi3353M-19" edge="1">
                    <mxGeometry relative="1" as="geometry">
                        <mxPoint x="200" y="1400" as="targetPoint"/>
                        <mxPoint x="240" y="1280" as="sourcePoint"/>
                    </mxGeometry>
                </mxCell>
                <mxCell id="Lycn64YBPTiFs4BrJQRI-5" value="" style="rhombus;whiteSpace=wrap;html=1;fillColor=#B3C8E8;strokeColor=#4B607C;fontFamily=Fira Sans;fontSource=https%3A%2F%2Ffonts.googleapis.com%2Fcss%3Ffamily%3DFira%2BSans;" parent="U4YsfLJUnH2YUSP0RZhR-1" vertex="1">
                    <mxGeometry x="520" y="1140" width="80" height="40" as="geometry"/>
                </mxCell>
                <mxCell id="Lycn64YBPTiFs4BrJQRI-6" value="[L'utente vuole eliminare &lt;br&gt;la compilation]" style="edgeStyle=orthogonalEdgeStyle;html=1;align=left;verticalAlign=bottom;endArrow=open;endSize=8;strokeColor=#6F7978;exitX=0.5;exitY=1;exitDx=0;exitDy=0;fontFamily=Fira Sans;fontSource=https%3A%2F%2Ffonts.googleapis.com%2Fcss%3Ffamily%3DFira%2BSans;" parent="U4YsfLJUnH2YUSP0RZhR-1" source="Lycn64YBPTiFs4BrJQRI-5" target="7JiRD2UL8UpU9dU06qMq-69" edge="1">
                    <mxGeometry x="0.3333" y="-40" relative="1" as="geometry">
                        <mxPoint x="700" y="1160" as="targetPoint"/>
                        <mxPoint as="offset"/>
                    </mxGeometry>
                </mxCell>
                <mxCell id="Lycn64YBPTiFs4BrJQRI-7" value="[L'utente vuole eliminare&lt;br&gt;un itinerario dalla&lt;br&gt;compilation]" style="edgeStyle=orthogonalEdgeStyle;html=1;align=left;verticalAlign=top;endArrow=open;endSize=8;strokeColor=#6F7978;exitX=1;exitY=0.5;exitDx=0;exitDy=0;fontFamily=Fira Sans;fontSource=https%3A%2F%2Ffonts.googleapis.com%2Fcss%3Ffamily%3DFira%2BSans;" parent="U4YsfLJUnH2YUSP0RZhR-1" source="Lycn64YBPTiFs4BrJQRI-5" edge="1">
                    <mxGeometry x="-0.8" y="50" relative="1" as="geometry">
                        <mxPoint x="710" y="1250" as="targetPoint"/>
                        <mxPoint as="offset"/>
                    </mxGeometry>
                </mxCell>
                <mxCell id="Lycn64YBPTiFs4BrJQRI-8" value="Visualizza Tab&lt;br&gt;&quot;ItineraryTab&quot;" style="rounded=1;whiteSpace=wrap;html=1;arcSize=40;fontColor=#000000;fillColor=#CCE8E7;strokeColor=#006A6A;fontFamily=Fira Sans;fontSource=https%3A%2F%2Ffonts.googleapis.com%2Fcss%3Ffamily%3DFira%2BSans;" parent="U4YsfLJUnH2YUSP0RZhR-1" vertex="1">
                    <mxGeometry x="900" y="740" width="120" height="40" as="geometry"/>
                </mxCell>
                <mxCell id="Lycn64YBPTiFs4BrJQRI-9" value="" style="edgeStyle=orthogonalEdgeStyle;html=1;verticalAlign=bottom;endArrow=open;endSize=8;strokeColor=#6F7978;fontFamily=Fira Sans;fontSource=https%3A%2F%2Ffonts.googleapis.com%2Fcss%3Ffamily%3DFira%2BSans;" parent="U4YsfLJUnH2YUSP0RZhR-1" source="Lycn64YBPTiFs4BrJQRI-8" edge="1">
                    <mxGeometry relative="1" as="geometry">
                        <mxPoint x="960" y="840" as="targetPoint"/>
                    </mxGeometry>
                </mxCell>
                <mxCell id="Lycn64YBPTiFs4BrJQRI-10" value="" style="rhombus;whiteSpace=wrap;html=1;fillColor=#B3C8E8;strokeColor=#4B607C;fontFamily=Fira Sans;fontSource=https%3A%2F%2Ffonts.googleapis.com%2Fcss%3Ffamily%3DFira%2BSans;" parent="U4YsfLJUnH2YUSP0RZhR-1" vertex="1">
                    <mxGeometry x="920" y="840" width="80" height="40" as="geometry"/>
                </mxCell>
                <mxCell id="Lycn64YBPTiFs4BrJQRI-11" value="[L'utente vuole eliminare un&lt;br&gt;&amp;nbsp;itinerario inserito]" style="edgeStyle=orthogonalEdgeStyle;html=1;align=left;verticalAlign=bottom;endArrow=open;endSize=8;strokeColor=#6F7978;fontFamily=Fira Sans;fontSource=https%3A%2F%2Ffonts.googleapis.com%2Fcss%3Ffamily%3DFira%2BSans;" parent="U4YsfLJUnH2YUSP0RZhR-1" source="Lycn64YBPTiFs4BrJQRI-10" edge="1">
                    <mxGeometry x="0.75" y="10" relative="1" as="geometry">
                        <mxPoint x="1080" y="940" as="targetPoint"/>
                        <mxPoint as="offset"/>
                    </mxGeometry>
                </mxCell>
                <mxCell id="Lycn64YBPTiFs4BrJQRI-12" value="[L'utente vuole &lt;br&gt;visualizzare&lt;br&gt;un itinerario inserito]" style="edgeStyle=orthogonalEdgeStyle;html=1;align=left;verticalAlign=top;endArrow=open;endSize=8;strokeColor=#6F7978;fontFamily=Fira Sans;fontSource=https%3A%2F%2Ffonts.googleapis.com%2Fcss%3Ffamily%3DFira%2BSans;" parent="U4YsfLJUnH2YUSP0RZhR-1" source="Lycn64YBPTiFs4BrJQRI-10" edge="1">
                    <mxGeometry x="0.25" y="10" relative="1" as="geometry">
                        <mxPoint x="840" y="940" as="targetPoint"/>
                        <Array as="points">
                            <mxPoint x="840" y="860"/>
                        </Array>
                        <mxPoint as="offset"/>
                    </mxGeometry>
                </mxCell>
                <mxCell id="7JiRD2UL8UpU9dU06qMq-40" value="Preme pulsante &quot;Nuova compilation&quot;" style="rounded=1;whiteSpace=wrap;html=1;arcSize=40;fontColor=#000000;fillColor=#CCE8E7;strokeColor=#006A6A;fontFamily=Fira Sans;fontSource=https%3A%2F%2Ffonts.googleapis.com%2Fcss%3Ffamily%3DFira%2BSans;" parent="U4YsfLJUnH2YUSP0RZhR-1" vertex="1">
                    <mxGeometry x="340" y="940" width="120" height="40" as="geometry"/>
                </mxCell>
                <mxCell id="7JiRD2UL8UpU9dU06qMq-41" value="" style="edgeStyle=orthogonalEdgeStyle;html=1;verticalAlign=bottom;endArrow=open;endSize=8;strokeColor=#6F7978;fontFamily=Fira Sans;fontSource=https%3A%2F%2Ffonts.googleapis.com%2Fcss%3Ffamily%3DFira%2BSans;" parent="U4YsfLJUnH2YUSP0RZhR-1" source="7JiRD2UL8UpU9dU06qMq-40" edge="1">
                    <mxGeometry relative="1" as="geometry">
                        <mxPoint x="400" y="1040" as="targetPoint"/>
                    </mxGeometry>
                </mxCell>
                <mxCell id="7JiRD2UL8UpU9dU06qMq-42" value="Visualizza schermata &quot;NewCompilationUI&quot;" style="rounded=1;whiteSpace=wrap;html=1;arcSize=40;fontColor=#000000;fillColor=#CCE8E7;strokeColor=#006A6A;fontFamily=Fira Sans;fontSource=https%3A%2F%2Ffonts.googleapis.com%2Fcss%3Ffamily%3DFira%2BSans;" parent="U4YsfLJUnH2YUSP0RZhR-1" vertex="1">
                    <mxGeometry x="340" y="1040" width="120" height="40" as="geometry"/>
                </mxCell>
                <mxCell id="7JiRD2UL8UpU9dU06qMq-43" value="" style="edgeStyle=orthogonalEdgeStyle;html=1;verticalAlign=bottom;endArrow=open;endSize=8;strokeColor=#6F7978;fontFamily=Fira Sans;fontSource=https%3A%2F%2Ffonts.googleapis.com%2Fcss%3Ffamily%3DFira%2BSans;" parent="U4YsfLJUnH2YUSP0RZhR-1" source="7JiRD2UL8UpU9dU06qMq-42" edge="1">
                    <mxGeometry relative="1" as="geometry">
                        <mxPoint x="399.9999999999998" y="1140" as="targetPoint"/>
                    </mxGeometry>
                </mxCell>
                <mxCell id="7JiRD2UL8UpU9dU06qMq-44" value="Inserisce titolo, foto, descrizione" style="rounded=1;whiteSpace=wrap;html=1;arcSize=40;fontColor=#000000;fillColor=#CCE8E7;strokeColor=#006A6A;fontFamily=Fira Sans;fontSource=https%3A%2F%2Ffonts.googleapis.com%2Fcss%3Ffamily%3DFira%2BSans;" parent="U4YsfLJUnH2YUSP0RZhR-1" vertex="1">
                    <mxGeometry x="339" y="1140" width="120" height="40" as="geometry"/>
                </mxCell>
                <mxCell id="7JiRD2UL8UpU9dU06qMq-45" value="" style="edgeStyle=orthogonalEdgeStyle;html=1;verticalAlign=bottom;endArrow=open;endSize=8;strokeColor=#6F7978;fontFamily=Fira Sans;fontSource=https%3A%2F%2Ffonts.googleapis.com%2Fcss%3Ffamily%3DFira%2BSans;" parent="U4YsfLJUnH2YUSP0RZhR-1" source="7JiRD2UL8UpU9dU06qMq-44" edge="1">
                    <mxGeometry relative="1" as="geometry">
                        <mxPoint x="400" y="1250" as="targetPoint"/>
                        <Array as="points">
                            <mxPoint x="400" y="1190"/>
                            <mxPoint x="400" y="1190"/>
                        </Array>
                    </mxGeometry>
                </mxCell>
                <mxCell id="A3NBMzqYr8w2IX9amTPn-0" value="Preme card itinerario" style="rounded=1;whiteSpace=wrap;html=1;arcSize=40;fontColor=#000000;fillColor=#CCE8E7;strokeColor=#006A6A;fontFamily=Fira Sans;fontSource=https%3A%2F%2Ffonts.googleapis.com%2Fcss%3Ffamily%3DFira%2BSans;" parent="U4YsfLJUnH2YUSP0RZhR-1" vertex="1">
                    <mxGeometry x="780" y="940" width="120" height="40" as="geometry"/>
                </mxCell>
                <mxCell id="A3NBMzqYr8w2IX9amTPn-1" value="" style="edgeStyle=orthogonalEdgeStyle;html=1;verticalAlign=bottom;endArrow=open;endSize=8;strokeColor=#6F7978;entryX=0.5;entryY=0;entryDx=0;entryDy=0;fontFamily=Fira Sans;fontSource=https%3A%2F%2Ffonts.googleapis.com%2Fcss%3Ffamily%3DFira%2BSans;" parent="U4YsfLJUnH2YUSP0RZhR-1" source="A3NBMzqYr8w2IX9amTPn-0" edge="1" target="A3NBMzqYr8w2IX9amTPn-20">
                    <mxGeometry relative="1" as="geometry">
                        <mxPoint x="840" y="1040" as="targetPoint"/>
                        <Array as="points">
                            <mxPoint x="840" y="1210"/>
                            <mxPoint x="960" y="1210"/>
                        </Array>
                    </mxGeometry>
                </mxCell>
                <mxCell id="A3NBMzqYr8w2IX9amTPn-9" value="" style="edgeStyle=orthogonalEdgeStyle;html=1;verticalAlign=bottom;endArrow=open;endSize=8;strokeColor=#6F7978;fontFamily=Fira Sans;fontSource=https%3A%2F%2Ffonts.googleapis.com%2Fcss%3Ffamily%3DFira%2BSans;" parent="U4YsfLJUnH2YUSP0RZhR-1" source="A3NBMzqYr8w2IX9amTPn-10" edge="1">
                    <mxGeometry relative="1" as="geometry">
                        <mxPoint x="1080" y="1040" as="targetPoint"/>
                    </mxGeometry>
                </mxCell>
                <mxCell id="A3NBMzqYr8w2IX9amTPn-10" value="Tiene premuto sulla card dell'itinerario" style="rounded=1;whiteSpace=wrap;html=1;arcSize=40;fontColor=#000000;fillColor=#CCE8E7;strokeColor=#006A6A;fontFamily=Fira Sans;fontSource=https%3A%2F%2Ffonts.googleapis.com%2Fcss%3Ffamily%3DFira%2BSans;" parent="U4YsfLJUnH2YUSP0RZhR-1" vertex="1">
                    <mxGeometry x="1020" y="940" width="120" height="40" as="geometry"/>
                </mxCell>
                <mxCell id="A3NBMzqYr8w2IX9amTPn-16" value="Visualizza bottomsheet compilation" style="rounded=1;whiteSpace=wrap;html=1;arcSize=40;fontColor=#000000;fillColor=#CCE8E7;strokeColor=#006A6A;fontFamily=Fira Sans;fontSource=https%3A%2F%2Ffonts.googleapis.com%2Fcss%3Ffamily%3DFira%2BSans;" parent="U4YsfLJUnH2YUSP0RZhR-1" vertex="1">
                    <mxGeometry x="1020" y="1040" width="120" height="40" as="geometry"/>
                </mxCell>
                <mxCell id="7JiRD2UL8UpU9dU06qMq-53" value="" style="edgeStyle=orthogonalEdgeStyle;html=1;verticalAlign=bottom;endArrow=open;endSize=8;strokeColor=#ff0000;" parent="U4YsfLJUnH2YUSP0RZhR-1" edge="1">
                    <mxGeometry relative="1" as="geometry">
                        <mxPoint x="270" y="1450" as="targetPoint"/>
                    </mxGeometry>
                </mxCell>
                <mxCell id="A3NBMzqYr8w2IX9amTPn-17" value="" style="edgeStyle=orthogonalEdgeStyle;html=1;verticalAlign=bottom;endArrow=open;endSize=8;strokeColor=#6F7978;fontFamily=Fira Sans;fontSource=https%3A%2F%2Ffonts.googleapis.com%2Fcss%3Ffamily%3DFira%2BSans;" parent="U4YsfLJUnH2YUSP0RZhR-1" source="A3NBMzqYr8w2IX9amTPn-16" edge="1">
                    <mxGeometry relative="1" as="geometry">
                        <mxPoint x="1080" y="1140" as="targetPoint"/>
                    </mxGeometry>
                </mxCell>
                <mxCell id="A3NBMzqYr8w2IX9amTPn-18" value="Preme su &quot;Rimuovi itinerario&quot;" style="rounded=1;whiteSpace=wrap;html=1;arcSize=40;fontColor=#000000;fillColor=#CCE8E7;strokeColor=#006A6A;fontFamily=Fira Sans;fontSource=https%3A%2F%2Ffonts.googleapis.com%2Fcss%3Ffamily%3DFira%2BSans;" parent="U4YsfLJUnH2YUSP0RZhR-1" vertex="1">
                    <mxGeometry x="1020" y="1140" width="120" height="40" as="geometry"/>
                </mxCell>
                <mxCell id="A3NBMzqYr8w2IX9amTPn-19" value="" style="edgeStyle=orthogonalEdgeStyle;html=1;verticalAlign=bottom;endArrow=open;endSize=8;strokeColor=#6F7978;entryX=0.5;entryY=0;entryDx=0;entryDy=0;exitX=0.5;exitY=1;exitDx=0;exitDy=0;fontFamily=Fira Sans;fontSource=https%3A%2F%2Ffonts.googleapis.com%2Fcss%3Ffamily%3DFira%2BSans;" parent="U4YsfLJUnH2YUSP0RZhR-1" source="A3NBMzqYr8w2IX9amTPn-18" edge="1" target="A3NBMzqYr8w2IX9amTPn-20">
                    <mxGeometry relative="1" as="geometry">
                        <mxPoint x="1080" y="1240" as="targetPoint"/>
                        <Array as="points">
                            <mxPoint x="1080" y="1210"/>
                            <mxPoint x="960" y="1210"/>
                        </Array>
                    </mxGeometry>
                </mxCell>
                <mxCell id="A3NBMzqYr8w2IX9amTPn-20" value="" style="ellipse;html=1;shape=endState;fillColor=#000000;strokeColor=#B3C8E8;fontFamily=Fira Sans;fontSource=https%3A%2F%2Ffonts.googleapis.com%2Fcss%3Ffamily%3DFira%2BSans;" parent="U4YsfLJUnH2YUSP0RZhR-1" vertex="1">
                    <mxGeometry x="945" y="1255" width="30" height="30" as="geometry"/>
                </mxCell>
                <mxCell id="7JiRD2UL8UpU9dU06qMq-58" value="Preme il pulsante&amp;nbsp;&lt;br&gt;&quot;Crea&quot;" style="rounded=1;whiteSpace=wrap;html=1;arcSize=40;fontColor=#000000;fillColor=#CCE8E7;strokeColor=#006A6A;fontFamily=Fira Sans;fontSource=https%3A%2F%2Ffonts.googleapis.com%2Fcss%3Ffamily%3DFira%2BSans;" parent="U4YsfLJUnH2YUSP0RZhR-1" vertex="1">
                    <mxGeometry x="339" y="1350" width="120" height="40" as="geometry"/>
                </mxCell>
                <mxCell id="7JiRD2UL8UpU9dU06qMq-59" value="" style="edgeStyle=orthogonalEdgeStyle;html=1;verticalAlign=bottom;endArrow=open;endSize=8;strokeColor=#6F7978;fontFamily=Fira Sans;fontSource=https%3A%2F%2Ffonts.googleapis.com%2Fcss%3Ffamily%3DFira%2BSans;" parent="U4YsfLJUnH2YUSP0RZhR-1" source="7JiRD2UL8UpU9dU06qMq-58" edge="1">
                    <mxGeometry relative="1" as="geometry">
                        <mxPoint x="399" y="1450" as="targetPoint"/>
                    </mxGeometry>
                </mxCell>
                <mxCell id="7JiRD2UL8UpU9dU06qMq-62" value="" style="ellipse;html=1;shape=endState;fillColor=#000000;strokeColor=#B3C8E8;fontFamily=Fira Sans;fontSource=https%3A%2F%2Ffonts.googleapis.com%2Fcss%3Ffamily%3DFira%2BSans;" parent="U4YsfLJUnH2YUSP0RZhR-1" vertex="1">
                    <mxGeometry x="384" y="1450" width="30" height="30" as="geometry"/>
                </mxCell>
                <mxCell id="7JiRD2UL8UpU9dU06qMq-64" value="Preme sulla card della compilation" style="rounded=1;whiteSpace=wrap;html=1;arcSize=40;fontColor=#000000;fillColor=#CCE8E7;strokeColor=#006A6A;fontFamily=Fira Sans;fontSource=https%3A%2F%2Ffonts.googleapis.com%2Fcss%3Ffamily%3DFira%2BSans;" parent="U4YsfLJUnH2YUSP0RZhR-1" vertex="1">
                    <mxGeometry x="500" y="940" width="120" height="40" as="geometry"/>
                </mxCell>
                <mxCell id="7JiRD2UL8UpU9dU06qMq-65" value="" style="edgeStyle=orthogonalEdgeStyle;html=1;verticalAlign=bottom;endArrow=open;endSize=8;strokeColor=#6F7978;fontFamily=Fira Sans;fontSource=https%3A%2F%2Ffonts.googleapis.com%2Fcss%3Ffamily%3DFira%2BSans;" parent="U4YsfLJUnH2YUSP0RZhR-1" source="7JiRD2UL8UpU9dU06qMq-64" edge="1">
                    <mxGeometry relative="1" as="geometry">
                        <mxPoint x="560" y="1040" as="targetPoint"/>
                    </mxGeometry>
                </mxCell>
                <mxCell id="7JiRD2UL8UpU9dU06qMq-66" value="Visualizza schermata &quot;CompilationUI&quot;" style="rounded=1;whiteSpace=wrap;html=1;arcSize=40;fontColor=#000000;fillColor=#CCE8E7;strokeColor=#006A6A;fontFamily=Fira Sans;fontSource=https%3A%2F%2Ffonts.googleapis.com%2Fcss%3Ffamily%3DFira%2BSans;" parent="U4YsfLJUnH2YUSP0RZhR-1" vertex="1">
                    <mxGeometry x="500" y="1040" width="120" height="40" as="geometry"/>
                </mxCell>
                <mxCell id="7JiRD2UL8UpU9dU06qMq-67" value="" style="edgeStyle=orthogonalEdgeStyle;html=1;verticalAlign=bottom;endArrow=open;endSize=8;strokeColor=#6F7978;fontFamily=Fira Sans;fontSource=https%3A%2F%2Ffonts.googleapis.com%2Fcss%3Ffamily%3DFira%2BSans;" parent="U4YsfLJUnH2YUSP0RZhR-1" source="7JiRD2UL8UpU9dU06qMq-66" edge="1">
                    <mxGeometry relative="1" as="geometry">
                        <mxPoint x="560" y="1140" as="targetPoint"/>
                    </mxGeometry>
                </mxCell>
                <mxCell id="7JiRD2UL8UpU9dU06qMq-69" value="Preme l'icona del cestino" style="rounded=1;whiteSpace=wrap;html=1;arcSize=40;fontColor=#000000;fillColor=#CCE8E7;strokeColor=#006A6A;fontFamily=Fira Sans;fontSource=https%3A%2F%2Ffonts.googleapis.com%2Fcss%3Ffamily%3DFira%2BSans;" parent="U4YsfLJUnH2YUSP0RZhR-1" vertex="1">
                    <mxGeometry x="500" y="1250" width="120" height="40" as="geometry"/>
                </mxCell>
                <mxCell id="7JiRD2UL8UpU9dU06qMq-78" value="" style="edgeStyle=orthogonalEdgeStyle;html=1;verticalAlign=bottom;endArrow=open;endSize=8;strokeColor=#6F7978;entryX=1;entryY=0.5;entryDx=0;entryDy=0;exitX=0.5;exitY=1;exitDx=0;exitDy=0;fontFamily=Fira Sans;fontSource=https%3A%2F%2Ffonts.googleapis.com%2Fcss%3Ffamily%3DFira%2BSans;" parent="U4YsfLJUnH2YUSP0RZhR-1" source="7JiRD2UL8UpU9dU06qMq-69" target="ZXlPBLdOqaPTVpi3353M-19" edge="1">
                    <mxGeometry relative="1" as="geometry">
                        <mxPoint x="559.5" y="1610" as="targetPoint"/>
                        <mxPoint x="559.5" y="1390" as="sourcePoint"/>
                        <Array as="points">
                            <mxPoint x="560" y="1520"/>
                        </Array>
                    </mxGeometry>
                </mxCell>
                <mxCell id="7JiRD2UL8UpU9dU06qMq-79" value="Preme l'icona del cestino sulla card dell'itinerario" style="rounded=1;whiteSpace=wrap;html=1;arcSize=40;fontColor=#000000;fillColor=#CCE8E7;strokeColor=#006A6A;fontFamily=Fira Sans;fontSource=https%3A%2F%2Ffonts.googleapis.com%2Fcss%3Ffamily%3DFira%2BSans;" parent="U4YsfLJUnH2YUSP0RZhR-1" vertex="1">
                    <mxGeometry x="650" y="1250" width="120" height="40" as="geometry"/>
                </mxCell>
                <mxCell id="7JiRD2UL8UpU9dU06qMq-81" value="" style="edgeStyle=orthogonalEdgeStyle;html=1;verticalAlign=bottom;endArrow=open;endSize=8;strokeColor=#6F7978;exitX=0.5;exitY=1;exitDx=0;exitDy=0;fontFamily=Fira Sans;fontSource=https%3A%2F%2Ffonts.googleapis.com%2Fcss%3Ffamily%3DFira%2BSans;" parent="U4YsfLJUnH2YUSP0RZhR-1" source="7JiRD2UL8UpU9dU06qMq-79" edge="1">
                    <mxGeometry relative="1" as="geometry">
                        <mxPoint x="300" y="1520" as="targetPoint"/>
                        <mxPoint x="709.5" y="1390.0000000000002" as="sourcePoint"/>
                        <Array as="points">
                            <mxPoint x="710" y="1520"/>
                        </Array>
                    </mxGeometry>
                </mxCell>
                <mxCell id="q9j5xcXDk66MLLSKHS1z-0" value="" style="edgeStyle=orthogonalEdgeStyle;html=1;verticalAlign=bottom;endArrow=open;endSize=8;strokeColor=#6F7978;fontFamily=Fira Sans;fontSource=https%3A%2F%2Ffonts.googleapis.com%2Fcss%3Ffamily%3DFira%2BSans;" parent="U4YsfLJUnH2YUSP0RZhR-1" source="q9j5xcXDk66MLLSKHS1z-1" edge="1">
                    <mxGeometry relative="1" as="geometry">
                        <mxPoint x="240" y="1800" as="targetPoint"/>
                    </mxGeometry>
                </mxCell>
                <mxCell id="q9j5xcXDk66MLLSKHS1z-1" value="Visualizza messaggio di avvenuta rimozione" style="rounded=1;whiteSpace=wrap;html=1;arcSize=40;fontColor=#000000;fillColor=#CCE8E7;strokeColor=#006A6A;fontFamily=Fira Sans;fontSource=https%3A%2F%2Ffonts.googleapis.com%2Fcss%3Ffamily%3DFira%2BSans;" parent="U4YsfLJUnH2YUSP0RZhR-1" vertex="1">
                    <mxGeometry x="180" y="1700" width="120" height="60" as="geometry"/>
                </mxCell>
                <mxCell id="hkWuHuquFvAolMuTEnnO-3" value="" style="rhombus;whiteSpace=wrap;html=1;fillColor=#B3C8E8;strokeColor=#4B607C;fontFamily=Fira Sans;fontSource=https%3A%2F%2Ffonts.googleapis.com%2Fcss%3Ffamily%3DFira%2BSans;" parent="U4YsfLJUnH2YUSP0RZhR-1" vertex="1">
                    <mxGeometry x="360" y="1249" width="80" height="40" as="geometry"/>
                </mxCell>
                <mxCell id="hkWuHuquFvAolMuTEnnO-4" value="[Titolo non &lt;br&gt;inserito]" style="edgeStyle=orthogonalEdgeStyle;html=1;align=left;verticalAlign=bottom;endArrow=open;endSize=8;strokeColor=#6F7978;fontFamily=Fira Sans;fontSource=https%3A%2F%2Ffonts.googleapis.com%2Fcss%3Ffamily%3DFira%2BSans;" parent="U4YsfLJUnH2YUSP0RZhR-1" source="hkWuHuquFvAolMuTEnnO-3" edge="1">
                    <mxGeometry x="-1" y="40" relative="1" as="geometry">
                        <mxPoint x="460" y="1169" as="targetPoint"/>
                        <Array as="points">
                            <mxPoint x="490" y="1269"/>
                            <mxPoint x="490" y="1169"/>
                        </Array>
                        <mxPoint x="-10" y="1" as="offset"/>
                    </mxGeometry>
                </mxCell>
                <mxCell id="hkWuHuquFvAolMuTEnnO-8" value="" style="edgeStyle=orthogonalEdgeStyle;html=1;verticalAlign=bottom;endArrow=open;endSize=8;strokeColor=#6F7978;fontFamily=Fira Sans;fontSource=https%3A%2F%2Ffonts.googleapis.com%2Fcss%3Ffamily%3DFira%2BSans;" parent="U4YsfLJUnH2YUSP0RZhR-1" edge="1">
                    <mxGeometry relative="1" as="geometry">
                        <mxPoint x="399.58000000000004" y="1350" as="targetPoint"/>
                        <mxPoint x="399.58000000000004" y="1290" as="sourcePoint"/>
                    </mxGeometry>
                </mxCell>
                <mxCell id="1C6c8uPAKuhXR1grBd3k-0" value="Non so se si chiama CompilationUI, controllare ECB" style="shape=note2;boundedLbl=1;whiteSpace=wrap;html=1;size=25;verticalAlign=top;align=center;strokeColor=#006A6A;fillColor=#FFFFCC;" vertex="1" parent="U4YsfLJUnH2YUSP0RZhR-1">
                    <mxGeometry x="620" y="1000" width="120" height="80" as="geometry"/>
                </mxCell>
                <mxCell id="1C6c8uPAKuhXR1grBd3k-1" value="Come si chiama questa bottomsheet?" style="shape=note2;boundedLbl=1;whiteSpace=wrap;html=1;size=25;verticalAlign=top;align=center;strokeColor=#006A6A;fillColor=#FFFFCC;" vertex="1" parent="U4YsfLJUnH2YUSP0RZhR-1">
                    <mxGeometry x="1140" y="1040" width="120" height="60" as="geometry"/>
                </mxCell>
                <mxCell id="1C6c8uPAKuhXR1grBd3k-2" value="Questa dialog non c'è su Figma e quindi neanche negli ECB, da aggiornare" style="shape=note2;boundedLbl=1;whiteSpace=wrap;html=1;size=25;verticalAlign=top;align=center;strokeColor=#006A6A;fillColor=#FFFFCC;" vertex="1" parent="U4YsfLJUnH2YUSP0RZhR-1">
                    <mxGeometry x="310" y="1530" width="120" height="100" as="geometry"/>
                </mxCell>
            </root>
        </mxGraphModel>
    </diagram>
    <diagram id="7l6BQprPGVEzvf7-SVZ5" name="Ricerca itinerario">
        <mxGraphModel dx="1631" dy="519" grid="1" gridSize="10" guides="1" tooltips="1" connect="1" arrows="1" fold="1" page="1" pageScale="1" pageWidth="827" pageHeight="1169" math="0" shadow="0">
            <root>
                <mxCell id="dLDWb3RigVGhBTeoKTjL-0"/>
                <mxCell id="dLDWb3RigVGhBTeoKTjL-1" parent="dLDWb3RigVGhBTeoKTjL-0"/>
                <mxCell id="dLDWb3RigVGhBTeoKTjL-2" value="Clicca sulla &lt;br&gt;casella di ricerca" style="rounded=1;whiteSpace=wrap;html=1;arcSize=40;fontColor=#000000;fillColor=#CCE8E7;strokeColor=#006A6A;fontFamily=Fira Sans;fontSource=https%3A%2F%2Ffonts.googleapis.com%2Fcss%3Ffamily%3DFira%2BSans;" parent="dLDWb3RigVGhBTeoKTjL-1" vertex="1">
                    <mxGeometry x="270" y="130" width="120" height="40" as="geometry"/>
                </mxCell>
                <mxCell id="dLDWb3RigVGhBTeoKTjL-3" value="" style="edgeStyle=orthogonalEdgeStyle;html=1;verticalAlign=bottom;endArrow=open;endSize=8;strokeColor=#6F7978;fontFamily=Fira Sans;fontSource=https%3A%2F%2Ffonts.googleapis.com%2Fcss%3Ffamily%3DFira%2BSans;" parent="dLDWb3RigVGhBTeoKTjL-1" source="dLDWb3RigVGhBTeoKTjL-2" edge="1">
                    <mxGeometry relative="1" as="geometry">
                        <mxPoint x="330" y="230" as="targetPoint"/>
                    </mxGeometry>
                </mxCell>
                <mxCell id="dLDWb3RigVGhBTeoKTjL-4" value="" style="ellipse;html=1;shape=startState;fillColor=#000000;strokeColor=#81A1C1;fontFamily=Fira Sans;fontSource=https%3A%2F%2Ffonts.googleapis.com%2Fcss%3Ffamily%3DFira%2BSans;" parent="dLDWb3RigVGhBTeoKTjL-1" vertex="1">
                    <mxGeometry x="315" y="40" width="30" height="30" as="geometry"/>
                </mxCell>
                <mxCell id="dLDWb3RigVGhBTeoKTjL-5" value="" style="edgeStyle=orthogonalEdgeStyle;html=1;verticalAlign=bottom;endArrow=open;endSize=8;strokeColor=#81A1C1;entryX=0.5;entryY=0;entryDx=0;entryDy=0;fontFamily=Fira Sans;fontSource=https%3A%2F%2Ffonts.googleapis.com%2Fcss%3Ffamily%3DFira%2BSans;" parent="dLDWb3RigVGhBTeoKTjL-1" source="dLDWb3RigVGhBTeoKTjL-4" target="dLDWb3RigVGhBTeoKTjL-2" edge="1">
                    <mxGeometry relative="1" as="geometry">
                        <mxPoint x="325" y="70" as="targetPoint"/>
                    </mxGeometry>
                </mxCell>
                <mxCell id="dLDWb3RigVGhBTeoKTjL-10" value="Inserisce la&lt;br&gt;chiave di ricerca" style="rounded=1;whiteSpace=wrap;html=1;arcSize=40;fontColor=#000000;fillColor=#CCE8E7;strokeColor=#006A6A;fontFamily=Fira Sans;fontSource=https%3A%2F%2Ffonts.googleapis.com%2Fcss%3Ffamily%3DFira%2BSans;" parent="dLDWb3RigVGhBTeoKTjL-1" vertex="1">
                    <mxGeometry x="270" y="330" width="120" height="40" as="geometry"/>
                </mxCell>
                <mxCell id="dLDWb3RigVGhBTeoKTjL-11" value="" style="edgeStyle=orthogonalEdgeStyle;html=1;verticalAlign=bottom;endArrow=open;endSize=8;strokeColor=#6F7978;fontFamily=Fira Sans;fontSource=https%3A%2F%2Ffonts.googleapis.com%2Fcss%3Ffamily%3DFira%2BSans;" parent="dLDWb3RigVGhBTeoKTjL-1" source="dLDWb3RigVGhBTeoKTjL-10" edge="1">
                    <mxGeometry relative="1" as="geometry">
                        <mxPoint x="330" y="440" as="targetPoint"/>
                    </mxGeometry>
                </mxCell>
                <mxCell id="04aRdDE0cyexcvIGRXQk-0" value="Visualizza la&amp;nbsp;schermata &lt;br&gt;&quot;SearchUI&quot;" style="rounded=1;whiteSpace=wrap;html=1;arcSize=40;fontColor=#000000;fillColor=#CCE8E7;strokeColor=#006A6A;fontFamily=Fira Sans;fontSource=https%3A%2F%2Ffonts.googleapis.com%2Fcss%3Ffamily%3DFira%2BSans;" parent="dLDWb3RigVGhBTeoKTjL-1" vertex="1">
                    <mxGeometry x="270" y="230" width="120" height="40" as="geometry"/>
                </mxCell>
                <mxCell id="04aRdDE0cyexcvIGRXQk-1" value="" style="edgeStyle=orthogonalEdgeStyle;html=1;verticalAlign=bottom;endArrow=open;endSize=8;strokeColor=#6F7978;fontFamily=Fira Sans;fontSource=https%3A%2F%2Ffonts.googleapis.com%2Fcss%3Ffamily%3DFira%2BSans;" parent="dLDWb3RigVGhBTeoKTjL-1" source="04aRdDE0cyexcvIGRXQk-0" edge="1">
                    <mxGeometry relative="1" as="geometry">
                        <mxPoint x="330" y="330" as="targetPoint"/>
                    </mxGeometry>
                </mxCell>
                <mxCell id="04aRdDE0cyexcvIGRXQk-2" value="" style="rhombus;whiteSpace=wrap;html=1;fillColor=#B3C8E8;strokeColor=#6F7978;fontFamily=Fira Sans;fontSource=https%3A%2F%2Ffonts.googleapis.com%2Fcss%3Ffamily%3DFira%2BSans;" parent="dLDWb3RigVGhBTeoKTjL-1" vertex="1">
                    <mxGeometry x="290" y="440" width="80" height="40" as="geometry"/>
                </mxCell>
                <mxCell id="04aRdDE0cyexcvIGRXQk-3" value="[Chiave di ricerca vuota]" style="edgeStyle=orthogonalEdgeStyle;html=1;align=left;verticalAlign=bottom;endArrow=open;endSize=8;strokeColor=#6F7978;entryX=1;entryY=0.5;entryDx=0;entryDy=0;fontFamily=Fira Sans;fontSource=https%3A%2F%2Ffonts.googleapis.com%2Fcss%3Ffamily%3DFira%2BSans;" parent="dLDWb3RigVGhBTeoKTjL-1" source="04aRdDE0cyexcvIGRXQk-2" target="dLDWb3RigVGhBTeoKTjL-10" edge="1">
                    <mxGeometry x="0.0327" relative="1" as="geometry">
                        <mxPoint x="480" y="350" as="targetPoint"/>
                        <Array as="points">
                            <mxPoint x="480" y="460"/>
                            <mxPoint x="480" y="350"/>
                        </Array>
                        <mxPoint as="offset"/>
                    </mxGeometry>
                </mxCell>
                <mxCell id="04aRdDE0cyexcvIGRXQk-4" value="[Chiave di ricerca non vuota]" style="edgeStyle=orthogonalEdgeStyle;html=1;align=left;verticalAlign=top;endArrow=open;endSize=8;strokeColor=#6F7978;fontFamily=Fira Sans;fontSource=https%3A%2F%2Ffonts.googleapis.com%2Fcss%3Ffamily%3DFira%2BSans;" parent="dLDWb3RigVGhBTeoKTjL-1" source="04aRdDE0cyexcvIGRXQk-2" edge="1">
                    <mxGeometry x="0.1821" y="-28" relative="1" as="geometry">
                        <mxPoint x="160" y="550" as="targetPoint"/>
                        <Array as="points">
                            <mxPoint x="160" y="460"/>
                        </Array>
                        <mxPoint x="8" y="-20" as="offset"/>
                    </mxGeometry>
                </mxCell>
                <mxCell id="alX90IPVaUkYEJBgWnZ0-0" value="" style="rhombus;whiteSpace=wrap;html=1;fillColor=#B3C8E8;strokeColor=#6F7978;fontFamily=Fira Sans;fontSource=https%3A%2F%2Ffonts.googleapis.com%2Fcss%3Ffamily%3DFira%2BSans;" parent="dLDWb3RigVGhBTeoKTjL-1" vertex="1">
                    <mxGeometry x="120" y="550" width="80" height="40" as="geometry"/>
                </mxCell>
                <mxCell id="alX90IPVaUkYEJBgWnZ0-1" value="[Non vuole filtrare &lt;br&gt;la ricerca]" style="edgeStyle=orthogonalEdgeStyle;html=1;align=left;verticalAlign=bottom;endArrow=open;endSize=8;strokeColor=#6F7978;fontFamily=Fira Sans;fontSource=https%3A%2F%2Ffonts.googleapis.com%2Fcss%3Ffamily%3DFira%2BSans;" parent="dLDWb3RigVGhBTeoKTjL-1" source="alX90IPVaUkYEJBgWnZ0-0" edge="1">
                    <mxGeometry x="-0.6715" relative="1" as="geometry">
                        <mxPoint x="160" y="1040" as="targetPoint"/>
                        <Array as="points">
                            <mxPoint x="280" y="570"/>
                            <mxPoint x="280" y="1010"/>
                            <mxPoint x="160" y="1010"/>
                        </Array>
                        <mxPoint as="offset"/>
                    </mxGeometry>
                </mxCell>
                <mxCell id="alX90IPVaUkYEJBgWnZ0-2" value="[Vuole filtrare &lt;br&gt;la ricerca]" style="edgeStyle=orthogonalEdgeStyle;html=1;align=right;verticalAlign=top;endArrow=open;endSize=8;strokeColor=#6F7978;fontFamily=Fira Sans;fontSource=https%3A%2F%2Ffonts.googleapis.com%2Fcss%3Ffamily%3DFira%2BSans;" parent="dLDWb3RigVGhBTeoKTjL-1" source="alX90IPVaUkYEJBgWnZ0-0" edge="1">
                    <mxGeometry x="0.0665" y="-10" relative="1" as="geometry">
                        <mxPoint x="40" y="640" as="targetPoint"/>
                        <Array as="points">
                            <mxPoint x="40" y="570"/>
                            <mxPoint x="40" y="640"/>
                        </Array>
                        <mxPoint x="10" y="-10" as="offset"/>
                    </mxGeometry>
                </mxCell>
                <mxCell id="alX90IPVaUkYEJBgWnZ0-3" value="Visualizza risultati" style="rounded=1;whiteSpace=wrap;html=1;arcSize=40;fontColor=#000000;fillColor=#CCE8E7;strokeColor=#006A6A;fontFamily=Fira Sans;fontSource=https%3A%2F%2Ffonts.googleapis.com%2Fcss%3Ffamily%3DFira%2BSans;" parent="dLDWb3RigVGhBTeoKTjL-1" vertex="1">
                    <mxGeometry x="100" y="1040" width="120" height="40" as="geometry"/>
                </mxCell>
                <mxCell id="alX90IPVaUkYEJBgWnZ0-5" value="" style="ellipse;html=1;shape=endState;fillColor=#000000;strokeColor=#81A1C1;fontFamily=Fira Sans;fontSource=https%3A%2F%2Ffonts.googleapis.com%2Fcss%3Ffamily%3DFira%2BSans;" parent="dLDWb3RigVGhBTeoKTjL-1" vertex="1">
                    <mxGeometry x="145" y="1130" width="30" height="30" as="geometry"/>
                </mxCell>
                <mxCell id="dKVsMG5GlroyLpXpNK57-0" value="Preme icona filtri" style="rounded=1;whiteSpace=wrap;html=1;arcSize=40;fontColor=#000000;fillColor=#CCE8E7;strokeColor=#006A6A;fontFamily=Fira Sans;fontSource=https%3A%2F%2Ffonts.googleapis.com%2Fcss%3Ffamily%3DFira%2BSans;" parent="dLDWb3RigVGhBTeoKTjL-1" vertex="1">
                    <mxGeometry x="-20" y="640" width="120" height="40" as="geometry"/>
                </mxCell>
                <mxCell id="alX90IPVaUkYEJBgWnZ0-6" value="" style="edgeStyle=orthogonalEdgeStyle;html=1;verticalAlign=bottom;endArrow=open;endSize=8;strokeColor=#6F7978;fontFamily=Fira Sans;fontSource=https%3A%2F%2Ffonts.googleapis.com%2Fcss%3Ffamily%3DFira%2BSans;" parent="dLDWb3RigVGhBTeoKTjL-1" edge="1">
                    <mxGeometry relative="1" as="geometry">
                        <mxPoint x="39.71" y="740" as="targetPoint"/>
                        <mxPoint x="39.71" y="680" as="sourcePoint"/>
                    </mxGeometry>
                </mxCell>
                <mxCell id="alX90IPVaUkYEJBgWnZ0-7" value="Imposta i &lt;br&gt;filtri desiderati" style="rounded=1;whiteSpace=wrap;html=1;arcSize=40;fontColor=#000000;fillColor=#CCE8E7;strokeColor=#006A6A;fontFamily=Fira Sans;fontSource=https%3A%2F%2Ffonts.googleapis.com%2Fcss%3Ffamily%3DFira%2BSans;" parent="dLDWb3RigVGhBTeoKTjL-1" vertex="1">
                    <mxGeometry x="-20" y="840" width="120" height="40" as="geometry"/>
                </mxCell>
                <mxCell id="alX90IPVaUkYEJBgWnZ0-8" value="" style="edgeStyle=orthogonalEdgeStyle;html=1;verticalAlign=bottom;endArrow=open;endSize=8;strokeColor=#6F7978;fontFamily=Fira Sans;fontSource=https%3A%2F%2Ffonts.googleapis.com%2Fcss%3Ffamily%3DFira%2BSans;" parent="dLDWb3RigVGhBTeoKTjL-1" edge="1">
                    <mxGeometry relative="1" as="geometry">
                        <mxPoint x="39.710000000000264" y="940" as="targetPoint"/>
                        <mxPoint x="39.710000000000264" y="880" as="sourcePoint"/>
                        <Array as="points">
                            <mxPoint x="40" y="910"/>
                            <mxPoint x="40" y="910"/>
                        </Array>
                    </mxGeometry>
                </mxCell>
                <mxCell id="alX90IPVaUkYEJBgWnZ0-9" value="Preme pulsante &quot;Fatto&quot;" style="rounded=1;whiteSpace=wrap;html=1;arcSize=40;fontColor=#000000;fillColor=#CCE8E7;strokeColor=#006A6A;fontFamily=Fira Sans;fontSource=https%3A%2F%2Ffonts.googleapis.com%2Fcss%3Ffamily%3DFira%2BSans;" parent="dLDWb3RigVGhBTeoKTjL-1" vertex="1">
                    <mxGeometry x="-20" y="940" width="120" height="40" as="geometry"/>
                </mxCell>
                <mxCell id="alX90IPVaUkYEJBgWnZ0-12" value="" style="edgeStyle=orthogonalEdgeStyle;html=1;verticalAlign=bottom;endArrow=open;endSize=8;strokeColor=#6F7978;exitX=0.5;exitY=1;exitDx=0;exitDy=0;entryX=0.5;entryY=0;entryDx=0;entryDy=0;fontFamily=Fira Sans;fontSource=https%3A%2F%2Ffonts.googleapis.com%2Fcss%3Ffamily%3DFira%2BSans;" parent="dLDWb3RigVGhBTeoKTjL-1" source="alX90IPVaUkYEJBgWnZ0-9" target="alX90IPVaUkYEJBgWnZ0-3" edge="1">
                    <mxGeometry relative="1" as="geometry">
                        <mxPoint x="39.58000000000001" y="1040" as="targetPoint"/>
                        <mxPoint x="39.58000000000001" y="980" as="sourcePoint"/>
                    </mxGeometry>
                </mxCell>
                <mxCell id="alX90IPVaUkYEJBgWnZ0-13" value="" style="edgeStyle=orthogonalEdgeStyle;html=1;verticalAlign=bottom;endArrow=open;endSize=8;strokeColor=#6F7978;fontFamily=Fira Sans;fontSource=https%3A%2F%2Ffonts.googleapis.com%2Fcss%3Ffamily%3DFira%2BSans;exitX=0.5;exitY=1;exitDx=0;exitDy=0;entryX=0.5;entryY=0;entryDx=0;entryDy=0;" parent="dLDWb3RigVGhBTeoKTjL-1" edge="1" target="alX90IPVaUkYEJBgWnZ0-5" source="alX90IPVaUkYEJBgWnZ0-3">
                    <mxGeometry relative="1" as="geometry">
                        <mxPoint x="159.17" y="1130" as="targetPoint"/>
                        <mxPoint x="159" y="1090" as="sourcePoint"/>
                    </mxGeometry>
                </mxCell>
                <mxCell id="Zs850nrpCLpgvv1j8uj2-0" value="Visualizza schermata&lt;br&gt;&quot;FilterSearchUI&quot;" style="rounded=1;whiteSpace=wrap;html=1;arcSize=40;fontColor=#000000;fillColor=#CCE8E7;strokeColor=#006A6A;fontFamily=Fira Sans;fontSource=https%3A%2F%2Ffonts.googleapis.com%2Fcss%3Ffamily%3DFira%2BSans;" vertex="1" parent="dLDWb3RigVGhBTeoKTjL-1">
                    <mxGeometry x="-20" y="740" width="120" height="40" as="geometry"/>
                </mxCell>
                <mxCell id="Zs850nrpCLpgvv1j8uj2-1" value="" style="edgeStyle=orthogonalEdgeStyle;html=1;verticalAlign=bottom;endArrow=open;endSize=8;strokeColor=#6F7978;fontFamily=Fira Sans;fontSource=https%3A%2F%2Ffonts.googleapis.com%2Fcss%3Ffamily%3DFira%2BSans;" edge="1" parent="dLDWb3RigVGhBTeoKTjL-1">
                    <mxGeometry relative="1" as="geometry">
                        <mxPoint x="39.710000000000036" y="840" as="targetPoint"/>
                        <mxPoint x="39.710000000000036" y="780" as="sourcePoint"/>
                    </mxGeometry>
                </mxCell>
            </root>
        </mxGraphModel>
    </diagram>
    <diagram id="Dcz4ucFsbTlnLfviEYdo" name="Interazione con un post">
        <mxGraphModel dx="339" dy="753" grid="1" gridSize="10" guides="1" tooltips="1" connect="1" arrows="1" fold="1" page="1" pageScale="1" pageWidth="827" pageHeight="1169" math="0" shadow="0">
            <root>
                <mxCell id="XelLYjP7PnaEkrrySzLf-0"/>
                <mxCell id="XelLYjP7PnaEkrrySzLf-1" parent="XelLYjP7PnaEkrrySzLf-0"/>
                <mxCell id="ysNNLXja12TrelhRyihP-0" value="" style="ellipse;html=1;shape=startState;fillColor=#000000;strokeColor=#81A1C1;fontFamily=Fira Sans;fontSource=https%3A%2F%2Ffonts.googleapis.com%2Fcss%3Ffamily%3DFira%2BSans;" parent="XelLYjP7PnaEkrrySzLf-1" vertex="1">
                    <mxGeometry x="1623.92" y="99" width="30" height="30" as="geometry"/>
                </mxCell>
                <mxCell id="ysNNLXja12TrelhRyihP-1" value="" style="edgeStyle=orthogonalEdgeStyle;html=1;verticalAlign=bottom;endArrow=open;endSize=8;strokeColor=#B3C8E8;exitX=0.534;exitY=0.857;exitDx=0;exitDy=0;exitPerimeter=0;fontFamily=Fira Sans;fontSource=https%3A%2F%2Ffonts.googleapis.com%2Fcss%3Ffamily%3DFira%2BSans;" parent="XelLYjP7PnaEkrrySzLf-1" source="ysNNLXja12TrelhRyihP-0" edge="1">
                    <mxGeometry relative="1" as="geometry">
                        <mxPoint x="1639.92" y="179" as="targetPoint"/>
                    </mxGeometry>
                </mxCell>
                <mxCell id="ysNNLXja12TrelhRyihP-2" value="Clicca sul post" style="rounded=1;whiteSpace=wrap;html=1;arcSize=40;fontColor=#000000;fillColor=#CCE8E7;strokeColor=#006A6A;fontFamily=Fira Sans;fontSource=https%3A%2F%2Ffonts.googleapis.com%2Fcss%3Ffamily%3DFira%2BSans;" parent="XelLYjP7PnaEkrrySzLf-1" vertex="1">
                    <mxGeometry x="1578.9199999999998" y="179" width="120" height="40" as="geometry"/>
                </mxCell>
                <mxCell id="WjFMq735i4BEfBw_ApYI-0" value="Visualizza schermata &quot;PostUI&quot;" style="rounded=1;whiteSpace=wrap;html=1;arcSize=40;fontColor=#000000;fillColor=#CCE8E7;strokeColor=#006A6A;fontFamily=Fira Sans;fontSource=https%3A%2F%2Ffonts.googleapis.com%2Fcss%3Ffamily%3DFira%2BSans;" parent="XelLYjP7PnaEkrrySzLf-1" vertex="1">
                    <mxGeometry x="1568.38" y="270" width="141.08" height="49" as="geometry"/>
                </mxCell>
                <mxCell id="WjFMq735i4BEfBw_ApYI-4" value="" style="edgeStyle=orthogonalEdgeStyle;html=1;verticalAlign=bottom;endArrow=open;endSize=8;strokeColor=#6F7978;fontFamily=Fira Sans;fontSource=https%3A%2F%2Ffonts.googleapis.com%2Fcss%3Ffamily%3DFira%2BSans;" parent="XelLYjP7PnaEkrrySzLf-1" edge="1">
                    <mxGeometry relative="1" as="geometry">
                        <mxPoint x="1639" y="270" as="targetPoint"/>
                        <mxPoint x="1639" y="219" as="sourcePoint"/>
                    </mxGeometry>
                </mxCell>
                <mxCell id="WjFMq735i4BEfBw_ApYI-7" value="" style="edgeStyle=orthogonalEdgeStyle;html=1;verticalAlign=bottom;endArrow=open;endSize=8;strokeColor=#6F7978;fontFamily=Fira Sans;fontSource=https%3A%2F%2Ffonts.googleapis.com%2Fcss%3Ffamily%3DFira%2BSans;" parent="XelLYjP7PnaEkrrySzLf-1" edge="1">
                    <mxGeometry relative="1" as="geometry">
                        <mxPoint x="1638.8099999999997" y="379" as="targetPoint"/>
                        <mxPoint x="1638.8099999999997" y="319" as="sourcePoint"/>
                    </mxGeometry>
                </mxCell>
                <mxCell id="hmAzVnD0Wv5L_mj150te-0" value="" style="rhombus;whiteSpace=wrap;html=1;fillColor=#B3C8E8;strokeColor=#4B607C;fontFamily=Fira Sans;fontSource=https%3A%2F%2Ffonts.googleapis.com%2Fcss%3Ffamily%3DFira%2BSans;" parent="XelLYjP7PnaEkrrySzLf-1" vertex="1">
                    <mxGeometry x="1599.9199999999998" y="379" width="80" height="40" as="geometry"/>
                </mxCell>
                <mxCell id="hmAzVnD0Wv5L_mj150te-1" value="[L'utente vuole contattare &lt;br&gt;l'autore del post]" style="edgeStyle=orthogonalEdgeStyle;html=1;align=left;verticalAlign=bottom;endArrow=open;endSize=8;strokeColor=#6F7978;fontFamily=Fira Sans;fontSource=https%3A%2F%2Ffonts.googleapis.com%2Fcss%3Ffamily%3DFira%2BSans;" parent="XelLYjP7PnaEkrrySzLf-1" source="hmAzVnD0Wv5L_mj150te-0" edge="1">
                    <mxGeometry x="-0.9983" y="9" relative="1" as="geometry">
                        <mxPoint x="1800" y="480" as="targetPoint"/>
                        <mxPoint as="offset"/>
                    </mxGeometry>
                </mxCell>
                <mxCell id="hmAzVnD0Wv5L_mj150te-11" value="[L'utente vuole &lt;br&gt;segnalare un post]" style="edgeStyle=orthogonalEdgeStyle;html=1;align=left;verticalAlign=bottom;endArrow=open;endSize=8;strokeColor=#6F7978;entryX=0.5;entryY=0;entryDx=0;entryDy=0;fontFamily=Fira Sans;fontSource=https%3A%2F%2Ffonts.googleapis.com%2Fcss%3Ffamily%3DFira%2BSans;" parent="XelLYjP7PnaEkrrySzLf-1" target="ZOFcMcVCwPgp1J-xyhjM-0" edge="1">
                    <mxGeometry x="-0.0073" y="-9" relative="1" as="geometry">
                        <mxPoint x="1480" y="470" as="targetPoint"/>
                        <mxPoint x="1599.9199999999998" y="398.77000000000004" as="sourcePoint"/>
                        <Array as="points">
                            <mxPoint x="1480" y="399"/>
                        </Array>
                        <mxPoint as="offset"/>
                    </mxGeometry>
                </mxCell>
                <mxCell id="dfRJ8p6c9e0zxSOdreHJ-1" value="Clicca icona chat" style="rounded=1;whiteSpace=wrap;html=1;arcSize=40;fontColor=#000000;fillColor=#CCE8E7;strokeColor=#006A6A;fontFamily=Fira Sans;fontSource=https%3A%2F%2Ffonts.googleapis.com%2Fcss%3Ffamily%3DFira%2BSans;" parent="XelLYjP7PnaEkrrySzLf-1" vertex="1">
                    <mxGeometry x="1739.9199999999998" y="480" width="120" height="40" as="geometry"/>
                </mxCell>
                <mxCell id="dfRJ8p6c9e0zxSOdreHJ-2" value="" style="edgeStyle=orthogonalEdgeStyle;html=1;verticalAlign=bottom;endArrow=open;endSize=8;strokeColor=#6F7978;fontFamily=Fira Sans;fontSource=https%3A%2F%2Ffonts.googleapis.com%2Fcss%3Ffamily%3DFira%2BSans;" parent="XelLYjP7PnaEkrrySzLf-1" source="dfRJ8p6c9e0zxSOdreHJ-1" edge="1">
                    <mxGeometry relative="1" as="geometry">
                        <mxPoint x="1799.9199999999998" y="580" as="targetPoint"/>
                    </mxGeometry>
                </mxCell>
                <mxCell id="dfRJ8p6c9e0zxSOdreHJ-3" value="Visualizza schermata&amp;nbsp;&lt;br&gt;&quot;ChatUI&quot;" style="rounded=1;whiteSpace=wrap;html=1;arcSize=40;fontColor=#000000;fillColor=#CCE8E7;strokeColor=#006A6A;fontFamily=Fira Sans;fontSource=https%3A%2F%2Ffonts.googleapis.com%2Fcss%3Ffamily%3DFira%2BSans;" parent="XelLYjP7PnaEkrrySzLf-1" vertex="1">
                    <mxGeometry x="1739.9199999999998" y="580" width="120" height="40" as="geometry"/>
                </mxCell>
                <mxCell id="dfRJ8p6c9e0zxSOdreHJ-4" value="" style="edgeStyle=orthogonalEdgeStyle;html=1;verticalAlign=bottom;endArrow=open;endSize=8;strokeColor=#6F7978;fontFamily=Fira Sans;fontSource=https%3A%2F%2Ffonts.googleapis.com%2Fcss%3Ffamily%3DFira%2BSans;entryX=0.5;entryY=0;entryDx=0;entryDy=0;" parent="XelLYjP7PnaEkrrySzLf-1" source="dfRJ8p6c9e0zxSOdreHJ-3" edge="1" target="dfRJ8p6c9e0zxSOdreHJ-5">
                    <mxGeometry relative="1" as="geometry">
                        <mxPoint x="1798.9199999999998" y="680" as="targetPoint"/>
                    </mxGeometry>
                </mxCell>
                <mxCell id="dfRJ8p6c9e0zxSOdreHJ-5" value="" style="ellipse;html=1;shape=endState;fillColor=#000000;strokeColor=#B3C8E8;fontFamily=Fira Sans;fontSource=https%3A%2F%2Ffonts.googleapis.com%2Fcss%3Ffamily%3DFira%2BSans;" parent="XelLYjP7PnaEkrrySzLf-1" vertex="1">
                    <mxGeometry x="1784.9199999999998" y="680" width="30" height="30" as="geometry"/>
                </mxCell>
                <mxCell id="ZOFcMcVCwPgp1J-xyhjM-0" value="Preme icona segnalazione" style="rounded=1;whiteSpace=wrap;html=1;arcSize=40;fontColor=#000000;fillColor=#CCE8E7;strokeColor=#006A6A;fontFamily=Fira Sans;fontSource=https%3A%2F%2Ffonts.googleapis.com%2Fcss%3Ffamily%3DFira%2BSans;" parent="XelLYjP7PnaEkrrySzLf-1" vertex="1">
                    <mxGeometry x="1419.9199999999998" y="480" width="120" height="40" as="geometry"/>
                </mxCell>
                <mxCell id="ZOFcMcVCwPgp1J-xyhjM-1" value="" style="edgeStyle=orthogonalEdgeStyle;html=1;verticalAlign=bottom;endArrow=open;endSize=8;strokeColor=#6F7978;fontFamily=Fira Sans;fontSource=https%3A%2F%2Ffonts.googleapis.com%2Fcss%3Ffamily%3DFira%2BSans;" parent="XelLYjP7PnaEkrrySzLf-1" edge="1">
                    <mxGeometry relative="1" as="geometry">
                        <mxPoint x="1479.61" y="580" as="targetPoint"/>
                        <mxPoint x="1479.61" y="520" as="sourcePoint"/>
                    </mxGeometry>
                </mxCell>
                <mxCell id="fR4EXYLiR_MJjty--3lN-0" value="Visualizza dialog di segnalazione" style="rounded=1;whiteSpace=wrap;html=1;arcSize=40;fontColor=#000000;fillColor=#CCE8E7;strokeColor=#006A6A;fontFamily=Fira Sans;fontSource=https%3A%2F%2Ffonts.googleapis.com%2Fcss%3Ffamily%3DFira%2BSans;" parent="XelLYjP7PnaEkrrySzLf-1" vertex="1">
                    <mxGeometry x="1419.9199999999998" y="580" width="120" height="40" as="geometry"/>
                </mxCell>
                <mxCell id="fR4EXYLiR_MJjty--3lN-1" value="" style="edgeStyle=orthogonalEdgeStyle;html=1;verticalAlign=bottom;endArrow=open;endSize=8;strokeColor=#6F7978;fontFamily=Fira Sans;fontSource=https%3A%2F%2Ffonts.googleapis.com%2Fcss%3Ffamily%3DFira%2BSans;" parent="XelLYjP7PnaEkrrySzLf-1" source="fR4EXYLiR_MJjty--3lN-0" edge="1">
                    <mxGeometry relative="1" as="geometry">
                        <mxPoint x="1479.9199999999998" y="680" as="targetPoint"/>
                    </mxGeometry>
                </mxCell>
                <mxCell id="WLiWyBVy0zN0e2OiOtzS-4" value="Clicca sul pulsante &quot;Conferma&quot;" style="rounded=1;whiteSpace=wrap;html=1;arcSize=40;fontColor=#000000;fillColor=#CCE8E7;strokeColor=#006A6A;fontFamily=Fira Sans;fontSource=https%3A%2F%2Ffonts.googleapis.com%2Fcss%3Ffamily%3DFira%2BSans;" parent="XelLYjP7PnaEkrrySzLf-1" vertex="1">
                    <mxGeometry x="1419.9199999999998" y="680" width="120" height="40" as="geometry"/>
                </mxCell>
                <mxCell id="WLiWyBVy0zN0e2OiOtzS-5" value="" style="edgeStyle=orthogonalEdgeStyle;html=1;verticalAlign=bottom;endArrow=open;endSize=8;strokeColor=#6F7978;fontFamily=Fira Sans;fontSource=https%3A%2F%2Ffonts.googleapis.com%2Fcss%3Ffamily%3DFira%2BSans;" parent="XelLYjP7PnaEkrrySzLf-1" source="WLiWyBVy0zN0e2OiOtzS-4" edge="1">
                    <mxGeometry relative="1" as="geometry">
                        <mxPoint x="1479.9199999999998" y="780" as="targetPoint"/>
                    </mxGeometry>
                </mxCell>
                <mxCell id="WLiWyBVy0zN0e2OiOtzS-6" value="Visualizza messaggio di avvenuta segnalazione" style="rounded=1;whiteSpace=wrap;html=1;arcSize=40;fontColor=#000000;fillColor=#CCE8E7;strokeColor=#006A6A;fontFamily=Fira Sans;fontSource=https%3A%2F%2Ffonts.googleapis.com%2Fcss%3Ffamily%3DFira%2BSans;" parent="XelLYjP7PnaEkrrySzLf-1" vertex="1">
                    <mxGeometry x="1419.9199999999998" y="780" width="120" height="60" as="geometry"/>
                </mxCell>
                <mxCell id="WLiWyBVy0zN0e2OiOtzS-7" value="" style="edgeStyle=orthogonalEdgeStyle;html=1;verticalAlign=bottom;endArrow=open;endSize=8;strokeColor=#6F7978;fontFamily=Fira Sans;fontSource=https%3A%2F%2Ffonts.googleapis.com%2Fcss%3Ffamily%3DFira%2BSans;" parent="XelLYjP7PnaEkrrySzLf-1" source="WLiWyBVy0zN0e2OiOtzS-6" edge="1">
                    <mxGeometry relative="1" as="geometry">
                        <mxPoint x="1479.9199999999998" y="880" as="targetPoint"/>
                    </mxGeometry>
                </mxCell>
                <mxCell id="WLiWyBVy0zN0e2OiOtzS-9" value="Clicca sul pulsante &quot;Conferma&quot;" style="rounded=1;whiteSpace=wrap;html=1;arcSize=40;fontColor=#000000;fillColor=#CCE8E7;strokeColor=#006A6A;fontFamily=Fira Sans;fontSource=https%3A%2F%2Ffonts.googleapis.com%2Fcss%3Ffamily%3DFira%2BSans;" parent="XelLYjP7PnaEkrrySzLf-1" vertex="1">
                    <mxGeometry x="1420.9199999999998" y="880" width="120" height="40" as="geometry"/>
                </mxCell>
                <mxCell id="WLiWyBVy0zN0e2OiOtzS-10" value="" style="edgeStyle=orthogonalEdgeStyle;html=1;verticalAlign=bottom;endArrow=open;endSize=8;strokeColor=#6F7978;fontFamily=Fira Sans;fontSource=https%3A%2F%2Ffonts.googleapis.com%2Fcss%3Ffamily%3DFira%2BSans;" parent="XelLYjP7PnaEkrrySzLf-1" source="WLiWyBVy0zN0e2OiOtzS-9" edge="1">
                    <mxGeometry relative="1" as="geometry">
                        <mxPoint x="1480.9199999999998" y="980" as="targetPoint"/>
                    </mxGeometry>
                </mxCell>
                <mxCell id="WLiWyBVy0zN0e2OiOtzS-11" value="" style="ellipse;html=1;shape=endState;fillColor=#000000;strokeColor=#B3C8E8;fontFamily=Fira Sans;fontSource=https%3A%2F%2Ffonts.googleapis.com%2Fcss%3Ffamily%3DFira%2BSans;" parent="XelLYjP7PnaEkrrySzLf-1" vertex="1">
                    <mxGeometry x="1465.9199999999998" y="980" width="30" height="30" as="geometry"/>
                </mxCell>
                <mxCell id="D8AwqrVCzPZ_DGp5jxF8-0" value="Questa dialog non c'è su Figma e quindi neanche sugli ECB (serve negli ECB?)" style="shape=note2;boundedLbl=1;whiteSpace=wrap;html=1;size=25;verticalAlign=top;align=center;strokeColor=#006A6A;fillColor=#FFFFCC;" vertex="1" parent="XelLYjP7PnaEkrrySzLf-1">
                    <mxGeometry x="1540.92" y="550" width="120" height="100" as="geometry"/>
                </mxCell>
            </root>
        </mxGraphModel>
    </diagram>
    <diagram id="5RV4ifVO0iKVDFfkzTlO" name="Interazione con un itinerario">
        <mxGraphModel grid="1" gridSize="10" guides="1" tooltips="1" connect="1" arrows="1" page="1" fold="1" pageScale="1" pageWidth="827" pageHeight="1169" math="0" shadow="0">
            <root>
                <mxCell id="FMA_D36bvQWmhanH8rQe-0"/>
                <mxCell id="FMA_D36bvQWmhanH8rQe-1" parent="FMA_D36bvQWmhanH8rQe-0"/>
                <mxCell id="8o3Z3nER_xXkt7tp4Vhq-0" value="Preme su una&lt;br&gt;&quot;ItineraryCard&quot;" style="rounded=1;whiteSpace=wrap;html=1;arcSize=40;fontColor=#000000;fillColor=#CCE8E7;strokeColor=#006A6A;fontFamily=Fira Sans;fontSource=https%3A%2F%2Ffonts.googleapis.com%2Fcss%3Ffamily%3DFira%2BSans;" parent="FMA_D36bvQWmhanH8rQe-1" vertex="1">
                    <mxGeometry x="339" y="320" width="120" height="40" as="geometry"/>
                </mxCell>
                <mxCell id="8o3Z3nER_xXkt7tp4Vhq-1" value="" style="edgeStyle=orthogonalEdgeStyle;html=1;verticalAlign=bottom;endArrow=open;endSize=8;strokeColor=#6F7978;fontFamily=Fira Sans;fontSource=https%3A%2F%2Ffonts.googleapis.com%2Fcss%3Ffamily%3DFira%2BSans;" parent="FMA_D36bvQWmhanH8rQe-1" source="8o3Z3nER_xXkt7tp4Vhq-0" edge="1">
                    <mxGeometry relative="1" as="geometry">
                        <mxPoint x="399" y="420" as="targetPoint"/>
                    </mxGeometry>
                </mxCell>
                <mxCell id="1Y6AiSNtKSb3Byb227pw-3" value="" style="rhombus;whiteSpace=wrap;html=1;fillColor=#B3C8E8;strokeColor=#4B607C;fontFamily=Fira Sans;fontSource=https%3A%2F%2Ffonts.googleapis.com%2Fcss%3Ffamily%3DFira%2BSans;" parent="FMA_D36bvQWmhanH8rQe-1" vertex="1">
                    <mxGeometry x="358.97" y="520" width="80" height="40" as="geometry"/>
                </mxCell>
                <mxCell id="1Y6AiSNtKSb3Byb227pw-4" value="[L'utente vuole segnalare l'itinerario]" style="edgeStyle=orthogonalEdgeStyle;html=1;align=left;verticalAlign=bottom;endArrow=open;endSize=8;strokeColor=#6F7978;entryX=0;entryY=0.5;entryDx=0;entryDy=0;fontFamily=Fira Sans;fontSource=https%3A%2F%2Ffonts.googleapis.com%2Fcss%3Ffamily%3DFira%2BSans;" parent="FMA_D36bvQWmhanH8rQe-1" source="1Y6AiSNtKSb3Byb227pw-3" target="lOsy_8owEbQRagDqq3DD-0" edge="1">
                    <mxGeometry x="-0.5575" relative="1" as="geometry">
                        <mxPoint x="750" y="540" as="targetPoint"/>
                        <Array as="points"/>
                        <mxPoint as="offset"/>
                    </mxGeometry>
                </mxCell>
                <mxCell id="1Y6AiSNtKSb3Byb227pw-5" value="[L'utente vuole salvare l'itinerario]" style="edgeStyle=orthogonalEdgeStyle;html=1;align=left;verticalAlign=top;endArrow=open;endSize=8;strokeColor=#6F7978;entryX=1;entryY=0.5;entryDx=0;entryDy=0;fontFamily=Fira Sans;fontSource=https%3A%2F%2Ffonts.googleapis.com%2Fcss%3Ffamily%3DFira%2BSans;" parent="FMA_D36bvQWmhanH8rQe-1" source="1Y6AiSNtKSb3Byb227pw-3" target="oCmGEfN2BQdtiuWtU1hT-13" edge="1">
                    <mxGeometry x="0.4357" y="-20" relative="1" as="geometry">
                        <mxPoint x="200" y="540" as="targetPoint"/>
                        <mxPoint as="offset"/>
                        <Array as="points"/>
                    </mxGeometry>
                </mxCell>
                <mxCell id="4Woy-dBznJdLsFyTz0---0" value="Visualizza schermata &quot;ItineraryUI&quot;" style="rounded=1;whiteSpace=wrap;html=1;arcSize=40;fontColor=#000000;fillColor=#CCE8E7;strokeColor=#006A6A;fontFamily=Fira Sans;fontSource=https%3A%2F%2Ffonts.googleapis.com%2Fcss%3Ffamily%3DFira%2BSans;" parent="FMA_D36bvQWmhanH8rQe-1" vertex="1">
                    <mxGeometry x="339" y="420" width="120" height="40" as="geometry"/>
                </mxCell>
                <mxCell id="4Woy-dBznJdLsFyTz0---1" value="" style="edgeStyle=orthogonalEdgeStyle;html=1;verticalAlign=bottom;endArrow=open;endSize=8;strokeColor=#6F7978;fontFamily=Fira Sans;fontSource=https%3A%2F%2Ffonts.googleapis.com%2Fcss%3Ffamily%3DFira%2BSans;" parent="FMA_D36bvQWmhanH8rQe-1" source="4Woy-dBznJdLsFyTz0---0" edge="1">
                    <mxGeometry relative="1" as="geometry">
                        <mxPoint x="399" y="520" as="targetPoint"/>
                    </mxGeometry>
                </mxCell>
                <mxCell id="4Woy-dBznJdLsFyTz0---2" value="[L'utente vuole &lt;br&gt;visualizzare l'itinerario]" style="edgeStyle=orthogonalEdgeStyle;html=1;align=left;verticalAlign=bottom;endArrow=open;endSize=8;strokeColor=#6F7978;exitX=0.5;exitY=1;exitDx=0;exitDy=0;fontFamily=Fira Sans;fontSource=https%3A%2F%2Ffonts.googleapis.com%2Fcss%3Ffamily%3DFira%2BSans;" parent="FMA_D36bvQWmhanH8rQe-1" source="1Y6AiSNtKSb3Byb227pw-3" edge="1">
                    <mxGeometry x="0.25" y="-49" relative="1" as="geometry">
                        <mxPoint x="399" y="640" as="targetPoint"/>
                        <mxPoint x="389.99" y="690" as="sourcePoint"/>
                        <mxPoint as="offset"/>
                        <Array as="points">
                            <mxPoint x="399" y="600"/>
                            <mxPoint x="399" y="600"/>
                        </Array>
                    </mxGeometry>
                </mxCell>
                <mxCell id="4Woy-dBznJdLsFyTz0---6" value="" style="rhombus;whiteSpace=wrap;html=1;fillColor=#B3C8E8;strokeColor=#4B607C;fontFamily=Fira Sans;fontSource=https%3A%2F%2Ffonts.googleapis.com%2Fcss%3Ffamily%3DFira%2BSans;" parent="FMA_D36bvQWmhanH8rQe-1" vertex="1">
                    <mxGeometry x="359" y="640" width="80" height="40" as="geometry"/>
                </mxCell>
                <mxCell id="4Woy-dBznJdLsFyTz0---7" value="[L'utente vuole visualizzare&lt;br&gt;i post associati all'itinerario]" style="edgeStyle=orthogonalEdgeStyle;html=1;align=left;verticalAlign=bottom;endArrow=open;endSize=8;strokeColor=#6F7978;fontFamily=Fira Sans;fontSource=https%3A%2F%2Ffonts.googleapis.com%2Fcss%3Ffamily%3DFira%2BSans;" parent="FMA_D36bvQWmhanH8rQe-1" source="4Woy-dBznJdLsFyTz0---6" edge="1">
                    <mxGeometry x="-0.5223" y="-20" relative="1" as="geometry">
                        <mxPoint x="720" y="760" as="targetPoint"/>
                        <mxPoint as="offset"/>
                    </mxGeometry>
                </mxCell>
                <mxCell id="4Woy-dBznJdLsFyTz0---8" value="[L'utente vuole visualizzare&lt;br&gt;la mappa dell'itinerario]" style="edgeStyle=orthogonalEdgeStyle;html=1;align=left;verticalAlign=top;endArrow=open;endSize=8;strokeColor=#6F7978;fontFamily=Fira Sans;fontSource=https%3A%2F%2Ffonts.googleapis.com%2Fcss%3Ffamily%3DFira%2BSans;" parent="FMA_D36bvQWmhanH8rQe-1" source="4Woy-dBznJdLsFyTz0---6" edge="1">
                    <mxGeometry x="0.115" y="-20" relative="1" as="geometry">
                        <mxPoint x="120" y="760" as="targetPoint"/>
                        <Array as="points">
                            <mxPoint x="120" y="660"/>
                        </Array>
                        <mxPoint as="offset"/>
                    </mxGeometry>
                </mxCell>
                <mxCell id="4Woy-dBznJdLsFyTz0---9" value="[L'utente vuole &lt;br&gt;visualizzare&lt;br&gt;la informazioni dell'itinerario]" style="edgeStyle=orthogonalEdgeStyle;html=1;align=left;verticalAlign=bottom;endArrow=open;endSize=8;strokeColor=#6F7978;exitX=0.5;exitY=1;exitDx=0;exitDy=0;fontFamily=Fira Sans;fontSource=https%3A%2F%2Ffonts.googleapis.com%2Fcss%3Ffamily%3DFira%2BSans;" parent="FMA_D36bvQWmhanH8rQe-1" source="4Woy-dBznJdLsFyTz0---6" edge="1">
                    <mxGeometry x="0.25" y="-39" relative="1" as="geometry">
                        <mxPoint x="399" y="760" as="targetPoint"/>
                        <mxPoint x="400" y="710" as="sourcePoint"/>
                        <mxPoint y="-1" as="offset"/>
                    </mxGeometry>
                </mxCell>
                <mxCell id="4Woy-dBznJdLsFyTz0---10" value="" style="ellipse;html=1;shape=endState;fillColor=#000000;strokeColor=#B3C8E8;fontFamily=Fira Sans;fontSource=https%3A%2F%2Ffonts.googleapis.com%2Fcss%3Ffamily%3DFira%2BSans;" parent="FMA_D36bvQWmhanH8rQe-1" vertex="1">
                    <mxGeometry x="384" y="1180" width="30" height="30" as="geometry"/>
                </mxCell>
                <mxCell id="4Woy-dBznJdLsFyTz0---14" value="" style="rhombus;whiteSpace=wrap;html=1;fillColor=#B3C8E8;strokeColor=#4B607C;fontFamily=Fira Sans;fontSource=https%3A%2F%2Ffonts.googleapis.com%2Fcss%3Ffamily%3DFira%2BSans;" parent="FMA_D36bvQWmhanH8rQe-1" vertex="1">
                    <mxGeometry x="359" y="760" width="80" height="40" as="geometry"/>
                </mxCell>
                <mxCell id="4Woy-dBznJdLsFyTz0---15" value="[L'utente vuole contattare&amp;nbsp;&lt;br&gt;l'autore dell'itinerario]" style="edgeStyle=orthogonalEdgeStyle;html=1;align=left;verticalAlign=bottom;endArrow=open;endSize=8;strokeColor=#6F7978;fontFamily=Fira Sans;fontSource=https%3A%2F%2Ffonts.googleapis.com%2Fcss%3Ffamily%3DFira%2BSans;" parent="FMA_D36bvQWmhanH8rQe-1" source="4Woy-dBznJdLsFyTz0---14" edge="1">
                    <mxGeometry x="0.3847" y="10" relative="1" as="geometry">
                        <mxPoint x="479" y="870" as="targetPoint"/>
                        <mxPoint as="offset"/>
                    </mxGeometry>
                </mxCell>
                <mxCell id="4Woy-dBznJdLsFyTz0---16" value="[L'utente vuole&lt;br&gt;valutare l'itinerario]" style="edgeStyle=orthogonalEdgeStyle;html=1;align=left;verticalAlign=top;endArrow=open;endSize=8;strokeColor=#6F7978;fontFamily=Fira Sans;fontSource=https%3A%2F%2Ffonts.googleapis.com%2Fcss%3Ffamily%3DFira%2BSans;" parent="FMA_D36bvQWmhanH8rQe-1" source="4Woy-dBznJdLsFyTz0---14" edge="1">
                    <mxGeometry x="-0.0766" y="-110" relative="1" as="geometry">
                        <mxPoint x="319" y="870" as="targetPoint"/>
                        <Array as="points">
                            <mxPoint x="319" y="780"/>
                        </Array>
                        <mxPoint as="offset"/>
                    </mxGeometry>
                </mxCell>
                <mxCell id="4Woy-dBznJdLsFyTz0---17" value="" style="edgeStyle=orthogonalEdgeStyle;html=1;align=left;verticalAlign=bottom;endArrow=open;endSize=8;strokeColor=#6F7978;exitX=0.5;exitY=1;exitDx=0;exitDy=0;fontFamily=Fira Sans;fontSource=https%3A%2F%2Ffonts.googleapis.com%2Fcss%3Ffamily%3DFira%2BSans;entryX=0.5;entryY=0;entryDx=0;entryDy=0;" parent="FMA_D36bvQWmhanH8rQe-1" source="4Woy-dBznJdLsFyTz0---14" edge="1" target="4Woy-dBznJdLsFyTz0---10">
                    <mxGeometry x="0.3847" y="10" relative="1" as="geometry">
                        <mxPoint x="399" y="840" as="targetPoint"/>
                        <mxPoint x="389" y="930" as="sourcePoint"/>
                        <mxPoint as="offset"/>
                    </mxGeometry>
                </mxCell>
                <mxCell id="XVOqyhlQwD_m7ZhEg-4j-2" value="Preme pulsante &quot;Valuta itinerario&quot;" style="rounded=1;whiteSpace=wrap;html=1;arcSize=40;fontColor=#000000;fillColor=#CCE8E7;strokeColor=#006A6A;fontFamily=Fira Sans;fontSource=https%3A%2F%2Ffonts.googleapis.com%2Fcss%3Ffamily%3DFira%2BSans;" parent="FMA_D36bvQWmhanH8rQe-1" vertex="1">
                    <mxGeometry x="259" y="870" width="120" height="40" as="geometry"/>
                </mxCell>
                <mxCell id="XVOqyhlQwD_m7ZhEg-4j-3" value="" style="edgeStyle=orthogonalEdgeStyle;html=1;verticalAlign=bottom;endArrow=open;endSize=8;strokeColor=#6F7978;fontFamily=Fira Sans;fontSource=https%3A%2F%2Ffonts.googleapis.com%2Fcss%3Ffamily%3DFira%2BSans;" parent="FMA_D36bvQWmhanH8rQe-1" source="XVOqyhlQwD_m7ZhEg-4j-2" edge="1">
                    <mxGeometry relative="1" as="geometry">
                        <mxPoint x="319" y="970" as="targetPoint"/>
                    </mxGeometry>
                </mxCell>
                <mxCell id="XVOqyhlQwD_m7ZhEg-4j-4" value="Riempie campi" style="rounded=1;whiteSpace=wrap;html=1;arcSize=40;fontColor=#000000;fillColor=#CCE8E7;strokeColor=#006A6A;fontFamily=Fira Sans;fontSource=https%3A%2F%2Ffonts.googleapis.com%2Fcss%3Ffamily%3DFira%2BSans;" parent="FMA_D36bvQWmhanH8rQe-1" vertex="1">
                    <mxGeometry x="259" y="970" width="120" height="40" as="geometry"/>
                </mxCell>
                <mxCell id="XVOqyhlQwD_m7ZhEg-4j-5" value="" style="edgeStyle=orthogonalEdgeStyle;html=1;verticalAlign=bottom;endArrow=open;endSize=8;strokeColor=#6F7978;fontFamily=Fira Sans;fontSource=https%3A%2F%2Ffonts.googleapis.com%2Fcss%3Ffamily%3DFira%2BSans;" parent="FMA_D36bvQWmhanH8rQe-1" source="XVOqyhlQwD_m7ZhEg-4j-4" edge="1">
                    <mxGeometry relative="1" as="geometry">
                        <mxPoint x="319" y="1070" as="targetPoint"/>
                    </mxGeometry>
                </mxCell>
                <mxCell id="XVOqyhlQwD_m7ZhEg-4j-6" value="Preme pulsante &quot;Fatto&quot;" style="rounded=1;whiteSpace=wrap;html=1;arcSize=40;fontColor=#000000;fillColor=#CCE8E7;strokeColor=#006A6A;fontFamily=Fira Sans;fontSource=https%3A%2F%2Ffonts.googleapis.com%2Fcss%3Ffamily%3DFira%2BSans;" parent="FMA_D36bvQWmhanH8rQe-1" vertex="1">
                    <mxGeometry x="259" y="1069" width="120" height="40" as="geometry"/>
                </mxCell>
                <mxCell id="XVOqyhlQwD_m7ZhEg-4j-7" value="" style="edgeStyle=orthogonalEdgeStyle;html=1;verticalAlign=bottom;endArrow=open;endSize=8;strokeColor=#6F7978;fontFamily=Fira Sans;fontSource=https%3A%2F%2Ffonts.googleapis.com%2Fcss%3Ffamily%3DFira%2BSans;entryX=0.5;entryY=0;entryDx=0;entryDy=0;" parent="FMA_D36bvQWmhanH8rQe-1" source="XVOqyhlQwD_m7ZhEg-4j-6" edge="1" target="4Woy-dBznJdLsFyTz0---10">
                    <mxGeometry relative="1" as="geometry">
                        <mxPoint x="400" y="1180" as="targetPoint"/>
                        <Array as="points">
                            <mxPoint x="319" y="1150"/>
                            <mxPoint x="399" y="1150"/>
                        </Array>
                    </mxGeometry>
                </mxCell>
                <mxCell id="XVOqyhlQwD_m7ZhEg-4j-9" value="Preme icona chat" style="rounded=1;whiteSpace=wrap;html=1;arcSize=40;fontColor=#000000;fillColor=#CCE8E7;strokeColor=#006A6A;fontFamily=Fira Sans;fontSource=https%3A%2F%2Ffonts.googleapis.com%2Fcss%3Ffamily%3DFira%2BSans;" parent="FMA_D36bvQWmhanH8rQe-1" vertex="1">
                    <mxGeometry x="419" y="870" width="120" height="40" as="geometry"/>
                </mxCell>
                <mxCell id="XVOqyhlQwD_m7ZhEg-4j-10" value="" style="edgeStyle=orthogonalEdgeStyle;html=1;verticalAlign=bottom;endArrow=open;endSize=8;strokeColor=#6F7978;fontFamily=Fira Sans;fontSource=https%3A%2F%2Ffonts.googleapis.com%2Fcss%3Ffamily%3DFira%2BSans;" parent="FMA_D36bvQWmhanH8rQe-1" source="XVOqyhlQwD_m7ZhEg-4j-9" edge="1">
                    <mxGeometry relative="1" as="geometry">
                        <mxPoint x="479" y="970" as="targetPoint"/>
                    </mxGeometry>
                </mxCell>
                <mxCell id="oCmGEfN2BQdtiuWtU1hT-0" value="Visualizza la schermata&lt;br&gt;&quot;ChatUI&quot;&amp;nbsp;" style="rounded=1;whiteSpace=wrap;html=1;arcSize=40;fontColor=#000000;fillColor=#CCE8E7;strokeColor=#006A6A;fontFamily=Fira Sans;fontSource=https%3A%2F%2Ffonts.googleapis.com%2Fcss%3Ffamily%3DFira%2BSans;" parent="FMA_D36bvQWmhanH8rQe-1" vertex="1">
                    <mxGeometry x="419" y="970" width="120" height="50" as="geometry"/>
                </mxCell>
                <mxCell id="oCmGEfN2BQdtiuWtU1hT-1" value="" style="edgeStyle=orthogonalEdgeStyle;html=1;verticalAlign=bottom;endArrow=open;endSize=8;strokeColor=#6F7978;fontFamily=Fira Sans;fontSource=https%3A%2F%2Ffonts.googleapis.com%2Fcss%3Ffamily%3DFira%2BSans;entryX=0.5;entryY=0;entryDx=0;entryDy=0;" parent="FMA_D36bvQWmhanH8rQe-1" source="oCmGEfN2BQdtiuWtU1hT-0" edge="1" target="4Woy-dBznJdLsFyTz0---10">
                    <mxGeometry relative="1" as="geometry">
                        <mxPoint x="400" y="1180" as="targetPoint"/>
                        <Array as="points">
                            <mxPoint x="479" y="1150"/>
                            <mxPoint x="399" y="1150"/>
                        </Array>
                    </mxGeometry>
                </mxCell>
                <mxCell id="oCmGEfN2BQdtiuWtU1hT-3" value="Preme Tab &quot;Mappa&quot;" style="rounded=1;whiteSpace=wrap;html=1;arcSize=40;fontColor=#000000;fillColor=#CCE8E7;strokeColor=#006A6A;fontFamily=Fira Sans;fontSource=https%3A%2F%2Ffonts.googleapis.com%2Fcss%3Ffamily%3DFira%2BSans;" parent="FMA_D36bvQWmhanH8rQe-1" vertex="1">
                    <mxGeometry x="60" y="760" width="120" height="40" as="geometry"/>
                </mxCell>
                <mxCell id="oCmGEfN2BQdtiuWtU1hT-4" value="" style="edgeStyle=orthogonalEdgeStyle;html=1;verticalAlign=bottom;endArrow=open;endSize=8;strokeColor=#6F7978;fontFamily=Fira Sans;fontSource=https%3A%2F%2Ffonts.googleapis.com%2Fcss%3Ffamily%3DFira%2BSans;" parent="FMA_D36bvQWmhanH8rQe-1" source="oCmGEfN2BQdtiuWtU1hT-3" edge="1">
                    <mxGeometry relative="1" as="geometry">
                        <mxPoint x="120" y="860" as="targetPoint"/>
                    </mxGeometry>
                </mxCell>
                <mxCell id="oCmGEfN2BQdtiuWtU1hT-5" value="" style="ellipse;html=1;shape=endState;fillColor=#000000;strokeColor=#B3C8E8;fontFamily=Fira Sans;fontSource=https%3A%2F%2Ffonts.googleapis.com%2Fcss%3Ffamily%3DFira%2BSans;" parent="FMA_D36bvQWmhanH8rQe-1" vertex="1">
                    <mxGeometry x="105.02999999999997" y="860" width="30" height="30" as="geometry"/>
                </mxCell>
                <mxCell id="oCmGEfN2BQdtiuWtU1hT-10" value="Preme Tab &quot;Tag&quot;" style="rounded=1;whiteSpace=wrap;html=1;arcSize=40;fontColor=#000000;fillColor=#CCE8E7;strokeColor=#006A6A;fontFamily=Fira Sans;fontSource=https%3A%2F%2Ffonts.googleapis.com%2Fcss%3Ffamily%3DFira%2BSans;" parent="FMA_D36bvQWmhanH8rQe-1" vertex="1">
                    <mxGeometry x="660" y="760" width="120" height="40" as="geometry"/>
                </mxCell>
                <mxCell id="oCmGEfN2BQdtiuWtU1hT-11" value="" style="edgeStyle=orthogonalEdgeStyle;html=1;verticalAlign=bottom;endArrow=open;endSize=8;strokeColor=#6F7978;fontFamily=Fira Sans;fontSource=https%3A%2F%2Ffonts.googleapis.com%2Fcss%3Ffamily%3DFira%2BSans;" parent="FMA_D36bvQWmhanH8rQe-1" source="oCmGEfN2BQdtiuWtU1hT-10" edge="1">
                    <mxGeometry relative="1" as="geometry">
                        <mxPoint x="720" y="870" as="targetPoint"/>
                    </mxGeometry>
                </mxCell>
                <mxCell id="oCmGEfN2BQdtiuWtU1hT-12" value="" style="ellipse;html=1;shape=endState;fillColor=#000000;strokeColor=#B3C8E8;fontFamily=Fira Sans;fontSource=https%3A%2F%2Ffonts.googleapis.com%2Fcss%3Ffamily%3DFira%2BSans;" parent="FMA_D36bvQWmhanH8rQe-1" vertex="1">
                    <mxGeometry x="705" y="870" width="30" height="30" as="geometry"/>
                </mxCell>
                <mxCell id="oCmGEfN2BQdtiuWtU1hT-13" value="Preme icona segnalibro" style="rounded=1;whiteSpace=wrap;html=1;arcSize=40;fontColor=#000000;fillColor=#CCE8E7;strokeColor=#006A6A;fontFamily=Fira Sans;fontSource=https%3A%2F%2Ffonts.googleapis.com%2Fcss%3Ffamily%3DFira%2BSans;" parent="FMA_D36bvQWmhanH8rQe-1" vertex="1">
                    <mxGeometry x="-80" y="520" width="120" height="40" as="geometry"/>
                </mxCell>
                <mxCell id="oCmGEfN2BQdtiuWtU1hT-14" value="" style="edgeStyle=orthogonalEdgeStyle;html=1;verticalAlign=bottom;endArrow=open;endSize=8;strokeColor=#6F7978;exitX=0;exitY=0.5;exitDx=0;exitDy=0;fontFamily=Fira Sans;fontSource=https%3A%2F%2Ffonts.googleapis.com%2Fcss%3Ffamily%3DFira%2BSans;" parent="FMA_D36bvQWmhanH8rQe-1" source="oCmGEfN2BQdtiuWtU1hT-13" edge="1">
                    <mxGeometry relative="1" as="geometry">
                        <mxPoint x="-140" y="540" as="targetPoint"/>
                    </mxGeometry>
                </mxCell>
                <mxCell id="oCmGEfN2BQdtiuWtU1hT-17" value="Visualizza dialog&amp;nbsp;&lt;br&gt;&quot;SaveItineraryDialog&quot;" style="rounded=1;whiteSpace=wrap;html=1;arcSize=40;fontColor=#000000;fillColor=#CCE8E7;strokeColor=#006A6A;fontFamily=Fira Sans;fontSource=https%3A%2F%2Ffonts.googleapis.com%2Fcss%3Ffamily%3DFira%2BSans;" parent="FMA_D36bvQWmhanH8rQe-1" vertex="1">
                    <mxGeometry x="-260" y="520" width="120" height="40" as="geometry"/>
                </mxCell>
                <mxCell id="lOsy_8owEbQRagDqq3DD-0" value="Preme icona segnalazione" style="rounded=1;whiteSpace=wrap;html=1;arcSize=40;fontColor=#000000;fillColor=#CCE8E7;strokeColor=#006A6A;fontFamily=Fira Sans;fontSource=https%3A%2F%2Ffonts.googleapis.com%2Fcss%3Ffamily%3DFira%2BSans;" parent="FMA_D36bvQWmhanH8rQe-1" vertex="1">
                    <mxGeometry x="760" y="520" width="120" height="40" as="geometry"/>
                </mxCell>
                <mxCell id="lOsy_8owEbQRagDqq3DD-1" value="" style="edgeStyle=orthogonalEdgeStyle;html=1;verticalAlign=bottom;endArrow=open;endSize=8;strokeColor=#6F7978;exitX=1;exitY=0.5;exitDx=0;exitDy=0;entryX=0;entryY=0.5;entryDx=0;entryDy=0;fontFamily=Fira Sans;fontSource=https%3A%2F%2Ffonts.googleapis.com%2Fcss%3Ffamily%3DFira%2BSans;" parent="FMA_D36bvQWmhanH8rQe-1" source="lOsy_8owEbQRagDqq3DD-0" target="lOsy_8owEbQRagDqq3DD-17" edge="1">
                    <mxGeometry relative="1" as="geometry">
                        <mxPoint x="930" y="540" as="targetPoint"/>
                    </mxGeometry>
                </mxCell>
                <mxCell id="oCmGEfN2BQdtiuWtU1hT-27" value="Seleziona la/le compilation desiderata/e" style="rounded=1;whiteSpace=wrap;html=1;arcSize=40;fontColor=#000000;fillColor=#CCE8E7;strokeColor=#006A6A;fontFamily=Fira Sans;fontSource=https%3A%2F%2Ffonts.googleapis.com%2Fcss%3Ffamily%3DFira%2BSans;" parent="FMA_D36bvQWmhanH8rQe-1" vertex="1">
                    <mxGeometry x="-260" y="620" width="120" height="40" as="geometry"/>
                </mxCell>
                <mxCell id="oCmGEfN2BQdtiuWtU1hT-28" value="" style="edgeStyle=orthogonalEdgeStyle;html=1;verticalAlign=bottom;endArrow=open;endSize=8;strokeColor=#6F7978;fontFamily=Fira Sans;fontSource=https%3A%2F%2Ffonts.googleapis.com%2Fcss%3Ffamily%3DFira%2BSans;" parent="FMA_D36bvQWmhanH8rQe-1" source="oCmGEfN2BQdtiuWtU1hT-27" edge="1">
                    <mxGeometry relative="1" as="geometry">
                        <mxPoint x="-200" y="720" as="targetPoint"/>
                    </mxGeometry>
                </mxCell>
                <mxCell id="oCmGEfN2BQdtiuWtU1hT-29" value="" style="edgeStyle=orthogonalEdgeStyle;html=1;verticalAlign=bottom;endArrow=open;endSize=8;strokeColor=#6F7978;fontFamily=Fira Sans;fontSource=https%3A%2F%2Ffonts.googleapis.com%2Fcss%3Ffamily%3DFira%2BSans;" parent="FMA_D36bvQWmhanH8rQe-1" edge="1">
                    <mxGeometry relative="1" as="geometry">
                        <mxPoint x="-200.42000000000002" y="620" as="targetPoint"/>
                        <mxPoint x="-200.42000000000002" y="560" as="sourcePoint"/>
                    </mxGeometry>
                </mxCell>
                <mxCell id="oCmGEfN2BQdtiuWtU1hT-30" value="Preme pulsante &quot;OK&quot;" style="rounded=1;whiteSpace=wrap;html=1;arcSize=40;fontColor=#000000;fillColor=#CCE8E7;strokeColor=#006A6A;fontFamily=Fira Sans;fontSource=https%3A%2F%2Ffonts.googleapis.com%2Fcss%3Ffamily%3DFira%2BSans;" parent="FMA_D36bvQWmhanH8rQe-1" vertex="1">
                    <mxGeometry x="-260" y="720" width="120" height="40" as="geometry"/>
                </mxCell>
                <mxCell id="oCmGEfN2BQdtiuWtU1hT-31" value="" style="edgeStyle=orthogonalEdgeStyle;html=1;verticalAlign=bottom;endArrow=open;endSize=8;strokeColor=#6F7978;fontFamily=Fira Sans;fontSource=https%3A%2F%2Ffonts.googleapis.com%2Fcss%3Ffamily%3DFira%2BSans;" parent="FMA_D36bvQWmhanH8rQe-1" source="oCmGEfN2BQdtiuWtU1hT-30" edge="1">
                    <mxGeometry relative="1" as="geometry">
                        <mxPoint x="-200" y="820" as="targetPoint"/>
                    </mxGeometry>
                </mxCell>
                <mxCell id="oCmGEfN2BQdtiuWtU1hT-32" value="" style="ellipse;html=1;shape=endState;fillColor=#000000;strokeColor=#B3C8E8;fontFamily=Fira Sans;fontSource=https%3A%2F%2Ffonts.googleapis.com%2Fcss%3Ffamily%3DFira%2BSans;" parent="FMA_D36bvQWmhanH8rQe-1" vertex="1">
                    <mxGeometry x="-215" y="820" width="30" height="30" as="geometry"/>
                </mxCell>
                <mxCell id="lOsy_8owEbQRagDqq3DD-17" value="Riempe i campi &quot;Titolo&quot; e &quot;Descrizione&quot;" style="rounded=1;whiteSpace=wrap;html=1;arcSize=40;fontColor=#000000;fillColor=#ffffc0;strokeColor=#6F7978;fontFamily=Fira Sans;fontSource=https%3A%2F%2Ffonts.googleapis.com%2Fcss%3Ffamily%3DFira%2BSans;" parent="FMA_D36bvQWmhanH8rQe-1" vertex="1">
                    <mxGeometry x="940" y="520" width="120" height="40" as="geometry"/>
                </mxCell>
                <mxCell id="lOsy_8owEbQRagDqq3DD-18" value="" style="edgeStyle=orthogonalEdgeStyle;html=1;verticalAlign=bottom;endArrow=open;endSize=8;strokeColor=#6F7978;fontFamily=Fira Sans;fontSource=https%3A%2F%2Ffonts.googleapis.com%2Fcss%3Ffamily%3DFira%2BSans;" parent="FMA_D36bvQWmhanH8rQe-1" source="lOsy_8owEbQRagDqq3DD-17" edge="1">
                    <mxGeometry relative="1" as="geometry">
                        <mxPoint x="1000" y="620" as="targetPoint"/>
                    </mxGeometry>
                </mxCell>
                <mxCell id="lOsy_8owEbQRagDqq3DD-19" value="Preme il pulsante &quot;Fatto&quot;" style="rounded=1;whiteSpace=wrap;html=1;arcSize=40;fontColor=#000000;fillColor=#ffffc0;strokeColor=#6F7978;fontFamily=Fira Sans;fontSource=https%3A%2F%2Ffonts.googleapis.com%2Fcss%3Ffamily%3DFira%2BSans;" parent="FMA_D36bvQWmhanH8rQe-1" vertex="1">
                    <mxGeometry x="940" y="620" width="120" height="40" as="geometry"/>
                </mxCell>
                <mxCell id="lOsy_8owEbQRagDqq3DD-20" value="" style="edgeStyle=orthogonalEdgeStyle;html=1;verticalAlign=bottom;endArrow=open;endSize=8;strokeColor=#6F7978;fontFamily=Fira Sans;fontSource=https%3A%2F%2Ffonts.googleapis.com%2Fcss%3Ffamily%3DFira%2BSans;" parent="FMA_D36bvQWmhanH8rQe-1" source="lOsy_8owEbQRagDqq3DD-19" edge="1">
                    <mxGeometry relative="1" as="geometry">
                        <mxPoint x="1000" y="720" as="targetPoint"/>
                    </mxGeometry>
                </mxCell>
                <mxCell id="lOsy_8owEbQRagDqq3DD-3" value="Inserisce titolo e descrizione" style="rounded=1;whiteSpace=wrap;html=1;arcSize=40;fontColor=#000000;fillColor=#CCE8E7;strokeColor=#006A6A;fontFamily=Fira Sans;fontSource=https%3A%2F%2Ffonts.googleapis.com%2Fcss%3Ffamily%3DFira%2BSans;" parent="FMA_D36bvQWmhanH8rQe-1" vertex="1">
                    <mxGeometry x="940" y="520" width="120" height="40" as="geometry"/>
                </mxCell>
                <mxCell id="lOsy_8owEbQRagDqq3DD-4" value="" style="edgeStyle=orthogonalEdgeStyle;html=1;verticalAlign=bottom;endArrow=open;endSize=8;strokeColor=#6F7978;fontFamily=Fira Sans;fontSource=https%3A%2F%2Ffonts.googleapis.com%2Fcss%3Ffamily%3DFira%2BSans;" parent="FMA_D36bvQWmhanH8rQe-1" source="lOsy_8owEbQRagDqq3DD-3" edge="1">
                    <mxGeometry relative="1" as="geometry">
                        <mxPoint x="1000" y="620" as="targetPoint"/>
                    </mxGeometry>
                </mxCell>
                <mxCell id="lOsy_8owEbQRagDqq3DD-5" value="Preme pulsante &quot;Fatto&quot;" style="rounded=1;whiteSpace=wrap;html=1;arcSize=40;fontColor=#000000;fillColor=#CCE8E7;strokeColor=#006A6A;fontFamily=Fira Sans;fontSource=https%3A%2F%2Ffonts.googleapis.com%2Fcss%3Ffamily%3DFira%2BSans;" parent="FMA_D36bvQWmhanH8rQe-1" vertex="1">
                    <mxGeometry x="940" y="620" width="120" height="40" as="geometry"/>
                </mxCell>
                <mxCell id="lOsy_8owEbQRagDqq3DD-6" value="" style="edgeStyle=orthogonalEdgeStyle;html=1;verticalAlign=bottom;endArrow=open;endSize=8;strokeColor=#6F7978;fontFamily=Fira Sans;fontSource=https%3A%2F%2Ffonts.googleapis.com%2Fcss%3Ffamily%3DFira%2BSans;" parent="FMA_D36bvQWmhanH8rQe-1" source="lOsy_8owEbQRagDqq3DD-5" edge="1">
                    <mxGeometry relative="1" as="geometry">
                        <mxPoint x="1000" y="720" as="targetPoint"/>
                    </mxGeometry>
                </mxCell>
                <mxCell id="lOsy_8owEbQRagDqq3DD-9" value="" style="ellipse;html=1;shape=endState;fillColor=#000000;strokeColor=#B3C8E8;fontFamily=Fira Sans;fontSource=https%3A%2F%2Ffonts.googleapis.com%2Fcss%3Ffamily%3DFira%2BSans;" parent="FMA_D36bvQWmhanH8rQe-1" vertex="1">
                    <mxGeometry x="985" y="720" width="30" height="30" as="geometry"/>
                </mxCell>
                <mxCell id="aOiUjcqVyldJsEt0Ff5z-0" value="" style="ellipse;html=1;shape=startState;fillColor=#000000;strokeColor=#81A1C1;fontFamily=Fira Sans;fontSource=https%3A%2F%2Ffonts.googleapis.com%2Fcss%3Ffamily%3DFira%2BSans;" vertex="1" parent="FMA_D36bvQWmhanH8rQe-1">
                    <mxGeometry x="384" y="230" width="30" height="30" as="geometry"/>
                </mxCell>
                <mxCell id="aOiUjcqVyldJsEt0Ff5z-1" value="" style="edgeStyle=orthogonalEdgeStyle;html=1;verticalAlign=bottom;endArrow=open;endSize=8;strokeColor=#81A1C1;fontFamily=Fira Sans;fontSource=https%3A%2F%2Ffonts.googleapis.com%2Fcss%3Ffamily%3DFira%2BSans;" edge="1" source="aOiUjcqVyldJsEt0Ff5z-0" parent="FMA_D36bvQWmhanH8rQe-1">
                    <mxGeometry relative="1" as="geometry">
                        <mxPoint x="399" y="320" as="targetPoint"/>
                    </mxGeometry>
                </mxCell>
            </root>
        </mxGraphModel>
    </diagram>
</mxfile>